<?xml version="1.0" encoding="UTF-8"?>
<svg width="1440px" height="800px" viewBox="0 0 1440 800" version="1.1" xmlns="http://www.w3.org/2000/svg" xmlns:xlink="http://www.w3.org/1999/xlink">
    <!-- Generator: Sketch 47.1 (45422) - http://www.bohemiancoding.com/sketch -->
    <title>background_pattern</title>
    <desc>Created with Sketch.</desc>
    <defs></defs>
    <g id="Welcome" stroke="none" stroke-width="1" fill="none" fill-rule="evenodd" opacity="0.35">
        <g id="WEBSITE-DESIGN" stroke="#E5E5E2" stroke-width="4">
            <g id="background" transform="translate(-3.000000, 0.000000)">
                <g id="background_pattern" transform="translate(3.000000, 0.000000)">
                    <path d="M455.841679,252.4828 L510.989632,301.811415" id="Line" stroke-linecap="square"></path>
                    <polyline id="Path-2" points="565.980007 198.513228 542.463139 245.140085 561.563862 292.93538"></polyline>
                    <polyline id="Path-3" points="615.309579 200.76811 609.186018 280.53148 671.008053 292.234317"></polyline>
                    <path d="M656.307517,231.858831 C656.307517,231.858831 674.095764,210.753137 728.918589,264.054444" id="Path-4"></path>
                    <path d="M737.226286,198.310289 C737.226286,198.310289 821.260691,264.671461 736.925095,301.497781" id="Path-5"></path>
                    <polyline id="Path-6" points="842.100745 266.639358 809.861294 207.385163 872.457251 231.858831 855.604493 186.806292"></polyline>
                    <path d="M775.1046,313.243666 C775.1046,313.243666 796.495176,371.146981 754.731293,358.513493 C712.967411,345.880005 715.241306,307.524465 694.662551,343.602575" id="Path-7"></path>
                    <path d="M816.258121,304.744811 C816.258121,304.744811 846.103998,355.032775 890.377144,367.473573" id="Path-8"></path>
                    <polyline id="Path-9" points="883.645217 323.810862 948.227841 336.225011 952.151308 401.673981 999.96495 411.917294"></polyline>
                    <polyline id="Path-10" points="1022.07958 373.692948 1075.34259 303.80596 1090.77118 395.272167"></polyline>
                    <polyline id="Path-11" points="1010.20346 430.675861 1054.16146 413.001687 1030.51893 477.852089 1087.47602 444.926714"></polyline>
                    <polyline id="Path-12" points="938.801147 280.021057 959.998243 311.267569 989.971777 280.605276 1014.3603 325.18839"></polyline>
                    <polyline id="Path-13" points="993.683812 228.794241 1039.52076 255.748279 1085.33577 235.638833"></polyline>
                    <path d="M1104.97903,251.740739 C1104.97903,251.740739 1116.22484,283.665766 1142.74166,267.703252" id="Path-14"></path>
                    <path d="M1117.66897,313.645445 C1117.66897,313.645445 1201.1708,380.734328 1117.33985,419.542895" id="Path-15"></path>
                    <path d="M1200.19941,418.985324 C1200.19941,418.985324 1228.49345,463.89027 1273.03388,481.027372" id="Path-16"></path>
                    <polyline id="Path-17" points="1220.28549 391.182631 1189.79933 333.064077 1251.22842 357.328655 1234.48736 311.960433"></polyline>
                    <polyline id="Path-18" points="1249.20784 392.670853 1270.1596 425.216997 1300.41837 394.017632 1325.22577 437.096125"></polyline>
                    <path d="M852.014132,418.251462 C852.014132,418.251462 889.270116,407.80316 945.160076,430.487271" id="Path-19"></path>
                    <polyline id="Path-20" points="823.761976 449.413929 804.73705 388.870352 842.346086 391.237978 815.737519 369.347175"></polyline>
                    <polyline id="Path-21" points="683.73389 442.034316 728.579499 467.489882 773.556755 447.116"></polyline>
                    <polyline id="Path-22" points="642.71401 422.068362 655.874679 366.385081 673.996032 424.02601 730.235055 386.04765"></polyline>
                    <path d="M599.972751,326.096492 L655.360061,325.797208" id="Path-23"></path>
                    <path d="M744.363127,415.695246 C744.363127,415.695246 752.595028,405.419135 781.593181,406.872509" id="Path-24"></path>
                    <polyline id="Path-25" points="475.331358 219.112599 514.781452 193.156859 486.900301 162.178883 516.429029 141.720955"></polyline>
                    <polyline id="Path-26" points="656.734372 106.165568 687.001119 165.358266 627.871855 141.936194 645.684037 187.6119"></polyline>
                    <polyline id="Path-27" points="608.888816 34.4008793 629.748816 65.6289427 659.913836 36.161737 683.933354 77.6577123"></polyline>
                    <polyline id="Path-28" points="695.201105 13.0983957 741.19962 38.3305234 787.1363 18.9446893"></polyline>
                    <polyline id="Path-29" points="492.882242 10.5544791 556.720863 22.7123919 561.515991 87.603791 607.54243 97.3899781"></polyline>
                    <polyline id="Path-30" points="473.973005 84.9696791 462.878788 150.01892 399.518881 155.578229 390.790313 203.683057"></polyline>
                    <polyline id="Path-31" points="364.46698 276.280003 328.278131 322.498931 318.193204 264.970745"></polyline>
                    <path d="M376.694155,313.571648 L376.694155,373.148556" id="Path-32"></path>
                    <path d="M366.302054,130.110363 L320.504998,184.621106" id="Path-33"></path>
                    <path d="M386.055026,111.333347 C386.055026,111.333347 471.697115,77.9549467 385.849577,8.67882736" id="Path-34"></path>
                    <path d="M466.738426,6.39524704 C466.738426,6.39524704 472.459069,13.7769102 470.552188,24.9467748 C468.645307,36.1166394 468.772965,50.8820156 491.65753,49.4778391 C514.542095,48.0736627 516.31334,62.8451886 515.810689,71.1923511 C515.308039,79.5395137 512.918454,88.0219691 518.962229,92.984759" id="Path-35"></path>
                    <path d="M557.825897,119.518568 C557.825897,119.518568 587.729619,116.759413 585.016901,150.689235" id="Path-36"></path>
                    <polyline id="Path-37" points="358.552857 48.8218735 331.23619 89.1535098 280.26303 91.7814721"></polyline>
                    <polyline id="Path-38" points="328.427729 16.8845473 274.36287 52.7925154 256.030063 6.3018179 242.9871 51.0583063"></polyline>
                    <path d="M190.388304,16.1937335 L220.032722,66.0922184" id="Path-39"></path>
                    <polyline id="Path-40" points="211.858666 119.750206 232.790473 151.291903 263.420246 121.58896 288.64054 163.913092"></polyline>
                    <path d="M285.32544,202.346528 C285.32544,202.346528 290.661116,236.622781 321.564155,217.286145 C352.467194,197.949508 355.49706,221.351082 355.49706,221.351082" id="Path-41"></path>
                    <path d="M436.423808,217.784268 C436.423808,217.784268 409.344504,225.211029 422.884156,249.641649 C436.423808,274.072268 432.536244,277.233203 418.150862,282.351785" id="Path-42"></path>
                    <polyline id="Path-43" points="170.47975 8.99656071 136.427166 37.0616399 112.397674 6.67403243 83.7346218 26.2894544 60.5408867 8.07615894"></polyline>
                    <path d="M7.65486226,31.1436 C7.65486226,31.1436 46.9872722,29.6492283 48.2738184,65.5797453 C49.5603646,101.510262 63.6844477,102.598755 88.659401,104.591251" id="Path-44"></path>
                    <path d="M140.476296,78.9429949 C140.476296,78.9429949 134.747674,53.811312 171.872012,51.4969833" id="Path-45"></path>
                    <polyline id="Path-46" points="182.64908 100.101986 106.000847 108.194962 106.798705 173.752576"></polyline>
                    <polyline id="Path-47" points="156.746617 164.224675 220.130459 176.208347 225.577836 241.79466 272.721276 251.388157"></polyline>
                    <path d="M274.215266,276.946218 L288.698385,317.966618" id="Path-48"></path>
                    <path d="M211.838719,290.108578 C211.838719,290.108578 240.400045,284.457024 239.841544,321.416587" id="Path-49"></path>
                    <path d="M133.229749,301.756068 C133.229749,301.756068 139.004247,267.262525 192.558478,226.656203" id="Path-50"></path>
                    <path d="M62.0588118,220.164194 L139.738277,214.102661" id="Path-51"></path>
                    <polyline id="Path-52" points="35.5579548 122.878342 65.7249698 179.875605 6.11699076 158.200041 21.0030284 200.940301"></polyline>
                    <polyline id="Path-53" points="56.164635 255.774927 15.2025999 289.823643 65.8665896 316.035619"></polyline>
                    <path d="M113.43489,252.48485 C113.43489,252.48485 65.7130019,267.045237 96.3088656,311.570953" id="Path-54"></path>
                    <polyline id="Path-55" points="162.975894 296.133212 151.133685 361.455089 88.0051573 368.352977 79.9288387 416.681245"></polyline>
                    <path d="M29.7276067,341.837617 C29.7276067,341.837617 -4.69398656,347.292381 1.07253289,389.913747" id="Path-56"></path>
                    <polyline id="Path-57" points="55.3408465 385.432682 31.1896817 413.385017 39.8085439 453.341523 20.7297619 473.25008 29.3087312 514.555415"></polyline>
                    <polyline id="Path-58" points="213.498264 352.154726 185.108478 373.572004 212.887903 404.894362 173.786871 431.012044"></polyline>
                    <path d="M126.328277,428.656717 C126.328277,428.656717 98.2396822,435.058531 113.365077,463.627884 C128.490472,492.197237 108.276737,494.62226 108.276737,494.62226" id="Path-59"></path>
                    <path d="M145.51477,464.882418 L198.636162,511.552323" id="Path-60"></path>
                    <polyline id="Path-61" points="254.743539 408.112694 231.799134 454.626806 250.263565 501.011775"></polyline>
                    <polyline id="Path-62" points="283.163244 358.997268 334.603151 373.002134 282.507006 392.451514 318.961143 448.25779"></polyline>
                    <path d="M358.89793,411.060439 C358.89793,411.060439 381.082375,420.215259 368.731531,434.51121 C356.380688,448.807161 330.073312,495.311536 354.023017,499.515353 C377.972723,503.719171 387.519095,493.919147 387.519095,493.919147" id="Path-63"></path>
                    <polyline id="Path-64" points="244.311544 532.760511 280.681906 540.951882 281.852762 496.737749 328.766819 509.705369"></polyline>
                    <polyline id="Path-65" points="82.7452778 488.870261 50.9785573 530.140748 59.8208198 579.161879"></polyline>
                    <polyline id="Path-66" points="116.771931 562.73199 156.445426 517.562608 163.291048 569.469987 194.752588 547.802623"></polyline>
                    <path d="M231.74129,567.791125 C231.74129,567.791125 174.195774,646.281512 278.473833,659.816952" id="Path-67"></path>
                    <polyline id="Path-68" points="169.470459 645.078225 114.182882 612.997406 97.2842471 659.158937 83.0584371 611.318544"></polyline>
                    <polyline id="Path-69" points="17.0935236 580.268821 10.6907123 658.648513 71.6071786 669.814278"></polyline>
                    <polyline id="Path-70" points="28.1259066 695.300593 74.7208199 726.06948 21.3700431 737.378737 67.8053848 783.901049 10.8283429 783.038044"></polyline>
                    <polyline id="Path-71" points="115.090445 784.803002 108.759441 711.320503 170.497701 703.838395"></polyline>
                    <polyline id="Path-72" points="183.69228 670.341101 226.609067 667.020275 205.663297 708.981576 251.574047 694.01941 234.779134 749.799036"></polyline>
                    <path d="M165.75643,741.626115 C165.75643,741.626115 247.945788,777.39264 166.095519,833.731888" id="Path-73"></path>
                    <path d="M296.106498,688.570795 C296.106498,688.570795 252.776818,753.769678 269.565748,789.101627" id="Path-82"></path>
                    <polyline id="Path-83" points="319.862723 708.397356 338.103753 757.73622 316.144704 801.228791"></polyline>
                    <path d="M355.353446,825.819302 L408.341197,783.464422" id="Path-84"></path>
                    <polyline id="Path-85" points="394.189189 749.473103 360.028894 720.15554 389.282362 691.951068 363.082696 667.657791"></polyline>
                    <path d="M424.665374,747.337115 C424.665374,747.337115 452.279243,743.309077 451.581117,777.044159" id="Path-86"></path>
                    <polyline id="Path-98" points="493.121599 776.377943 501.173982 729.917128 565.910194 731.731283 578.410636 667.358507"></polyline>
                    <polyline id="Path-99" points="399.229658 609.559736 403.282777 673.39749 453.833072 659.376225 463.780368 727.502355"></polyline>
                    <polyline id="Path-100" points="291.845935 627.305656 306.698064 564.45595 383.286458 577.876597"></polyline>
                    <path d="M351.655373,619.532463 C351.655373,619.532463 321.895266,621.680751 325.549456,649.456795" id="Path-101"></path>
                    <path d="M397.262937,535.905046 C397.262937,535.905046 444.847195,588.189606 444.803312,616.146041" id="Path-102"></path>
                    <path d="M478.435026,510.908656 L468.637329,528.566431 C468.637329,528.566431 457.239926,557.299775 467.837476,560.885037 C478.435026,564.470299 484.119765,558.876142 498.461265,543.721287 C512.802764,528.566431 540.324879,562.967728 509.379953,586.945321" id="Path-103"></path>
                    <polyline id="Path-104" points="472.754277 646.293811 510.887905 660.645109 537.51243 600.304471"></polyline>
                    <path d="M548.185776,675.027155 C548.185776,675.027155 558.609793,638.141388 607.500543,597.043092" id="Path-105"></path>
                    <path d="M616.067544,658.32873 C616.067544,658.32873 644.706661,653.55453 644.53911,690.061067" id="Path-106"></path>
                    <polyline id="Path-107" points="572.773769 536.103886 636.295242 548.161354 640.669499 614.087949 688.90401 622.125578"></polyline>
                    <polyline id="Path-108" points="622.215041 729.252963 592.462912 750.49805 621.76824 782.013098 579.755027 808.915888"></polyline>
                    <polyline id="Path-109" points="667.706915 736.36609 643.896835 785.065388 663.029472 831.144923"></polyline>
                    <path d="M532.296432,777.218399 C532.296432,777.218399 506.986379,783.591515 518.022751,808.329619 C529.059123,833.067722 533.487235,834.533396 513.666446,843.22289" id="Path-110"></path>
                    <polyline id="Path-111" points="735.092016 819.251446 698.785483 764.105237 749.996005 743.530465 699.515523 730.806782"></polyline>
                    <polyline id="Path-112" points="731.772926 688.335058 665.79804 671.005266 774.921093 629.991015"></polyline>
                    <path d="M791.325055,685.508256 L791.325055,745.909885" id="Path-113"></path>
                    <path d="M774.364587,781.555972 C774.364587,781.555972 797.045698,792.559795 784.052579,807.804846 C771.059459,823.049897 723.287705,888.496817 805.094091,865.466274" id="Path-119"></path>
                    <polyline id="Path-120" points="825.638938 757.190949 835.003797 694.702024 913.06025 700.12399"></polyline>
                    <path d="M884.642539,737.380787 C884.642539,737.380787 902.761897,765.17733 854.764748,811.722191" id="Path-121"></path>
                    <path d="M758.137678,74.8982622 C758.137678,74.8982622 672.816129,111.59906 759.364871,178.739911" id="Path-126"></path>
                    <polyline id="Path-127" points="760.850513 137.782167 792.910486 153.378922 803.454147 109.900619 847.685834 132.813321"></polyline>
                    <polyline id="Path-128" points="814.29142 65.4032497 876.686616 74.7772031 871.297868 155.29238"></polyline>
                    <path d="M936.063058,128.771391 L890.261338,181.085206" id="Path-129"></path>
                    <path d="M874.360576,23.1572186 L818.596156,23.1572186" id="Path-130"></path>
                    <polyline id="Path-131" points="916.278529 10.4767254 909.757529 89.7325254 972.272279 100.438129"></polyline>
                    <polyline id="Path-132" points="947.645789 206.769622 960.520765 150.397615 977.724321 205.878843 1033.973 169.008201"></polyline>
                    <polyline id="Path-133" points="994.832936 86.959006 979.055245 43.151855 1041.40649 68.8940897 1009.0951 6.86482622"></polyline>
                    <path d="M1052.52507,94.8170097 L1120.05583,100.479687" id="Path-134"></path>
                    <path d="M1021.28967,95.6662306 C1021.28967,95.6662306 1023.70361,150.220543 1095.5278,144.019424" id="Path-135"></path>
                    <path d="M927.743464,236.64955 C927.743464,236.64955 894.113458,231.828866 896.833325,262.740507" id="Path-136"></path>
                    <path d="M1082.61766,173.666268 C1082.61766,173.666268 1097.77297,172.820661 1105.82708,181.273119 C1113.88119,189.725577 1128.59344,184.183959 1134.45865,167.546457 C1140.32386,150.908954 1149.79328,148.664843 1163.35746,156.497551 C1176.92163,164.330258 1177.96597,164.832563 1183.62372,163.182907" id="Path-137"></path>
                    <path d="M1230.16914,169.022656 L1279.63837,141.665094" id="Path-138"></path>
                    <polyline id="Path-139" points="1152.59403 112.641615 1207.30432 75.5613773 1225.35179 128.941235 1237.88744 73.1221257"></polyline>
                    <polyline id="Path-140" points="1166.22501 60.8861172 1120.05408 36.1611408 1076.51862 55.702256"></polyline>
                    <polyline id="Path-141" points="1210.31077 206.176974 1271.44888 214.940211 1267.46842 294.895263"></polyline>
                    <path d="M1299.28577,235.165308 L1356.102,235.165308" id="Path-142"></path>
                    <path d="M1153.4608,234.952915 C1153.4608,234.952915 1205.16992,281.439629 1226.53152,265.944057" id="Path-143"></path>
                    <path d="M1326.12402,304.72093 C1326.12402,304.72093 1294.00602,300.749467 1295.41782,330.87332" id="Path-144"></path>
                    <polyline id="Path-145" points="1173.04138 0.428815836 1197.48151 42.9892382 1227.822 11.869809 1248.67901 43.9251881"></polyline>
                    <path d="M1316.95348,10.4351677 C1316.95348,10.4351677 1307.37856,22.6675626 1292.45709,23.6233878 C1277.53562,24.579213 1284.69307,46.5902963 1284.69307,46.5902963 C1284.69307,46.5902963 1298.91655,74.3995708 1276.25392,79.6484788 C1253.59129,84.8973867 1256.58367,93.5919634 1256.58367,93.5919634" id="Path-146"></path>
                    <polyline id="Path-147" points="1342.86166 94.923614 1325.96051 50.527429 1388.66338 75.7926545 1356.49792 14.8095589"></polyline>
                    <path d="M1397.38383,6.30650864 C1397.38383,6.30650864 1480.03123,69.5066129 1398.56707,111.172643" id="Path-148"></path>
                    <polyline id="Path-149" points="1316.44713 110.298126 1311.00036 189.441901 1371.20489 200.819655"></polyline>
                    <path d="M1356.25178,140.738179 C1356.25178,140.738179 1370.12363,117.825476 1428.30101,171.012001" id="Path-150"></path>
                    <polyline id="Path-151" points="1426.79954 235.355843 1404.2002 297.71034 1358.86967 266.478886 1379.29944 315.833075"></polyline>
                    <polyline id="Path-152" points="1331.08905 356.228888 1378.0617 382.928755 1423.58915 363.729135"></polyline>
                    <polyline id="Path-153" points="1373.48346 423.785315 1402.83412 482.636324 1342.54343 460.29278 1358.63584 504.244479"></polyline>
                    <path d="M1415.64932,432.508801 C1415.64932,432.508801 1442.15088,427.980827 1433.31703,395.412302" id="Path-154"></path>
                    <polyline id="Path-155" points="1430.10839 484.571463 1419.00388 550.210819 1354.33714 555.812064 1346.55027 604.851861"></polyline>
                    <polyline id="Path-156" points="1221.33441 487.650341 1144.06873 481.675078 1134.40239 546.382098"></polyline>
                    <path d="M1102.80886,472.966047 L1102.80886,530.855975" id="Path-157"></path>
                    <polyline id="Path-158" points="1226.96051 528.548459 1269.69776 510.376938 1245.93628 575.026138 1305.32855 542.885837"></polyline>
                    <polyline id="Path-159" points="1317.70069 565.541967 1310.03162 643.925057 1371.69014 653.969353"></polyline>
                    <path d="M1194.64033,531.289455 C1194.64033,531.289455 1214.69209,545.576241 1164.39477,605.422826" id="Path-160"></path>
                    <polyline id="Path-161" points="1011.63036 519.375066 1061.44771 532.31394 1009.17246 551.06004 1045.80363 610.050177"></polyline>
                    <polyline id="Path-162" points="991.879234 568.281156 967.950732 613.062201 986.024575 660.916703"></polyline>
                    <polyline id="Path-163" points="899.343972 588.342645 938.332837 565.305269 911.512169 534.388207 941.683883 512.68971"></polyline>
                    <path d="M948.076538,468.349537 C948.076538,468.349537 975.936276,461.658761 975.364876,498.79501" id="Path-164"></path>
                    <polyline id="Path-165" points="899.832739 451.135649 873.245905 511.379741 810.964989 502.994137 792.17206 545.348578"></polyline>
                    <path d="M787.72041,476.686357 L742.477783,527.641418" id="Path-166"></path>
                    <path d="M554.699697,423.982262 C554.699697,423.982262 536.003467,473.732152 554.400811,520.618181" id="Path-167"></path>
                    <path d="M592.32775,466.076516 C592.32775,466.076516 586.028278,437.998021 621.175573,440.209609" id="Path-168"></path>
                    <polyline id="Path-169" points="629.602414 484.544361 650.139434 517.242979 679.82238 487.424484 704.151742 526.607898"></polyline>
                    <path d="M698.653988,558.800598 C698.653988,558.800598 709.318962,563.131625 712.967136,574.728008 C716.615309,586.32439 729.126347,596.323515 743.240823,585.525761 C757.355299,574.728008 768.507282,576.791434 774.10525,591.410681 C779.703219,606.029929 782.189251,607.267623 788.103688,609.067249" id="Path-170"></path>
                    <polyline id="Path-171" points="863.588354 557.687577 830.188666 597.380524 838.01246 646.107735"></polyline>
                    <path d="M871.920255,623.749736 L924.800311,669.248102" id="Path-172"></path>
                    <polyline id="Path-173" points="951.128696 670.068413 923.520374 730.359484 971.282438 710.749708 947.371517 774.161214 1005.11463 741.090384"></polyline>
                    <polyline id="Path-174" points="1003.55163 783.452052 1059.24298 746.762095 1077.28518 801.399523 1090.05642 746.015865"></polyline>
                    <path d="M1039.44966,653.07496 L1047.69893,669.815454 C1047.69893,669.815454 1053.06482,685.992208 1043.94351,689.311397 C1034.82219,692.630586 1019.22208,695.28666 1006.03239,674.18081" id="Path-175"></path>
                    <polyline id="Path-176" points="1148.48346 689.963671 1165.0699 722.817679 1197.94917 696.047345 1221.41177 737.409824"></polyline>
                    <path d="M1081.37289,568.628072 C1081.37289,568.628072 1085.20391,578.927134 1082.04626,584.700029 C1078.88861,590.472925 1068.33089,611.318588 1091.7882,618.676093 C1115.24552,626.033599 1115.67627,632.599702 1111.74327,645.822253 C1107.81028,659.044803 1105.93608,656.488106 1107.49205,668.416949" id="Path-177"></path>
                    <path d="M1099.50475,698.48479 C1099.50475,698.48479 1162.68057,750.486019 1121.47115,800.738215" id="Path-178"></path>
                    <polyline id="Path-180" points="1166.52214 784.897535 1159.71807 865.369347 1220.72257 876.364047"></polyline>
                    <path d="M1282.0365,863.513709 C1282.0365,863.513709 1367.22794,830.787987 1282.57801,759.14988" id="Path-193"></path>
                    <path d="M1240.76379,771.759907 L1290.09061,721.139113" id="Path-194"></path>
                    <path d="M1319.2215,701.187842 L1376.16465,701.670272" id="Path-195"></path>
                    <polyline id="Path-196" points="1352.77414 795.22912 1366.19063 743.37786 1385.06092 797.223886 1439.96285 760.60801"></polyline>
                    <polyline id="Path-197" points="1239.73702 693.720119 1249.17832 644.288234 1294.31898 619.080828"></polyline>
                    <path d="M1237.40571,599.953482 C1237.40571,599.953482 1181.18164,687.710526 1136.23263,602.358404" id="Path-198"></path>
                    <path d="M1381.62372,607.49348 C1381.62372,607.49348 1481.24436,639.88674 1413.60282,706.283168" id="Path-199"></path>
                    <polyline id="Path-200" points="409.027355 387.369831 418.384236 323.413183 497.132831 329.632557"></polyline>
                    <polyline id="Path-201" points="510.34935 345.265037 553.186352 328.675257 529.124946 392.480213 585.547477 359.839774"></polyline>
                    <path d="M467.897315,371.911591 C467.897315,371.911591 486.615066,393.6794 437.738279,445.541682" id="Path-202"></path>
                    <path d="M402.468961,449.743962 C402.468961,449.743962 440.929711,535.306478 504.088159,450.34253" id="Path-203"></path>
                </g>
            </g>
        </g>
    </g>
</svg>
