<?xml version="1.0" encoding="UTF-8"?>
<svg width="14px" height="14px" viewBox="0 0 14 14" version="1.1" xmlns="http://www.w3.org/2000/svg" xmlns:xlink="http://www.w3.org/1999/xlink">
    <!-- Generator: Sketch 47.1 (45422) - http://www.bohemiancoding.com/sketch -->
    <title>Shape</title>
    <desc>Created with Sketch.</desc>
    <defs></defs>
    <g id="Page-1" stroke="none" stroke-width="1" fill="none" fill-rule="evenodd" opacity="0.5">
        <g id="MOBILE-MENU" transform="translate(-176.000000, -20.000000)" fill-rule="nonzero" fill="#5B5E6D">
            <path d="M183.695275,26.9998438 L189.855842,33.160411 C190.047969,33.3527882 190.047969,33.6640894 189.855842,33.8557171 C189.663715,34.0480943 189.352413,34.0480943 189.160536,33.8557171 L182.999969,27.69515 L176.839402,33.8557171 C176.647274,34.0480943 176.335973,34.0480943 176.144096,33.8557171 C175.951968,33.6638396 175.951968,33.3525383 176.144096,33.160411 L182.304912,26.9998438 L176.144096,20.8397764 C175.951968,20.6478989 175.951968,20.3360979 176.144096,20.1444703 C176.336223,19.9518432 176.647524,19.9518432 176.839402,20.1444703 L182.999969,26.3047876 L189.160536,20.1444703 C189.352663,19.9518432 189.663965,19.9518432 189.855842,20.1444703 C190.047969,20.3363478 190.047969,20.6481487 189.855842,20.8397764 L183.695275,26.9998438 Z" id="Shape"></path>
        </g>
    </g>
</svg>