<?xml version="1.0" encoding="UTF-8"?>
<svg width="112px" height="119px" viewBox="0 0 112 119" version="1.1" xmlns="http://www.w3.org/2000/svg" xmlns:xlink="http://www.w3.org/1999/xlink">
    <!-- Generator: Sketch 47.1 (45422) - http://www.bohemiancoding.com/sketch -->
    <title>female_reader</title>
    <desc>Created with Sketch.</desc>
    <defs></defs>
    <g id="Welcome" stroke="none" stroke-width="1" fill="none" fill-rule="evenodd">
        <g id="WEBSITE-DESIGN" transform="translate(-129.000000, -641.000000)">
            <g id="BOTTOM-BAR" transform="translate(0.000000, 641.000000)">
                <g id="female_reader" transform="translate(185.000000, 59.799988) scale(-1, 1) translate(-185.000000, -59.799988) translate(129.000000, 0.799988)">
                    <path d="M81.64,33.322 C96.285,31.36 109.747,41.641 111.709,56.288 C113.67,70.934 103.39,84.396 88.743,86.357 C74.096,88.318 60.635,78.037 58.673,63.391 C56.711,48.744 66.993,35.283 81.64,33.322" id="Fill-220" fill="#F9CB66"></path>
                    <path d="M67.4,16.674 C82.047,14.712 95.508,24.994 97.47,39.639 C99.432,54.286 89.15,67.747 74.505,69.709 C59.858,71.671 46.397,61.389 44.435,46.744 C42.473,32.097 52.755,18.636 67.4,16.674" id="Fill-228" fill="#F9CB66"></path>
                    <path d="M59.891,50.462 L45.273,50.462 C34.279,50.462 25.285,59.454 25.285,70.451 L25.285,70.457 C25.285,73.592 26.015,76.562 27.314,79.208 L77.85,79.208 C79.151,76.562 79.881,73.592 79.881,70.457 L79.881,70.451 C79.881,59.454 70.886,50.462 59.891,50.462" id="Fill-229" fill="#6F99C4"></path>
                    <path d="M74.407,46.382 L62.629,29.425 C59.672,25.168 53.774,24.104 49.517,27.06 C45.26,30.017 44.196,35.916 47.153,40.173 L58.929,57.131 C61.886,61.388 67.786,62.451 72.043,59.495 C76.3,56.538 77.363,50.639 74.407,46.382" id="Fill-230" fill="#D05F72"></path>
                    <path d="M60.716,48.417 L42.89,48.417 C37.586,48.417 33.248,52.758 33.248,58.061 L33.248,58.063 C33.248,63.367 37.586,67.706 42.89,67.706 L60.716,67.706 C66.023,67.706 70.361,63.367 70.361,58.063 L70.361,58.061 C70.361,52.758 66.023,48.417 60.716,48.417" id="Fill-231" fill="#86ADD1"></path>
                    <path d="M38.803,0.826 C47.264,-0.308 55.04,5.632 56.173,14.093 C57.307,22.553 51.367,30.33 42.907,31.462 C34.445,32.596 26.669,26.657 25.536,18.196 C24.402,9.735 30.342,1.958 38.803,0.826" id="Fill-232" fill="#F9CB66"></path>
                    <path d="M63.819,16.284 L65.117,25.97 C66.314,34.902 59.985,43.186 51.055,44.382 C42.122,45.579 33.837,39.251 32.642,30.32 L31.343,20.633 C30.148,11.703 36.475,3.417 45.406,2.222 C54.338,1.025 62.624,7.354 63.819,16.284 Z" id="Fill-233" fill="#E39281"></path>
                    <path d="M60.042,1.621 C68.698,0.461 76.654,6.538 77.814,15.194 C78.972,23.85 72.896,31.806 64.24,32.966 C55.583,34.126 47.628,28.049 46.469,19.393 C45.309,10.737 51.386,2.78 60.042,1.621" id="Fill-234" fill="#F9CB66"></path>
                    <path d="M44.972,0.205 C54.022,-1.007 62.339,5.346 63.551,14.395 C64.764,23.446 58.411,31.764 49.361,32.975 C40.31,34.187 31.993,27.835 30.781,18.785 C29.568,9.735 35.922,1.418 44.972,0.205" id="Fill-235" fill="#F9CB66"></path>
                    <path d="M62.443,24.235 L62.444,24.235 C65.265,23.857 67.88,25.855 68.258,28.676 L68.297,28.962 C68.673,31.782 66.677,34.397 63.856,34.775 L63.855,34.775 C61.033,35.153 58.418,33.156 58.04,30.335 L58.002,30.05 C57.624,27.228 59.622,24.613 62.443,24.235" id="Fill-236" fill="#E39281"></path>
                    <path d="M31.244,39.615 L50.715,39.615 C52.009,39.615 53.359,40.675 53.716,41.968 L61.74,71.067 C62.097,72.362 61.33,73.42 60.036,73.42 L40.565,73.42 C39.27,73.42 37.921,72.362 37.565,71.067 L29.54,41.968 C29.183,40.675 29.949,39.615 31.244,39.615" id="Fill-237" fill="#FFFFFE"></path>
                    <path d="M6.994,41.256 L26.463,41.256 C27.759,41.256 29.108,42.315 29.465,43.609 L37.489,72.708 C37.845,74.001 37.08,75.059 35.785,75.059 L16.315,75.059 C15.02,75.059 13.67,74.001 13.313,72.708 L5.29,43.609 C4.932,42.315 5.698,41.256 6.994,41.256" id="Fill-238" fill="#485366"></path>
                    <path d="M29.891,41.256 L49.36,41.256 C50.656,41.256 52.006,42.315 52.363,43.609 L60.386,72.708 C60.742,74.001 59.977,75.059 58.681,75.059 L39.212,75.059 C37.916,75.059 36.568,74.001 36.21,72.708 L28.186,43.609 C27.83,42.315 28.595,41.256 29.891,41.256" id="Fill-239" fill="#293341"></path>
                    <path d="M10.764,57.398 C16.303,57.398 20.822,52.88 20.822,47.341 C20.822,41.802 16.303,37.283 10.764,37.283 C5.225,37.283 0.706,41.802 0.706,47.341 C0.706,52.88 5.225,57.398 10.764,57.398" id="Fill-240" fill="#E39281"></path>
                    <path d="M32.154,64.84 L55.048,64.84 C63.349,64.84 70.139,71.63 70.139,79.931 C70.139,88.232 63.349,95.023 55.048,95.023 L32.154,95.023 C23.853,95.023 17.063,88.232 17.063,79.931 C17.063,71.63 23.853,64.84 32.154,64.84" id="Fill-241" fill="#6F99C4"></path>
                    <path d="M9.893,67.154 C4.81,71.531 4.24,79.2 8.618,84.282 C8.899,84.608 9.194,84.918 9.501,85.207 L9.701,85.39 L9.732,85.416 L39.808,112.894 L39.904,112.984 C42.566,115.416 46.687,115.529 49.486,113.116 C52.287,110.705 52.785,106.614 50.774,103.621 L50.7,103.512 L27.978,69.698 L27.957,69.664 L27.805,69.439 C27.565,69.094 27.303,68.754 27.022,68.429 C22.643,63.346 14.975,62.776 9.893,67.154" id="Fill-242" fill="#D05F72"></path>
                    <path d="M28.365,64.102 C22.556,67.455 20.566,74.883 23.921,80.693 C24.135,81.065 24.368,81.424 24.616,81.765 L24.778,81.983 L24.803,82.015 L49.231,114.616 L49.308,114.723 C51.47,117.608 55.498,118.487 58.698,116.64 C61.899,114.791 63.152,110.864 61.732,107.55 L61.679,107.43 L45.658,69.973 L45.644,69.936 L45.537,69.687 C45.365,69.301 45.172,68.92 44.956,68.548 C41.603,62.738 34.175,60.748 28.365,64.102" id="Fill-243" fill="#E39281"></path>
                    <path d="M75.637,30.116 L75.636,30.116 C70.95,30.116 67.119,33.947 67.119,38.634 L67.119,78.722 C67.119,83.407 70.95,87.237 75.636,87.237 L75.637,87.237 C80.324,87.237 84.155,83.407 84.155,78.722 L84.155,38.634 C84.155,33.947 80.324,30.116 75.637,30.116" id="Fill-244" fill="#E39281"></path>
                    <path d="M77.255,74.673 C69.965,74.673 64.053,80.583 64.053,87.875 C64.053,88.609 64.65,89.208 65.385,89.208 L89.127,89.208 C89.86,89.208 90.459,88.609 90.459,87.875 C90.459,80.583 84.547,74.673 77.255,74.673" id="Fill-245" fill="#D05F72"></path>
                </g>
            </g>
        </g>
    </g>
</svg>