<?xml version="1.0" encoding="UTF-8"?>
<svg width="688px" height="533px" viewBox="0 0 688 533" version="1.1" xmlns="http://www.w3.org/2000/svg" xmlns:xlink="http://www.w3.org/1999/xlink">
    <!-- Generator: Sketch 49.1 (51147) - http://www.bohemiancoding.com/sketch -->
    <title>ILLUSTRATION</title>
    <desc>Created with Sketch.</desc>
    <defs></defs>
    <g id="Page-1" stroke="none" stroke-width="1" fill="none" fill-rule="evenodd">
        <g id="Artboard" transform="translate(-752.000000, -124.000000)">
            <g id="ILLUSTRATION" transform="translate(752.000000, 124.000000)">
                <path d="M686.593602,489.53583 C674.385407,504.246073 664.862713,514.931938 658.025519,521.593426 L235.509334,521.593426 C179.062598,466.598173 143.99446,389.765532 143.99446,304.733463 C143.99446,137.516185 279.549696,1.96004407 446.766974,1.96004407 C512.041905,1.96004407 592.12441,41.4863147 687.014489,120.538856 L686.593602,489.53583 Z" id="Fill-3" fill="#E6E6E8"></path>
                <path d="M196.160046,223.170835 C196.217056,223.479411 196.247823,223.798845 196.247823,224.12371 C196.247823,227.021245 193.896856,229.371307 191.001131,229.371307 C188.103596,229.371307 185.752629,227.021245 185.752629,224.12371 C185.752629,223.798845 185.785206,223.479411 185.84131,223.170835 L185.8395,223.170835 L188.304487,209.240586 L188.304487,209.239681 L188.307201,209.224298 C188.513522,207.924841 189.64195,206.927626 191.001131,206.927626 C192.359407,206.927626 193.487835,207.924841 193.694155,209.224298 L193.695965,209.239681 L193.695965,209.240586 L196.161856,223.170835 L196.160046,223.170835" id="Fill-4" fill="#384354"></path>
                <polygon id="Fill-5" fill="#384354" points="189.59037 223.27852 192.460757 223.27852 192.460757 136.758772 189.59037 136.758772"></polygon>
                <path d="M237.231385,355.987801 L231.044487,355.987801 C229.923299,323.798194 211.20153,253.066484 228.334269,227.946972 C222.210715,221.203552 218.035441,207.721235 218.035441,192.184764 C218.035441,171.217903 196.880358,178.022858 196.880358,147.081128 C196.880358,124.795807 214.946064,106.730101 237.231385,106.730101 C259.516706,106.730101 277.581508,124.795807 277.581508,147.081128 C277.581508,178.022858 256.428234,171.217903 256.428234,192.184764 C256.428234,207.721235 252.251151,221.203552 246.128501,227.946972 C263.261241,253.066484 244.540377,323.798194 243.418283,355.987801 L237.231385,355.987801" id="Fill-6" fill="#485366"></path>
                <path d="M201.34068,166.327747 C199.099208,162.680943 197.419687,157.842367 196.990758,150.746935 L266.2737,150.746935 L266.2737,166.327747 L201.34068,166.327747" id="Fill-7" fill="#384354"></path>
                <path d="M266.891757,119.726478 C273.528397,126.916926 277.581508,136.525304 277.581508,147.081128 C277.581508,178.022858 256.428234,171.217903 256.428234,192.184764 C256.428234,207.721235 252.251151,221.203552 246.128501,227.946972 C263.261241,253.066484 244.540377,323.798194 243.418283,355.987801 L238.795982,355.987801 L238.795982,355.966083 C239.119036,336.076975 241.133375,315.741744 242.259088,295.831822 C243.259019,278.161563 245.381042,244.942165 240.118061,228.344229 C240.019426,228.034749 240.033,227.736127 240.160592,227.437505 C244.028196,218.275249 244.845333,202.051043 244.845333,192.184764 C244.845333,185.675717 245.617225,181.047986 248.594392,175.286397 C253.920717,164.97852 254.68175,158.965365 254.68175,147.081128 C254.68175,138.618371 253.451067,129.429872 250.340877,121.518208 C250.177087,121.100137 250.225048,120.668493 250.477519,120.300193 C250.72818,119.929178 251.111864,119.726478 251.559796,119.726478 L266.891757,119.726478" id="Fill-8" fill="#384354"></path>
                <path d="M312.559155,0.758318066 C314.032355,0.758318066 315.278422,1.7130025 315.659391,3.13462265 L357.175042,157.139249 C357.444707,158.136464 357.25196,159.110152 356.62395,159.930004 C355.995939,160.749856 355.105504,161.18874 354.072997,161.18874 L120.387964,161.18874 C119.355457,161.18874 118.465022,160.749856 117.837916,159.930004 C117.209001,159.110152 117.017159,158.136464 117.285918,157.139249 L158.80157,3.13462265 C159.182539,1.7130025 160.429511,0.758318066 161.901806,0.758318066 L312.559155,0.758318066 Z" id="Fill-9" fill="#E6E6E8"></path>
                <path d="M274.829664,0.758318066 C275.564454,0.758318066 276.18613,1.7130025 276.377067,3.13462265 L297.098696,157.139249 C297.232624,158.136464 297.137608,159.110152 296.823602,159.930004 C296.515027,160.736282 296.080668,161.175166 295.574821,161.18874 L120.387964,161.18874 C119.355457,161.18874 118.465022,160.749856 117.837916,159.930004 C117.209001,159.110152 117.017159,158.136464 117.285918,157.139249 L158.80157,3.13462265 C159.182539,1.7130025 160.429511,0.758318066 161.901806,0.758318066 L274.829664,0.758318066 Z" id="Fill-10" fill="#FFFFFE"></path>
                <path d="M237.231385,338.048783 C265.876443,338.048783 297.004585,345.414784 320.396616,362.554763 C321.663496,363.4823 322.167533,365.052326 321.67888,366.544529 C321.191131,368.037638 319.857287,369.005896 318.285451,369.005896 L156.177319,369.005896 C154.606388,369.005896 153.27164,368.037638 152.782986,366.544529 C152.296142,365.052326 152.799275,363.4823 154.067059,362.554763 C177.458185,345.414784 208.587232,338.048783 237.231385,338.048783" id="Fill-11" fill="#384354"></path>
                <polygon id="Fill-12" fill="#293341" points="132.002537 525.956922 686.656827 525.956922 686.656827 502.240027 132.002537 502.240027"></polygon>
                <path d="M374.289684,74.593884 C371.819268,78.6650928 367.202396,81.2296195 362.129447,80.8368868 C354.950763,80.2803646 349.581908,74.0111193 350.137525,66.8324352 C350.365563,63.8887495 351.553716,61.2536395 353.369878,59.2021991 C352.345516,60.8916738 351.688548,62.8417638 351.525663,64.9493089 C350.970046,72.127088 356.337997,78.3972382 363.516681,78.9528555 C367.755299,79.2804344 371.673577,77.5466189 374.289684,74.593884" id="Fill-13" fill="#293341"></path>
                <path d="M402.240672,58.4158286 C411.535951,59.1352354 418.488406,67.2523154 417.768999,76.5494035 C417.048688,85.8455866 408.931608,92.7971372 399.635425,92.0777305 C390.338337,91.3583237 383.386786,83.2394339 384.106193,73.9441556 C384.825599,64.6479725 392.944489,57.6964219 402.240672,58.4158286" id="Fill-14" fill="#293341"></path>
                <path d="M393.367084,97.0239913 C388.000943,98.1831863 384.590322,103.474219 385.750422,108.841265 C386.909617,114.208311 392.20065,117.618028 397.567696,116.458833 C402.933837,115.299638 406.344458,110.008605 405.185263,104.642464 C404.025163,99.2745128 398.735035,95.8638913 393.367084,97.0239913" id="Fill-15" fill="#6B97C3"></path>
                <path d="M447.80672,116.043477 C444.27665,112.512502 444.27665,106.786205 447.80672,103.25523 C450.822799,100.239151 455.442386,99.7984581 458.9254,101.935865 L458.926305,101.93858 C459.119052,102.056219 459.307274,102.180192 459.491877,102.314119 L468.580834,108.386093 L468.575405,108.398762 C469.010669,108.644899 469.416975,108.95257 469.787085,109.32268 C471.998695,111.535195 471.998695,115.12137 469.787085,117.333885 C468.656847,118.465027 467.165549,119.01793 465.684204,118.991687 L465.646198,118.991687 L465.508651,118.986258 L454.108542,118.691256 C451.825444,118.667728 449.54868,117.785437 447.80672,116.043477" id="Fill-16" fill="#FFFFFE"></path>
                <path d="M396.497182,105.794419 C395.813067,112.228359 400.47428,117.999901 406.90822,118.684017 C407.321765,118.727452 407.733501,118.750075 408.140713,118.751885 L408.402233,118.748265 L408.440239,118.746456 L447.737042,118.217986 L447.862825,118.217986 C451.34222,118.171835 454.314863,115.530391 454.692212,111.985842 C455.068656,108.440388 452.718594,105.232468 449.327881,104.456051 L449.203907,104.428904 L410.897986,95.6439972 L410.86179,95.6340431 L410.605699,95.5770335 C410.208442,95.4910667 409.800325,95.4268178 409.387684,95.3833819 C402.951935,94.6983619 397.182202,99.3595747 396.497182,105.794419" id="Fill-17" fill="#D05F72"></path>
                <path d="M403.306661,87.9667054 C400.446228,93.7717298 402.832486,100.795673 408.637511,103.655202 C409.010335,103.8389 409.388589,104.001784 409.770463,104.142951 L410.017505,104.230728 L410.054606,104.241587 L447.124415,117.289544 L447.244768,117.332075 C450.525082,118.488555 454.227086,117.032548 455.802542,113.834582 C457.377997,110.636615 456.276717,106.816067 453.361988,104.917557 L453.254303,104.850594 L420.323572,83.4023184 L420.2919,83.3796956 L420.072911,83.237624 C419.728139,83.0204446 419.367983,82.8195537 418.995158,82.6358561 C413.190134,79.7754225 406.167095,82.1616811 403.306661,87.9667054" id="Fill-18" fill="#E39281"></path>
                <path d="M400.553912,78.4859198 L406.081128,78.4859198 C416.628808,78.4859198 425.258974,87.1151812 425.258974,97.6646705 C425.258974,108.21416 416.628808,116.843421 406.081128,116.843421 L400.553912,116.843421 C390.005328,116.843421 381.376972,108.21416 381.376972,97.6646705 C381.376972,87.1151812 390.005328,78.4859198 400.553912,78.4859198" id="Fill-19" fill="#F9CB66"></path>
                <path d="M396.380448,89.7665797 L379.730933,89.7665797 C372.273535,89.7665797 366.174414,95.8666061 366.174414,103.323099 C366.174414,110.780496 372.273535,116.879618 379.730933,116.879618 L396.380448,116.879618 C403.836941,116.879618 409.936967,110.780496 409.936967,103.323099 C409.936967,95.8666061 403.836941,89.7665797 396.380448,89.7665797" id="Fill-20" fill="#FFFFFE"></path>
                <path d="M377.628817,91.0995183 C374.743951,93.7147202 374.522247,98.2130485 377.137449,101.097915 L389.344741,114.563942 C391.959943,117.448809 396.458271,117.669608 399.344042,115.054406 C402.228004,112.439204 402.448803,107.939971 399.833601,105.055104 L387.627214,91.5890768 C385.012012,88.7051154 380.512779,88.4843163 377.628817,91.0995183" id="Fill-21" fill="#D05F72"></path>
                <polygon id="Fill-22" fill="#293341" points="210.835039 441.428891 686.688851 441.428891 686.688851 422.746033 210.835039 422.746033"></polygon>
                <path d="M391.669465,116.997257 L391.669465,308.467139 C391.669465,337.857846 367.606893,361.922228 338.215281,361.922228 C308.827289,361.922228 284.765621,337.857846 284.765621,308.467139 L284.765621,116.997257 L391.669465,116.997257" id="Fill-23" fill="#E6E6E8"></path>
                <path d="M391.669465,116.997257 L391.669465,308.467139 C391.669465,332.985788 374.920409,353.791574 352.306604,360.020098 C329.691894,353.791574 312.948268,332.983978 312.948268,308.467139 L312.948268,116.997257 L391.669465,116.997257" id="Fill-24" fill="#FFFFFE"></path>
                <path d="M622.17101,116.998162 L381.550715,116.998162 L381.550715,308.468948 C381.550715,335.671573 363.173718,358.79032 338.217996,366.020584 L338.217996,368.361597 L556.126755,368.361597 C565.13427,368.361597 570.285042,368.624022 579.722391,365.75273 C604.222942,358.241037 622.17101,335.357568 622.17101,308.468948 L622.17101,116.998162" id="Fill-25" fill="#293341"></path>
                <path d="M381.54981,196.97538 L381.54981,308.466234 C381.54981,335.671573 363.176433,358.789415 338.218901,366.023299 L338.218901,368.362502 L545.913894,368.362502 L381.54981,196.97538" id="Fill-26" fill="#384354"></path>
                <path d="M372.585731,339.892093 C364.835141,352.381718 352.624229,361.84712 338.219805,366.023299 L338.219805,368.362502 L545.913894,368.362502 L518.609919,339.892093 L372.585731,339.892093" id="Fill-27" fill="#293341"></path>
                <path d="M398.110644,116.998162 L375.400918,116.998162 L375.400918,306.060972 C375.400918,326.778077 359.532344,345.651871 338.217996,345.651871 C316.902743,345.651871 301.034168,326.778077 301.034168,306.060972 L301.034168,116.998162 L278.324442,116.998162 L278.324442,308.468948 C278.324442,341.413253 305.272786,368.361597 338.217996,368.361597 C371.162301,368.361597 398.110644,341.413253 398.110644,308.468948 L398.110644,116.998162" id="Fill-28" fill="#485366"></path>
                <path d="M540.025617,186.758899 L540.022902,186.758899 C536.148965,186.758899 532.977241,189.928813 532.977241,193.802751 L532.977241,249.163589 C532.977241,253.037527 536.148965,256.208346 540.022902,256.208346 L540.025617,256.208346 C543.899555,256.208346 547.071279,253.037527 547.071279,249.163589 L547.071279,193.802751 C547.071279,189.928813 543.899555,186.758899 540.025617,186.758899" id="Fill-29" fill="#828071"></path>
                <path d="M515.869839,202.863656 L515.867124,202.863656 C511.993186,202.863656 508.821462,206.033571 508.821462,209.909318 L508.821462,233.058832 C508.821462,236.933674 511.993186,240.104494 515.867124,240.104494 L515.869839,240.104494 C519.743776,240.104494 522.91369,236.933674 522.91369,233.058832 L522.91369,209.909318 C522.91369,206.033571 519.743776,202.863656 515.869839,202.863656" id="Fill-30" fill="#828071"></path>
                <path d="M657.895211,140.097 C657.895211,152.43641 664.906201,163.133583 677.244705,163.133583 C685.470375,163.133583 688.499256,128.660214 686.331348,59.7134756 L657.895211,59.7134756 L657.895211,140.097 Z" id="Fill-31"></path>
                <path d="M657.895211,140.097 C657.895211,146.959869 662.747879,154.174448 672.453216,161.740737 C682.15749,165.910226 687.009626,164.564138 687.009626,157.702476 L687.009626,59.7134756 L657.895211,59.7134756 L657.895211,140.097 Z" id="Fill-32" fill="#FFFFFE"></path>
                <path d="M561.125501,59.7134756 L662.142878,59.7134756 L662.142878,140.097 C662.142878,151.517922 669.858176,161.224031 680.335272,164.259113 L680.335272,165.242755 L588.85207,165.242755 C585.069529,165.242755 582.907689,165.35225 578.94507,164.146904 C568.659816,160.993278 561.125501,151.385804 561.125501,140.097 L561.125501,59.7134756" id="Fill-33" fill="#293341"></path>
                <path d="M662.143783,93.2894105 L662.143783,140.096095 C662.143783,151.517922 669.857271,161.224031 680.334367,164.260923 L680.334367,165.242755 L593.138649,165.242755 L662.143783,93.2894105" id="Fill-34" fill="#384354"></path>
                <path d="M665.906416,153.290649 C669.161392,158.532817 674.287731,162.508104 680.334367,164.260923 L680.334367,165.242755 L593.138649,165.242755 L604.602101,153.290649 L665.906416,153.290649" id="Fill-35" fill="#293341"></path>
                <path d="M664.724598,59.7134756 L664.724598,139.087116 C664.724598,144.255058 668.857698,149.217675 677.123897,153.974966 L677.123897,153.974966 C679.096446,155.11019 681.332459,155.707675 683.608351,155.707675 L687.014236,155.707675 L687.014236,165.242755 C685.863263,165.242755 683.636941,165.242755 680.335272,165.242755 C666.504564,165.242755 655.191327,153.928613 655.191327,140.097 L655.191327,59.7134756 L664.724598,59.7134756 Z" id="Fill-36" fill="#485366"></path>
                <path d="M608.492327,89.0001174 L608.494137,89.0001174 C610.121173,89.0001174 611.453206,90.3312461 611.453206,91.9573769 L611.453206,115.200097 C611.453206,116.826228 610.121173,118.157357 608.494137,118.157357 L608.492327,118.157357 C606.865292,118.157357 605.535068,116.826228 605.535068,115.200097 L605.535068,91.9573769 C605.535068,90.3312461 606.865292,89.0001174 608.492327,89.0001174" id="Fill-37" fill="#C0B2A6"></path>
                <path d="M618.6337,95.761636 L618.636415,95.761636 C620.262546,95.761636 621.593675,97.0927647 621.593675,98.7188955 L621.593675,108.439483 C621.593675,110.066519 620.262546,111.396743 618.636415,111.396743 L618.6337,111.396743 C617.00757,111.396743 615.676441,110.066519 615.676441,108.439483 L615.676441,98.7188955 C615.676441,97.0927647 617.00757,95.761636 618.6337,95.761636" id="Fill-38" fill="#C0B2A6"></path>
                <path d="M262.586175,238.029525 C253.503552,236.813321 245.154814,243.189346 243.937704,252.271969 C242.7215,261.356403 249.097525,269.705141 258.181053,270.92044 C267.263676,272.138455 275.612414,265.76243 276.829524,256.677996 C278.045729,247.594468 271.668799,239.24573 262.586175,238.029525" id="Fill-64" fill="#293341"></path>
                <path d="M259.399067,276.969792 L270.964775,276.969792 C279.66462,276.969792 286.78358,284.089656 286.78358,292.786786 L286.78358,292.790406 C286.78358,301.488441 279.66462,308.6074 270.964775,308.6074 L259.399067,308.6074 C250.699223,308.6074 243.582978,301.488441 243.582978,292.790406 L243.582978,292.786786 C243.582978,284.089656 250.699223,276.969792 259.399067,276.969792" id="Fill-71" fill="#6F99C4"></path>
                <path d="M278.640257,256.346798 L278.642067,256.344083 C281.150489,253.616672 285.435258,253.437499 288.162669,255.945921 L313.55275,279.297231 C316.281067,281.805653 316.459335,286.090421 313.950913,288.817833 L313.948198,288.819642 C311.439776,291.547054 307.156817,291.727132 304.427596,289.217805 L279.038419,265.8674 C276.311008,263.358978 276.131835,259.073304 278.640257,256.346798" id="Fill-72" fill="#E39281"></path>
                <path d="M313.799792,277.511835 C319.57043,277.511835 324.247931,282.189336 324.247931,287.958164 C324.247931,288.539119 323.773756,289.012389 323.193706,289.012389 L304.407688,289.012389 C303.826733,289.012389 303.353463,288.539119 303.353463,287.958164 C303.353463,282.189336 308.030964,277.511835 313.799792,277.511835" id="Fill-73" fill="#D05F72"></path>
                <path d="M263.37526,264.243984 L272.693161,250.826821 C275.033269,247.458731 279.699912,246.616256 283.068907,248.956364 C286.436998,251.294662 287.278568,255.964019 284.939365,259.33211 L275.621464,272.749272 C273.282261,276.117362 268.613808,276.958028 265.244813,274.619729 C261.876722,272.280526 261.036057,267.612979 263.37526,264.243984" id="Fill-74" fill="#D05F72"></path>
                <path d="M272.413543,265.854731 L286.51663,265.854731 C290.714527,265.854731 294.149581,269.28888 294.149581,273.484967 C294.149581,277.682864 290.714527,281.117013 286.51663,281.117013 L272.413543,281.117013 C268.215646,281.117013 264.782402,277.682864 264.782402,273.484967 C264.782402,269.28888 268.215646,265.854731 272.413543,265.854731" id="Fill-76" fill="#86ADD1"></path>
                <path d="M262.399763,251.374295 L262.401573,251.374295 C266.107196,251.374295 269.140468,254.406662 269.140468,258.112285 L269.140468,292.606708 C269.140468,296.314142 266.107196,299.345604 262.401573,299.345604 L262.399763,299.345604 C258.694139,299.345604 255.660867,296.314142 255.660867,292.606708 L255.660867,258.112285 C255.660867,254.406662 258.694139,251.374295 262.399763,251.374295" id="Fill-77" fill="#E39281"></path>
                <path d="M258.694139,286.62975 C264.463872,286.62975 269.140468,291.307251 269.140468,297.076079 C269.140468,297.657034 268.667198,298.130304 268.086243,298.130304 L249.300225,298.130304 C248.720175,298.130304 248.246905,297.657034 248.246905,297.076079 C248.246905,291.307251 252.923502,286.62975 258.694139,286.62975" id="Fill-78" fill="#E39281"></path>
                <path d="M356.717156,296.862519 L321.328678,296.862519 C325.086786,291.072879 331.607598,287.242377 339.022464,287.242377 L366.3192,287.242377 L366.3192,296.862519 L356.717156,296.862519" id="Fill-79" fill="#E5E5E2"></path>
                <path d="M368.139887,285.974592 C375.739356,285.974592 382.771444,289.814143 386.897853,296.17207 C387.157563,296.572042 387.175662,297.048932 386.948528,297.467907 C386.719585,297.887787 386.311468,298.130304 385.834579,298.130304 L350.445196,298.130304 C349.969211,298.130304 349.56019,297.887787 349.332151,297.467907 C349.104113,297.048932 349.122211,296.572042 349.381017,296.17207 C353.50833,289.814143 360.539513,285.974592 368.139887,285.974592" id="Fill-80" fill="#293341"></path>
                <path d="M170.754581,475.27992 C170.754581,496.588838 153.307836,514.037393 131.998013,514.037393 C110.689094,514.037393 93.244159,496.587933 93.244159,475.27992 L93.244159,336.452514 L170.754581,336.452514 L170.754581,475.27992 Z" id="Fill-83" fill="#E6E6E8"></path>
                <path d="M170.754581,336.452514 L170.754581,475.27992 C170.754581,493.056958 158.610633,508.142782 142.213589,512.657399 C125.818354,508.142782 113.678026,493.055149 113.678026,475.27992 L113.678026,336.452514 L170.754581,336.452514" id="Fill-84" fill="#FFFFFE"></path>
                <path d="M337.881368,336.452514 L163.418442,336.452514 L163.418442,475.27992 C163.418442,495.004334 150.093581,511.766964 131.999823,517.008226 L131.999823,518.705845 L289.996025,518.705845 C296.526791,518.705845 300.261371,518.895877 307.104332,516.81367 C324.868702,511.368801 337.881368,494.77539 337.881368,475.27992 L337.881368,336.452514" id="Fill-85" fill="#293341"></path>
                <path d="M163.417537,394.440318 L163.417537,475.27811 C163.417537,495.004334 150.095391,511.766059 132.000728,517.010941 L132.000728,518.70675 L282.591112,518.70675 L163.417537,394.440318" id="Fill-86" fill="#384354"></path>
                <path d="M156.918444,498.063848 C151.298927,507.119324 142.444342,513.983098 132.000728,517.010941 L132.000728,518.70675 L282.591112,518.70675 L262.794305,498.063848 L156.918444,498.063848" id="Fill-87" fill="#293341"></path>
                <path d="M175.425748,336.452514 L158.95993,336.452514 L158.95993,473.53434 C158.95993,488.555915 147.453947,502.240027 131.999823,502.240027 C116.544794,502.240027 105.03881,488.555915 105.03881,473.53434 L105.03881,336.452514 L88.5729921,336.452514 L88.5729921,475.27992 C88.5729921,499.166939 108.112804,518.705845 131.999823,518.705845 C155.885937,518.705845 175.425748,499.166939 175.425748,475.27992 L175.425748,336.452514" id="Fill-88" fill="#485366"></path>
                <path d="M278.321727,387.032691 C275.510159,387.032691 273.211677,389.331173 273.211677,392.140931 L273.211677,432.278399 C273.211677,435.089967 275.510159,437.388449 278.321727,437.388449 C281.131486,437.388449 283.429968,435.089967 283.429968,432.278399 L283.429968,392.140931 C283.429968,389.331173 281.131486,387.032691 278.321727,387.032691" id="Fill-89" fill="#828071"></path>
                <path d="M260.807114,398.710608 C257.996451,398.710608 255.697064,401.00909 255.697064,403.818849 L255.697064,420.603196 C255.697064,423.412955 257.996451,425.712342 260.807114,425.712342 C263.615967,425.712342 265.914449,423.412955 265.914449,420.603196 L265.914449,403.818849 C265.914449,401.00909 263.615967,398.710608 260.807114,398.710608" id="Fill-90" fill="#828071"></path>
                <path d="M687.008804,237.058553 L687.008804,431.492028 L563.992269,431.492028 C557.02443,431.492028 553.040093,431.693824 545.74015,429.473165 C526.789438,423.662711 512.90534,405.961685 512.90534,385.163138 L512.90534,237.058553 L687.008804,237.058553 Z" id="Fill-93" fill="#293341"></path>
                <polygon id="Fill-94" fill="#384354" points="687.01043 431.492028 571.891264 431.492028 687.01043 309.62829"></polygon>
                <polygon id="Fill-95" fill="#293341" points="687.010803 409.469133 687.010803 431.492028 571.891264 431.492028 593.011961 409.469133"></polygon>
                <path d="M275.412428,296.862519 L275.412428,399.411917 C275.412428,415.153803 262.524641,428.042496 246.783659,428.042496 C231.042677,428.042496 218.155795,415.151993 218.155795,399.411917 L218.155795,296.862519 L275.412428,296.862519" id="Fill-97" fill="#E6E6E8"></path>
                <path d="M275.412428,296.862519 L275.412428,399.411917 C275.412428,412.544031 266.442014,423.688049 254.330643,427.022657 C242.217462,423.688049 233.250668,412.542221 233.250668,399.411917 L233.250668,296.862519 L275.412428,296.862519" id="Fill-98" fill="#FFFFFE"></path>
                <path d="M398.866248,296.862519 L269.992898,296.862519 L269.992898,399.411917 C269.992898,413.981939 260.151051,426.364785 246.784564,430.236913 L246.784564,431.491124 L363.494058,431.491124 C368.318155,431.491124 371.077239,431.631385 376.131184,430.093031 C389.254249,426.069783 398.866248,413.812721 398.866248,399.411917 L398.866248,296.862519" id="Fill-99" fill="#293341"></path>
                <path d="M269.992898,339.697536 L269.992898,399.411012 C269.992898,413.981939 260.151956,426.36388 246.784564,430.238722 L246.784564,431.491124 L358.024757,431.491124 L269.992898,339.697536" id="Fill-100" fill="#384354"></path>
                <path d="M265.191423,416.242415 C261.040582,422.932445 254.499862,428.001775 246.784564,430.238722 L246.784564,431.491124 L358.024757,431.491124 L343.400439,416.242415 L265.191423,416.242415" id="Fill-101" fill="#293341"></path>
                <path d="M278.861961,296.862519 L266.69901,296.862519 L266.69901,398.123319 C266.69901,409.219376 258.200056,419.328172 246.784564,419.328172 C235.367262,419.328172 226.868308,409.219376 226.868308,398.123319 L226.868308,296.862519 L214.705357,296.862519 L214.705357,399.411917 C214.705357,417.056838 229.138738,431.491124 246.784564,431.491124 C264.429485,431.491124 278.861961,417.056838 278.861961,399.411917 L278.861961,296.862519" id="Fill-102" fill="#485366"></path>
                <path d="M687.013107,431.491124 L687.013107,519.639717 L469.160884,519.639717 C444.920949,519.639717 425.08885,499.807618 425.08885,475.567682 C425.08885,451.323222 444.920949,431.491124 469.160884,431.491124 L687.013107,431.491124 Z" id="Fill-103" fill="#293341"></path>
                <path d="M686.655716,446.000517 L469.160884,446.000517 C452.927629,446.000517 439.598244,459.335332 439.598244,475.567682 C439.598244,491.797318 452.930344,505.130323 469.160884,505.130323 L686.655716,505.130323 L686.655716,446.000517 Z" id="Fill-104" fill="#FFFFFE"></path>
                <path d="M241.39761,431.491124 L551.073714,431.491124 L551.073714,519.639717 L241.39761,519.639717 C217.155865,519.639717 197.322861,499.807618 197.322861,475.565873 C197.322861,451.323222 217.155865,431.491124 241.39761,431.491124" id="Fill-105" fill="#384354"></path>
                <path d="M241.39761,431.491124 L384.580368,431.491124 L472.729866,519.641527 L241.39761,519.641527 C217.154055,519.641527 197.323766,499.807618 197.323766,475.564968 C197.323766,451.323222 217.154055,431.491124 241.39761,431.491124" id="Fill-106" fill="#485366"></path>
                <path d="M551.073714,505.130323 L551.073714,446.000517 L241.3958,446.000517 C225.162545,446.000517 211.83316,459.335332 211.83316,475.567682 C211.83316,491.797318 225.16526,505.130323 241.3958,505.130323 L551.073714,505.130323" id="Fill-107" fill="#FFFFFE"></path>
                <path d="M687.015488,446.000517 L551.073714,446.000517 C534.841364,446.000517 521.511978,459.335332 521.511978,475.567682 C521.511978,491.797318 534.844079,505.130323 551.073714,505.130323 L687.015488,505.130323 L687.015488,446.000517 Z" id="Fill-108" fill="#E6E6E8"></path>
                <path d="M687.017166,518.707655 L687.017166,532.419819 L37.5575515,532.419819 C33.788584,532.419819 30.7046365,529.334967 30.7046365,525.56419 C30.7046365,521.792508 33.788584,518.707655 37.5575515,518.707655 L687.017166,518.707655 Z" id="Fill-109" fill="#293341"></path>
                <path d="M16.1789544,518.707655 L7.50535222,518.707655 C3.73457491,518.707655 0.649722545,521.792508 0.649722545,525.563285 L0.649722545,525.56419 C0.649722545,529.334967 3.73457491,532.419819 7.50535222,532.419819 L16.1789544,532.419819 C19.9497317,532.419819 23.0345841,529.334967 23.0345841,525.56419 L23.0345841,525.563285 C23.0345841,521.792508 19.9497317,518.707655 16.1789544,518.707655" id="Fill-111" fill="#293341"></path>
                <path d="M324.652428,353.889305 L468.056889,353.889305 L468.056889,431.492028 L324.652428,431.492028 C303.310027,431.492028 285.851518,414.032615 285.851518,392.690214 C285.851518,371.348719 303.310027,353.889305 324.652428,353.889305" id="Fill-112" fill="#384354"></path>
                <path d="M468.056889,414.741162 L468.056889,431.492028 L324.651523,431.492028 C311.485022,431.492028 299.798055,424.845434 292.775921,414.741162 L468.056889,414.741162" id="Fill-113" fill="#293341"></path>
                <path d="M324.651523,353.889305 L468.056889,353.889305 L468.056889,366.000676 L296.553033,366.000676 C303.633986,358.550518 313.623334,353.889305 324.651523,353.889305" id="Fill-114" fill="#485366"></path>
                <path d="M470.694714,353.889305 L614.099175,353.889305 L614.099175,362.789136 L610.62159,362.789136 C594.191969,362.789136 580.720512,376.262403 580.720512,392.692024 C580.720512,409.119836 594.192874,422.592198 610.62159,422.592198 L614.099175,422.592198 L614.099175,431.492028 L470.694714,431.492028 C449.353218,431.492028 431.8929,414.032615 431.8929,392.692024 C431.8929,371.347814 449.353218,353.889305 470.694714,353.889305" id="Fill-115" fill="#293341"></path>
                <path d="M614.099175,362.789136 L470.694714,362.789136 C454.264187,362.789136 440.79273,376.262403 440.79273,392.692024 C440.79273,409.119836 454.265092,422.592198 470.694714,422.592198 L614.099175,422.592198 C597.669554,422.592198 584.197192,409.119836 584.197192,392.692024 C584.197192,376.262403 597.668649,362.789136 614.099175,362.789136" id="Fill-116" fill="#E6E6E8"></path>
                <path d="M342.038543,353.889305 L351.774515,353.889305 C330.433019,353.889305 312.973605,371.347814 312.973605,392.692024 C312.973605,414.032615 330.433019,431.492028 351.774515,431.492028 L342.038543,431.492028 C320.697048,431.492028 303.238539,414.032615 303.238539,392.692024 C303.238539,371.347814 320.697048,353.889305 342.038543,353.889305" id="Fill-117" fill="#293341"></path>
                <path d="M423.067272,353.889305 L432.802338,353.889305 C411.460843,353.889305 394.001429,371.347814 394.001429,392.692024 C394.001429,414.032615 411.460843,431.492028 432.802338,431.492028 L423.067272,431.492028 C401.725776,431.492028 384.265458,414.032615 384.265458,392.692024 C384.265458,371.347814 401.725776,353.889305 423.067272,353.889305" id="Fill-118" fill="#293341"></path>
                <path d="M500.703477,165.242755 L647.99545,165.242755 L647.99545,244.950309 L500.703477,244.950309 C478.782837,244.950309 460.849248,227.01672 460.849248,205.096984 C460.849248,183.176344 478.782837,165.242755 500.703477,165.242755" id="Fill-119" fill="#384354"></path>
                <path d="M647.99545,227.745176 L647.99545,244.950309 L500.701667,244.950309 C487.177725,244.950309 475.174039,238.122732 467.961873,227.745176 L647.99545,227.745176" id="Fill-120" fill="#293341"></path>
                <path d="M500.701667,165.242755 L647.99545,165.242755 L647.99545,177.68261 L471.840335,177.68261 C479.11313,170.030656 489.374857,165.242755 500.701667,165.242755" id="Fill-121" fill="#485366"></path>
                <path d="M687.01416,165.242755 L687.01416,174.465734 L687.01416,236.119223 L687.01416,244.950309 L650.705668,244.950309 C628.784122,244.950309 610.852343,227.01853 610.852343,205.096984 C610.852343,183.175439 625.738114,165.242755 647.659659,165.242755 L687.01416,165.242755 Z" id="Fill-122" fill="#293341"></path>
                <path d="M650.705668,174.384198 C633.829019,174.384198 619.993786,188.22305 619.993786,205.096984 C619.993786,221.971824 633.829924,235.808866 650.705668,235.808866 L687.012054,235.808866 C687.012054,206.10898 687.012054,185.634091 687.012054,174.384198" id="Fill-123" fill="#E6E6E8"></path>
                <path d="M321.036391,296.862519 L285.647008,296.862519 C289.405116,291.072879 295.925023,287.242377 303.341699,287.242377 L330.63753,287.242377 L330.63753,296.862519 L321.036391,296.862519" id="Fill-140" fill="#FFFFFE"></path>
                <path d="M332.458217,285.974592 C340.058591,285.974592 347.090679,289.814143 351.217088,296.17207 C351.475893,296.572042 351.493991,297.048932 351.266858,297.467907 C351.038819,297.887787 350.629798,298.130304 350.152909,298.130304 L314.76443,298.130304 C314.287541,298.130304 313.87852,297.887787 313.650481,297.467907 C313.422443,297.048932 313.441446,296.572042 313.699347,296.17207 C317.825755,289.814143 324.858748,285.974592 332.458217,285.974592" id="Fill-141" fill="#293341"></path>
                <path d="M286.321169,229.301628 L286.320264,229.301628 C279.253789,228.355088 272.698591,233.361978 271.751146,240.429358 L270.725878,248.093981 C269.778433,255.160455 274.786228,261.716558 281.851798,262.662194 L281.852703,262.662194 C288.919177,263.609639 295.47528,258.601844 296.42182,251.535369 L297.448898,243.870746 C298.394533,236.804272 293.386738,230.249073 286.321169,229.301628" id="Fill-142" fill="#E39281"></path>
                <path d="M273.948277,221.101296 C265.2792,219.940291 257.311431,226.024934 256.150426,234.694012 C254.989421,243.363089 261.074064,251.330859 269.743141,252.491864 C278.412219,253.651963 286.379083,247.567321 287.540993,238.899148 C288.701998,230.23007 282.61645,222.261396 273.948277,221.101296" id="Fill-143" fill="#293341"></path>
                <path d="M286.665941,227.706265 C279.50445,226.747056 272.92301,231.773854 271.962896,238.935344 C271.004592,246.09593 276.030485,252.677371 283.191975,253.63658 C290.352561,254.595789 296.934002,249.568991 297.893211,242.4075 C298.853325,235.246914 293.826527,228.666379 286.665941,227.706265" id="Fill-144" fill="#293341"></path>
                <path d="M272.840662,246.721226 C270.608239,246.421699 268.5387,248.001679 268.239174,250.234103 L268.209312,250.460331 C267.91069,252.692754 269.49067,254.761388 271.723093,255.060915 C273.956422,255.360441 276.02596,253.779556 276.324582,251.547133 L276.354444,251.32181 C276.653971,249.088481 275.073991,247.018943 272.840662,246.721226 L276.324582,283.502486" id="Fill-145" fill="#E39281"></path>
                <g id="Group-6" transform="translate(21.186749, 383.683604)">
                    <path d="M45.2529473,29.844069 L45.2538522,29.8449739 C48.5296415,32.0936856 49.3684969,36.6155416 47.1197852,39.8895211 L33.9578087,59.055603 C31.7090971,62.3304873 27.1881459,63.1702476 23.9132616,60.920631 L23.9105468,60.9197261 C20.6365674,58.6710144 19.7959022,54.1500633 22.0464237,50.875179 L35.2074952,31.7090971 C37.4571118,28.4351176 41.9780629,27.5944524 45.2529473,29.844069" id="Fill-42" fill="#6D96C2"></path>
                    <path d="M50.4643479,6.56877188 L48.3495635,6.62668639 C42.4802903,6.78957094 37.8118382,11.7231629 37.9729129,17.5915313 L37.9729129,17.5924362 C38.1357974,23.4617094 43.0693894,28.1301616 48.9386627,27.9690868 L51.053447,27.9102674 C56.9209105,27.7482878 61.5902675,22.8146958 61.427383,16.9463275 L61.427383,16.9436127 C61.2663083,11.0761493 56.3318113,6.40679225 50.4643479,6.56877188" id="Fill-43" fill="#161515"></path>
                    <path d="M35.3187996,61.6708049 C40.5066725,61.7413882 44.6566089,66.0008191 44.5869305,71.1868822 L44.3082169,97.0086077 L44.2810695,97.5805135 L44.3091218,128.92131 C44.3018825,134.09199 40.1039857,138.281743 34.9333062,138.275408 C29.7626267,138.268169 25.5719692,134.071177 25.5792085,128.899593 L25.552966,97.6149002 L25.5249137,96.7579465 L25.8027223,70.9380308 C25.8733056,65.7510628 30.1336415,61.6011265 35.3187996,61.6708049 Z" id="Fill-44" fill="#293341"></path>
                    <path d="M42.4169463,75.3865888 C43.1915528,70.2674894 47.9704045,66.7464684 53.0904088,67.5210749 C58.2095082,68.2956814 61.7314341,73.0736282 60.9568276,78.1936325 L56.9100515,104.500392 C56.5308925,107.007909 55.1879998,109.131743 53.3175423,110.556078 L33.8383601,126.016536 C29.7834397,129.231696 23.8861142,128.551201 20.6718591,124.497185 C17.457604,120.44136 18.1362896,114.544939 22.1912099,111.331589 L38.9339317,98.0438295 L42.4169463,75.3865888" id="Fill-46" fill="#485366"></path>
                    <path d="M57.8620212,29.9942847 C66.866822,33.5949382 71.2864227,43.9028154 67.6866742,52.9067112 L62.734079,65.2949861 C59.1343305,74.2997869 48.8273582,78.7202926 39.8225574,75.120544 C30.8186615,71.5207955 26.3981559,61.2120134 29.9969995,52.2081175 L34.9504996,39.8189378 C38.5493432,30.8150419 48.8590302,26.3954411 57.8620212,29.9942847" id="Fill-48" fill="#86ADD1"></path>
                    <path d="M62.7711805,32.9669277 C68.3354977,37.7448745 70.5516324,45.7379813 67.6866742,52.9058063 L62.734079,65.2986057 C59.9270353,72.3189298 53.0379238,76.5503084 45.8691938,76.3675157 C40.3048767,71.589569 38.0887419,63.5973671 40.9527952,56.430447 L45.9062953,44.0376476 C48.713339,37.0173235 55.6024505,32.7823253 62.7711805,32.9669277" id="Fill-49" fill="#293341"></path>
                    <path d="M42.5644473,16.2052028 L42.8295872,25.795483 C43.0223339,32.764227 48.8798432,38.3068262 55.8485872,38.1149844 C62.8173311,37.9222377 68.3608353,32.0656332 68.1689935,25.0968893 L67.9047585,15.506609 C67.7120118,8.53696018 61.8526926,2.99345604 54.8848536,3.18620276 C47.9161097,3.37894947 42.3726055,9.23555391 42.5644473,16.2052028 Z" id="Fill-50" fill="#804E2E"></path>
                    <path d="M44.528111,43.4340698 C45.7705582,43.5526136 46.9695694,44.6928054 47.1939882,45.9669246 L52.2207863,74.6373199 C52.4461099,75.911439 51.6108742,76.8570743 50.3693319,76.7385305 L31.6801398,74.9495153 C30.4385976,74.8309715 29.2377765,73.6907797 29.0142627,72.4157556 L23.9856547,43.7462652 C23.7621409,42.4712412 24.5955669,41.5265108 25.838014,41.6450545 L44.528111,43.4340698 Z" id="Fill-51" fill="#FFFFFE"></path>
                    <path d="M68.1689935,25.0968893 L67.9047585,15.5057041 C67.7889295,11.3403842 65.6506174,7.68543596 62.45989,5.45844221 C55.6431717,5.81769313 50.2725061,11.6037143 50.4625381,18.4629636 L50.7276779,28.0550537 C50.8416971,32.2194686 52.9809142,35.8753219 56.1698317,38.1005058 C62.987455,37.7421598 68.3581205,31.9570435 68.1689935,25.0968893 Z" id="Fill-52" fill="#613A22"></path>
                    <path d="M56.6612001,1.19267686 L54.1826402,1.26145034 C47.3080073,1.4505774 41.840516,7.22935922 42.0287381,14.104897 C42.2187701,20.9795299 47.9975519,26.449736 54.8730897,26.259704 L57.3507447,26.1909305 C64.2235677,26.0018035 69.6937738,20.2221167 69.5037418,13.3474839 C69.3146148,6.47194607 63.5340231,1.00264489 56.6612001,1.19267686" id="Fill-53" fill="#161515"></path>
                    <path d="M64.4362226,22.5350773 L64.4859928,24.2942304 C64.5484319,26.5918075 66.4795187,28.4197341 68.7780007,28.3554852 C71.0782925,28.2930461 72.9053142,26.3610544 72.8428751,24.0634773 L72.7931048,22.3052291 C72.7297608,20.0067472 70.798674,18.1797255 68.501097,18.2421645 C66.2008052,18.3055085 64.3728786,20.2365953 64.4362226,22.5350773 Z" id="Fill-54" fill="#613A22"></path>
                    <path d="M67.7011528,30.6259148 L67.7029627,30.6259148 C71.8682825,31.024077 74.9504202,34.7595627 74.551353,38.9248826 L72.2184843,63.2987455 C71.8194172,67.4658752 68.0857414,70.546203 63.9195166,70.1471358 L63.9186117,70.1471358 C59.7514819,69.7489736 56.6693443,66.0152978 57.0693164,61.8481681 L59.4012802,37.4743052 C59.8003473,33.3089853 63.535833,30.2268477 67.7011528,30.6259148" id="Fill-55" fill="#293341"></path>
                    <path d="M2.40888149,40.9908016 L21.0980736,42.7798169 C22.3396159,42.8983606 23.5404369,44.0385525 23.7630458,45.3135765 L28.7925587,73.9830669 C29.0160725,75.258091 28.1817417,76.2028214 26.9401994,76.0851825 L8.25010239,74.2952623 C7.00765525,74.1767186 5.80864399,73.0365267 5.58603511,71.7624076 L0.557427122,43.0920123 C0.332103497,41.8178931 1.16733927,40.8722578 2.40888149,40.9908016" id="Fill-56" fill="#485366"></path>
                    <path d="M24.3874366,43.094727 L43.0775336,44.8846472 C44.3199808,45.003191 45.518992,46.1424779 45.7434108,47.417502 L50.7720187,76.0878973 C50.9955325,77.3620164 50.1602968,78.3076517 48.9187545,78.1891079 L30.2295624,76.4000927 C28.9880202,76.2815489 27.788104,75.1413571 27.5636853,73.8654281 L22.5350773,45.1959377 C22.3124684,43.9218186 23.1458944,42.9752783 24.3874366,43.094727" id="Fill-57" fill="#293341"></path>
                    <path d="M47.5758619,0.87686182 L45.4619825,0.935681241 C39.5927092,1.09675596 34.9233522,6.03215779 35.0853318,11.8996212 L35.0853318,11.901431 C35.2464065,17.7697993 40.1809034,22.4382515 46.0501767,22.2762719 L48.1640561,22.2183574 C54.0324245,22.0554728 58.7017815,17.1227857 58.5398019,11.2535125 L58.5398019,11.2526076 C58.3778223,5.38514416 53.4442303,0.7157871 47.5758619,0.87686182" id="Fill-59" fill="#161515"></path>
                    <path d="M11.3277154,61.3785176 C15.7726538,61.8029223 19.0285349,65.749253 18.6032253,70.1923815 C18.1779156,74.63551 14.2324899,77.8922961 9.78936138,77.4669864 C5.34532794,77.0416768 2.08854188,73.0953461 2.51385153,68.6522176 C2.93916119,64.2090891 6.88458693,60.952303 11.3277154,61.3785176 L24.2259259,91.0289663" id="Fill-60" fill="#804E2E"></path>
                    <path d="M17.5897214,115.134943 C20.1433892,110.781401 25.7457128,109.32087 30.1001597,111.874538 C33.8193569,114.055381 35.4273893,118.462313 34.2247584,122.414978 L34.2238535,122.416787 C34.1559849,122.633967 34.0826869,122.852051 33.9994348,123.065611 L30.3770634,133.502891 L30.3625848,133.501986 C30.2331821,133.989735 30.0368157,134.467529 29.7680562,134.922701 C28.168168,137.650112 24.6589108,138.564981 21.9314996,136.965092 C20.5370268,136.147955 19.6167291,134.831305 19.2629077,133.375298 L19.2547635,133.336387 L19.2230915,133.202459 L16.6060797,121.974284 C16.0468428,119.735527 16.3300809,117.282305 17.5897214,115.134943" id="Fill-161" fill="#485366"></path>
                    <path d="M67.2432663,72.8899306 L50.7991662,80.3952887 C47.1831292,82.0449472 42.8757378,80.4369147 41.2260793,76.8217827 C39.5755158,73.2066506 41.1826434,68.8992592 44.7986804,67.2486958 L61.2427805,59.7442426 C64.8588175,58.0936792 69.1662089,59.7008068 70.8158674,63.3159388 C72.4664308,66.9319758 70.8593033,71.2393672 67.2432663,72.8899306 Z" id="Fill-58" fill="#804E2E"></path>
                    <path d="M45.3307699,65.7537776 C49.7738984,66.1790872 53.0306845,70.1254179 52.6053748,74.5676415 C52.1800652,79.01077 48.2337345,82.2675561 43.790606,81.8422464 C39.3474775,81.4169368 36.0906914,77.4706061 36.5160011,73.0274776 C36.9413107,68.585254 40.8876414,65.3284679 45.3307699,65.7537776" id="Fill-162" fill="#613A22"></path>
                    <path d="M62.3639691,11.8552804 L60.9586374,11.8941917 C57.0566476,12.0018765 53.9536969,15.2812854 54.0604768,19.1832753 L54.0604768,19.1841802 C54.1681616,23.08617 57.4475705,26.1891207 61.3495604,26.0814359 L62.755797,26.0425246 C66.6577868,25.9348398 69.7598326,22.6554309 69.6530527,18.753441 L69.6530527,18.7525361 C69.5453679,14.8514512 66.2668639,11.7475956 62.3639691,11.8552804" id="Fill-47" fill="#161515"></path>
                </g>
                <path d="M520.609779,193.729453 L568.594662,193.729453 C573.027837,193.729453 576.655637,197.357254 576.655637,201.790428 L576.655637,201.793143 C576.655637,206.226317 573.027837,209.855023 568.594662,209.855023 L520.609779,209.855023 C516.174795,209.855023 512.548804,206.226317 512.548804,201.793143 L512.548804,201.790428 C512.548804,197.357254 516.174795,193.729453 520.609779,193.729453" id="Fill-163" fill="#E6E6E8"></path>
                <path d="M483.540875,193.729453 L486.846527,193.729453 C491.280606,193.729453 494.908407,197.357254 494.908407,201.790428 L494.908407,201.793143 C494.908407,206.226317 491.280606,209.855023 486.846527,209.855023 L483.540875,209.855023 C479.106796,209.855023 475.4799,206.226317 475.4799,201.793143 L475.4799,201.790428 C475.4799,197.357254 479.106796,193.729453 483.540875,193.729453" id="Fill-164" fill="#E6E6E8"></path>
                <path d="M541.852639,136.540688 L552.314351,121.477487 C554.939507,117.69766 560.18077,116.75293 563.959692,119.378086 L563.960597,119.378991 C567.741328,122.004147 568.686058,127.244505 566.059997,131.024331 L555.600095,146.086627 C552.974939,149.867359 547.733676,150.811184 543.953849,148.186028 L543.952945,148.186028 C540.174023,145.560872 539.228388,140.319609 541.852639,136.540688" id="Fill-165" fill="#6B97C3"></path>
                <path d="M570.45607,144.266845 L560.582552,144.266845 C552.920644,144.266845 545.954615,147.396943 540.917862,152.4346 C535.880205,157.472257 532.750107,164.437381 532.750107,172.09929 L532.750107,187.168825 L529.601006,197.743652 L529.615485,197.751796 C529.409164,198.294745 529.272522,198.871175 529.216417,199.477467 C528.87798,203.098029 531.543857,206.309569 535.165323,206.648007 C537.015873,206.819036 538.758737,206.207314 540.067243,205.085221 L540.102535,205.055358 L540.219269,204.950388 L550.203187,196.222491 C552.231099,194.506774 553.613808,192.026404 553.878948,189.17502 C553.974869,188.145227 553.916049,187.135343 553.726922,186.167085 L553.726922,172.09929 C553.726922,170.225212 554.502434,168.51221 555.749406,167.266143 C556.995472,166.019171 558.70757,165.24547 560.582552,165.24547 L577.207635,165.24547 C582.976463,165.24547 587.69378,160.527247 587.69378,154.75661 L587.69378,154.753895 C587.69378,148.983257 582.976463,144.266845 577.207635,144.266845 L570.45607,144.266845" id="Fill-166" fill="#F1A863"></path>
                <path d="M565.270007,111.017584 C555.656199,115.574732 551.519837,127.169397 556.07608,136.781395 L559.592576,144.197166 C564.149724,153.810974 575.742579,157.947337 585.355482,153.390189 L591.346919,150.549664 C597.666839,147.554398 600.384296,139.934116 597.388126,133.612385 L591.034723,120.208797 C586.477576,110.597704 574.882911,106.460436 565.270007,111.017584" id="Fill-167" fill="#86ADD1"></path>
                <path d="M584.502148,144.266845 L574.62863,144.266845 C566.965817,144.266845 560.000692,147.396943 554.96394,152.4346 C549.926283,157.472257 546.796185,164.437381 546.796185,172.09929 L546.796185,187.928953 L543.874217,197.743652 L543.887791,197.751796 C543.680565,198.294745 543.544828,198.871175 543.489629,199.477467 C543.150286,203.098029 545.816163,206.309569 549.437629,206.648007 C551.288179,206.819036 553.030138,206.207314 554.338644,205.085221 L554.374841,205.055358 L554.491575,204.950388 L564.476398,196.222491 C566.5025,194.506774 567.885209,192.026404 568.151254,189.17502 C568.278847,187.809504 568.13768,186.47928 567.773905,185.238643 L567.773905,172.09929 C567.773905,170.225212 568.548511,168.51221 569.794578,167.266143 C571.04155,166.019171 572.753648,165.24547 574.62863,165.24547 L591.253713,165.24547 C597.02254,165.24547 601.739858,160.527247 601.739858,154.75661 L601.739858,154.753895 C601.739858,148.983257 597.02254,144.266845 591.253713,144.266845 L584.502148,144.266845" id="Fill-168" fill="#F9CB66"></path>
                <path d="M602.40316,136.540688 L591.941447,121.477487 C589.316291,117.69766 584.075029,116.75293 580.296107,119.378086 L580.294297,119.378991 C576.514471,122.004147 575.56974,127.244505 578.194896,131.024331 L588.656609,146.086627 C591.281765,149.867359 596.523028,150.811184 600.301949,148.186028 L600.302854,148.186028 C604.082681,145.560872 605.028316,140.319609 602.40316,136.540688" id="Fill-171" fill="#6B97C3"></path>
                <path d="M565.018441,125.772209 C560.303839,125.772209 557.118541,129.594567 557.902196,134.30736 C558.685852,139.021057 563.144364,142.84251 567.858062,142.84251 C572.570855,142.84251 575.757058,139.021057 574.972497,134.30736 C574.187936,129.594567 569.731234,125.772209 565.018441,125.772209" id="Fill-172" fill="#6B97C3"></path>
                <path d="M567.659886,130.39813 L562.536262,130.39813 C561.673879,130.39813 561.189749,131.103059 561.459414,131.965442 L561.459414,131.968156 C561.730888,132.83054 562.658425,133.537278 563.521713,133.537278 L568.644432,133.537278 C569.50772,133.537278 569.991849,132.83054 569.720375,131.968156 L569.720375,131.965442 C569.449806,131.103059 568.522269,130.39813 567.659886,130.39813" id="Fill-173" fill="#FFFFFE"></path>
                <path d="M567.154039,135.105494 L565.995749,135.105494 C565.13246,135.105494 564.648331,135.811327 564.919806,136.67371 L564.919806,136.676425 C565.190375,137.538808 566.117007,138.245546 566.980295,138.245546 L568.13768,138.245546 C569.001873,138.245546 569.486002,137.538808 569.215433,136.676425 L569.214528,136.67371 C568.943959,135.811327 568.017327,135.105494 567.154039,135.105494" id="Fill-174" fill="#FFFFFE"></path>
                <path d="M557.453359,84.4474943 L557.451549,84.4483992 C549.181539,85.4754768 543.256161,93.0821852 544.284143,101.352196 L545.062369,107.619631 C546.090352,115.889642 553.69706,121.81502 561.967976,120.787942 L561.969785,120.787942 C570.239796,119.759055 576.164269,112.153251 575.137191,103.882336 L574.35806,97.6149002 C573.330078,89.3457946 565.723369,83.4204167 557.453359,84.4474943" id="Fill-175" fill="#804E2E"></path>
                <path d="M565.739658,119.812445 C571.957323,117.308547 575.999575,110.828457 575.137191,103.881431 L574.35806,97.6158051 C573.495677,90.669684 567.989274,85.3759362 561.348109,84.4692122 C555.129539,86.9740146 551.086383,93.4541049 551.949671,100.401131 L552.727897,106.666757 C553.591185,113.612878 559.097588,118.906625 565.739658,119.812445" id="Fill-176" fill="#613A22"></path>
                <path d="M571.387227,100.913312 L571.389037,100.939555 C571.495817,102.226343 572.505701,103.297761 573.837735,103.435308 C575.168863,103.57376 576.376924,102.733095 576.747034,101.495172 L576.754273,101.469835 L579.222879,93.1971093 C579.322419,92.8975827 579.393003,92.5817677 579.427389,92.2532838 C579.678956,89.8344483 577.919802,87.6689887 575.499157,87.4174225 C573.080322,87.1658564 570.914862,88.9241046 570.663296,91.34475 C570.628909,91.6723289 570.632529,91.9962882 570.668725,92.3102934 L571.387227,100.913312" id="Fill-177" fill="#161515"></path>
                <path d="M579.007509,97.7461128 C576.909013,96.9995586 574.582479,98.101744 573.834115,100.199335 L572.553661,103.793654 C571.806202,105.89034 572.910198,108.216874 575.006884,108.965239 C577.10357,109.713603 579.431914,108.609607 580.178468,106.512921 L581.460732,102.919507 C582.208191,100.821011 581.104195,98.4944768 579.007509,97.7461128" id="Fill-178" fill="#613A22"></path>
                <path d="M554.575732,113.273535 L554.577542,113.27263 C558.488581,112.273605 562.507304,114.654434 563.507235,118.565473 L564.631138,122.963356 C565.630163,126.874395 563.249334,130.891309 559.338295,131.892144 L559.33558,131.892144 C555.424541,132.892979 551.406722,130.51034 550.407697,126.599301 L549.282889,122.202323 C548.282959,118.290379 550.663788,114.273465 554.575732,113.273535" id="Fill-179" fill="#F9CB66"></path>
                <path d="M547.968954,112.262746 L570.269658,112.262746 C571.751003,112.262746 573.296596,113.474426 573.706522,114.95758 L582.895925,148.285569 C583.304947,149.766913 582.42718,150.978593 580.94493,150.978593 L558.643321,150.978593 C557.160167,150.978593 555.614573,149.766913 555.206457,148.285569 L546.016149,114.95758 C545.608033,113.474426 546.483989,112.262746 547.968954,112.262746" id="Fill-180" fill="#FFFFFE"></path>
                <path d="M520.192613,114.141348 L542.494223,114.141348 C543.975567,114.141348 545.521161,115.353932 545.930182,116.836182 L555.119585,150.16417 C555.529511,151.645515 554.651745,152.857195 553.169495,152.857195 L530.867886,152.857195 C529.384732,152.857195 527.839138,151.645515 527.431022,150.16417 L518.239809,116.836182 C517.831692,115.353932 518.708554,114.141348 520.192613,114.141348" id="Fill-181" fill="#485366"></path>
                <path d="M546.417931,114.141348 L568.718635,114.141348 C570.200885,114.141348 571.747383,115.353932 572.155499,116.836182 L581.345807,150.16417 C581.753924,151.645515 580.876157,152.857195 579.395717,152.857195 L557.094108,152.857195 C555.609144,152.857195 554.064455,151.645515 553.655434,150.16417 L544.465126,116.836182 C544.05701,115.353932 544.933872,114.141348 546.417931,114.141348" id="Fill-182" fill="#293341"></path>
                <path d="M578.552337,151.020219 L596.890423,151.020219 C601.492816,151.020219 605.259069,147.253966 605.259069,142.652478 L605.259069,142.650668 C605.259069,138.04918 601.492816,134.282927 596.890423,134.282927 L578.552337,134.282927 C573.949944,134.282927 570.184596,138.04918 570.184596,142.650668 L570.184596,142.652478 C570.184596,147.253966 573.949944,151.020219 578.552337,151.020219" id="Fill-183" fill="#613A22"></path>
                <path d="M574.629535,154.898681 C580.485234,154.898681 585.262276,150.122544 585.262276,144.266845 C585.262276,138.41024 580.485234,133.634103 574.629535,133.634103 C568.773835,133.634103 563.997698,138.41024 563.997698,144.266845 C563.997698,150.122544 568.773835,154.898681 574.629535,154.898681" id="Fill-184" fill="#613A22"></path>
                <path d="M530.884174,154.898681 C536.739874,154.898681 541.516011,150.122544 541.516011,144.266845 C541.516011,138.41024 536.739874,133.634103 530.884174,133.634103 C525.028475,133.634103 520.251433,138.41024 520.251433,144.266845 C520.251433,150.122544 525.028475,154.898681 530.884174,154.898681" id="Fill-185" fill="#804E2E"></path>
                <path d="M664.978879,305.100858 L664.972545,305.126196 C664.632297,306.376787 665.215966,307.733253 666.424027,308.321447 C667.632992,308.908737 669.060947,308.532292 669.834648,307.491641 L669.850937,307.470828 L675.021616,300.515658 C675.219793,300.266807 675.393536,299.993522 675.538322,299.694901 C676.606121,297.498674 675.692158,294.852705 673.495931,293.784906 C671.299704,292.715298 668.653735,293.629261 667.585032,295.827298 C667.439341,296.12411 667.332561,296.429971 667.257453,296.739451 L664.978879,305.100858" id="Fill-192" fill="#293341"></path>
                <polygon id="Fill-204" fill="#293341" points="591.151457 360.42369 617.515226 360.42369 617.515226 353.8884 591.151457 353.8884"></polygon>
                <path d="M549.088332,78.8026397 L565.565914,78.8026397 C570.187311,78.8026397 573.968042,82.5833711 573.968042,87.2029579 L573.968042,87.2056726 C573.968042,91.8252594 570.187311,95.6059908 565.565914,95.6059908 L549.088332,95.6059908 C544.469651,95.6059908 540.688014,91.8252594 540.688014,87.2056726 L540.688014,87.2029579 C540.688014,82.5833711 544.469651,78.8026397 549.088332,78.8026397" id="Fill-226" fill="#161515"></path>
                <path d="M546.191702,73.8482347 L548.036822,73.8482347 C554.01921,73.8482347 558.914795,78.7429154 558.914795,84.7271127 L558.914795,84.7298275 C558.914795,90.7104052 554.01921,95.6059908 548.036822,95.6059908 L546.191702,95.6059908 C540.207505,95.6059908 535.312824,90.7104052 535.312824,84.7298275 L535.312824,84.7271127 C535.312824,78.7429154 540.207505,73.8482347 546.191702,73.8482347" id="Fill-227" fill="#161515"></path>
                <path d="M368.369735,56.1716415 C375.548419,56.7272588 380.917275,62.9965041 380.361658,70.1760931 C379.805136,77.3547771 373.536795,82.7236328 366.358111,82.1680155 C359.177617,81.6123982 353.809667,75.3431529 354.365284,68.1644689 C354.920901,60.9848799 361.190147,55.6160242 368.369735,56.1716415" id="Fill-246" fill="#293341"></path>
                <path d="M373.571182,58.486412 L373.572087,58.486412 C381.149838,59.0727963 386.868896,65.7528727 386.283416,73.3306238 L385.646357,81.5499591 C385.060877,89.1277103 378.380801,94.8476727 370.80305,94.2612883 L370.802145,94.2612883 C363.224394,93.673999 357.504431,86.9957325 358.090816,79.4179814 L358.72697,71.1977412 C359.313355,63.61999 365.993431,57.8991227 373.571182,58.486412" id="Fill-247" fill="#E39281"></path>
                <path d="M378.436001,59.7894883 C383.440176,62.1838912 386.734063,67.4894029 386.282511,73.3306238 L385.647262,81.5499591 C385.097979,88.6517255 379.194319,94.1246463 372.212906,94.2983898 C367.207826,91.9012722 363.913938,86.5948556 364.36549,80.7581592 L365.00074,72.5370141 C365.550023,65.4343429 371.453683,59.9623269 378.436001,59.7894883" id="Fill-248" fill="#D05F72"></path>
                <path d="M390.544657,50.8815134 C399.841745,51.6009201 406.792391,59.718905 406.072984,69.0150882 C405.354482,78.3112714 397.236497,85.2628219 387.940314,84.5434152 C378.644131,83.8240084 371.69258,75.7051186 372.411987,66.4098403 C373.131394,57.1136572 381.249379,50.1621066 390.544657,50.8815134" id="Fill-249" fill="#293341"></path>
                <path d="M373.566657,56.746262 C381.245759,57.3407906 386.989249,64.0462045 386.394721,71.7253061 C385.800192,79.4044077 379.094778,85.1478978 371.415677,84.5533692 C363.73567,83.9588406 357.99399,77.2534267 358.587613,69.5743251 C359.182142,61.8943187 365.888461,56.1517334 373.566657,56.746262" id="Fill-250" fill="#293341"></path>
                <path d="M382.370567,79.295818 L382.371472,79.295818 C384.765875,79.4804205 386.571179,81.5879655 386.385671,83.9823684 L386.366668,84.2248854 C386.182066,86.6192883 384.074521,88.424592 381.680118,88.2381797 L381.679213,88.2381797 C379.28481,88.0535772 377.479506,85.9460321 377.665014,83.5516293 L377.684017,83.3091123 C377.868619,80.9147094 379.977974,79.1103106 382.370567,79.295818" id="Fill-251" fill="#D05F72"></path>
                <path d="M381.745272,82.8647994 C376.378226,84.0239944 372.967604,89.3150275 374.126799,94.6820734 C375.286899,100.049119 380.578837,103.459741 385.944978,102.300546 C391.312024,101.140446 394.722646,95.8494127 393.563451,90.4823668 C392.403351,85.1153209 387.113222,81.7046995 381.745272,82.8647994" id="Fill-252" fill="#E39281"></path>
                <g id="Group-4" transform="translate(369.578701, 272.379162)">
                    <path d="M29.4259986,56.1680219 L44.981473,44.0358377 C48.8852727,40.9908016 54.5681336,41.6939199 57.6131698,45.5986245 L57.6149796,45.5995294 C60.6609207,49.504234 59.9568975,55.1879998 56.0530978,58.233036 L40.4976234,70.3652201 C36.5938237,73.4093514 30.9091529,72.707138 27.8641168,68.8033383 L27.8641168,68.8015285 C24.8172708,64.8968239 25.521294,59.213058 29.4259986,56.1680219" id="Fill-169" fill="#F1A863"></path>
                    <path d="M29.4250937,56.1680219 C33.3297983,53.1229857 39.0126592,53.826104 42.0576954,57.7308086 C45.1045414,61.6373231 44.4014231,67.320184 40.4967185,70.3652201 L25.2622661,81.491148 C20.7800071,81.491148 18.6610533,81.491148 12.3086424,80.9346175 C9.26179642,77.0299129 9.96491472,71.3461471 13.8705242,68.300206 L29.4250937,56.1680219 Z" id="Fill-170" fill="#804E2E"></path>
                    <path d="M31.8656472,142.994535 L51.8742042,93.505685 C54.0224704,88.1911242 60.1261164,85.6003549 65.4415822,87.749526 C70.757048,89.8977923 73.3469123,96.004153 71.1977412,101.319619 L51.1900891,150.807564 C49.040918,156.12303 42.9345572,158.71199 37.6190914,156.563723 C32.3045306,154.414552 29.7155712,148.310001 31.8656472,142.994535" id="Fill-186" fill="#385A91"></path>
                    <path d="M35.7450142,141.970173 C27.5962622,141.970173 20.9894839,148.577856 20.9894839,156.726608 C20.9894839,157.931049 21.9740305,158.915595 23.1784713,158.915595 L48.3115571,158.915595 C49.5178077,158.915595 50.5005445,157.931049 50.5005445,156.726608 C50.5005445,148.577856 43.8937662,141.970173 35.7450142,141.970173" id="Fill-187" fill="#385A91"></path>
                    <path d="M70.9561291,68.0151581 L70.9543192,68.0151581 C61.4282879,67.2432663 53.0035371,74.4047569 52.2316453,83.9307883 L51.6344019,91.281406 C50.8625102,100.805628 58.0240008,109.231283 67.5491273,110.003175 L73.4844592,110.484589 C79.748275,110.993151 85.2854448,106.284883 85.7940065,100.021067 L86.8708544,86.7396418 C87.6436511,77.2136105 80.4812555,68.7879547 70.9561291,68.0151581" id="Fill-188" fill="#497BB1"></path>
                    <path d="M62.5802436,145.064979 L69.0983403,92.08316 C69.7987439,86.3930597 75.0237182,82.3118969 80.7147234,83.0113955 C86.4048236,83.7117991 90.4877963,88.9385832 89.7864878,94.6295884 L83.269296,147.609598 C82.5688925,153.300603 77.3412034,157.381766 71.6511031,156.681362 C65.9610029,155.981863 61.8798401,150.755079 62.5802436,145.064979" id="Fill-189" fill="#497BB1"></path>
                    <path d="M74.4409535,143.816198 C67.1808272,143.816198 61.2925508,149.703569 61.2925508,156.9646 C61.2925508,158.038733 62.1694126,158.915595 63.2426408,158.915595 L85.6383613,158.915595 C86.7124944,158.915595 87.5884513,158.038733 87.5884513,156.9646 C87.5884513,149.703569 81.7019847,143.816198 74.4409535,143.816198" id="Fill-190" fill="#6498C4"></path>
                    <path d="M13.8189441,66.4098403 C6.557008,66.4098403 0.670541392,72.2981168 0.670541392,79.5582431 C0.670541392,80.6323762 1.5464983,81.509238 2.62063141,81.509238 L25.015447,81.509238 C26.0895801,81.509238 26.966442,80.6323762 26.966442,79.5582431 C26.966442,72.2981168 21.0790704,66.4098403 13.8189441,66.4098403" id="Fill-191" fill="#804E2E"></path>
                    <path d="M64.4769437,26.0497639 L64.4796584,26.0497639 C69.3182344,26.3302873 73.0962511,30.5191349 72.8781667,35.3604257 L71.9868263,55.2395799 C71.7696469,60.0808707 67.6350941,63.8109269 62.7983279,63.5313084 L62.7947083,63.5313084 C57.9579421,63.250785 54.1790206,59.0619374 54.3962,54.2206466 L55.2875404,34.3423973 C55.5056247,29.5002016 59.6401775,25.7701454 64.4769437,26.0497639" id="Fill-193" fill="#8B572A"></path>
                    <path d="M74.1939119,12.5737822 L74.1948168,12.5737822 C82.3489983,14.4469546 87.4871009,22.6472867 85.6148335,30.8023731 L84.1968331,36.981127 C82.3236607,45.1344035 74.1206139,50.2725061 65.9673373,48.4002387 L65.9664324,48.4002387 C57.811346,46.5270664 52.6732434,38.3267343 54.5464157,30.1716479 L55.9653211,23.992894 C57.8375885,15.8387125 66.0388255,10.7015148 74.1939119,12.5737822" id="Fill-194" fill="#613A22"></path>
                    <path d="M62.30153,47.0401528 C56.3480998,43.9037203 52.9736749,37.0191333 54.5464157,30.170743 L55.9653211,23.9937989 C57.5380619,17.1454086 63.577459,12.4235665 70.3018761,12.1982429 C76.2553064,15.3346753 79.6306362,22.2183574 78.0569905,29.0676526 L76.63899,35.2436918 C75.0671541,42.092987 69.0259472,46.8148291 62.30153,47.0401528" id="Fill-195" fill="#804E2E"></path>
                    <path d="M64.4932321,5.31275103 L64.4941371,5.31275103 C67.8658472,6.08735755 69.9878709,9.47626108 69.2141693,12.8470663 L67.7988836,19.0113416 C67.024277,22.3821468 63.6353735,24.5059804 60.2645683,23.7322787 L60.2627584,23.7313738 C56.8919532,22.9576722 54.7699295,19.5678638 55.5436311,16.1970585 L56.9580119,10.0327833 C57.7326185,6.66197804 61.1224269,4.53904942 64.4932321,5.31275103" id="Fill-196" fill="#161515"></path>
                    <path d="M58.1334954,27.7283797 L58.127161,27.756432 C57.8737851,29.1101836 56.6847279,30.1372612 55.2558684,30.1399759 C53.8279139,30.1408808 52.6361419,29.1174229 52.3782414,27.7636713 L52.3737168,27.735619 L50.6516652,18.6828577 C50.5783671,18.353469 50.5385509,18.0105065 50.5385509,17.6593998 C50.5349312,15.0622962 52.6370468,12.9547511 55.2341505,12.9511314 C57.8303492,12.9484167 59.9387992,15.0505323 59.9424188,17.6476359 C59.9424188,17.9987426 59.9044124,18.34261 59.8311144,18.6710939 L58.1334954,27.7283797" id="Fill-197" fill="#161515"></path>
                    <path d="M85.4600932,11.2082668 L85.4609981,11.2082668 C88.3241465,11.8652345 90.1276405,14.7437664 89.4697679,17.6060099 L88.2671369,22.8418432 C87.6101693,25.7040867 84.7316373,27.5084855 81.8684889,26.849708 C79.0053405,26.1918354 77.2018466,23.3142084 77.8597192,20.4519649 L79.0623501,15.2161316 C79.7193178,12.3538881 82.5978497,10.5503942 85.4600932,11.2082668" id="Fill-198" fill="#000000"></path>
                    <path d="M78.4433888,0.355631265 L78.4461036,0.356536179 C83.7814775,1.58088504 87.1432336,6.94883583 85.9188847,12.2842097 L84.5407004,18.2819808 C83.3163516,23.6182596 77.9493057,26.9800157 72.6139318,25.753857 L72.6112171,25.753857 C67.2749383,24.5286032 63.9140871,19.1615573 65.1393409,13.8270884 L66.5166202,7.82841239 C67.7409691,2.49303851 73.1080149,-0.869622507 78.4433888,0.355631265" id="Fill-199" fill="#161515"></path>
                    <path d="M57.3806069,49.7729935 C45.9777835,53.636977 39.8116984,66.1238875 43.6756819,77.524901 L46.6546593,86.3197617 C50.5186428,97.7189653 63.0055533,103.885955 74.4065668,100.022877 L81.5083331,97.6158051 C89.004642,95.0757111 93.0577525,86.8681396 90.5185634,79.3727357 L85.1316094,63.4761086 C81.2676259,52.0750951 68.7816203,45.909915 57.3806069,49.7729935" id="Fill-200" fill="#F1A863"></path>
                    <path d="M77.9321123,53.3238767 C73.6726814,49.9856483 68.2386718,48.2617869 62.7105512,48.6834769 C62.0146723,48.8237386 61.3187933,49.008341 60.6292487,49.2418089 L60.6292487,49.240904 C51.8814435,52.2044979 47.1514572,61.785729 50.1141461,70.5335342 L52.4017691,77.2805741 C55.3671728,86.0301891 64.9456892,90.7592705 73.6934944,87.7947717 L79.1428875,85.9496518 C84.893617,83.9995618 88.0038069,77.703169 86.0555267,71.9515346 L81.9218789,59.7551016 C81.0748792,57.2539189 79.6876458,55.0821249 77.9321123,53.3238767" id="Fill-201" fill="#F9CB66"></path>
                    <path d="M89.9864738,94.8540071 L79.7582291,77.9855023 C77.1909876,73.7514089 78.5546933,68.1898065 82.7878817,65.622565 L82.7896915,65.6207552 C87.0237849,63.0544186 92.5853873,64.4172194 95.1526288,68.6504078 L105.380874,85.5189126 C107.948115,89.753006 106.585314,95.3155133 102.351221,97.8827548 L102.350316,97.8836597 C98.1153177,100.450901 92.5537153,99.0871955 89.9864738,94.8540071" id="Fill-203" fill="#613A22"></path>
                    <path d="M88.8788589,43.1625956 L66.5772495,43.1625956 C65.0950001,43.1625956 63.5494067,44.3742756 63.1412904,45.8574299 L53.9509822,79.1854184 C53.5428659,80.6667629 54.4188228,81.878443 55.9010722,81.878443 L78.2026817,81.878443 C79.685836,81.878443 81.2314294,80.6667629 81.6413555,79.1854184 L90.8307588,45.8574299 C91.23978,44.3742756 90.3620132,43.1625956 88.8788589,43.1625956" id="Fill-205" fill="#FFFFFE"></path>
                    <path d="M90.4289769,45.0411974 L68.1273674,45.0411974 C66.6460229,45.0411974 65.1004295,46.2537823 64.6914083,47.7360317 L55.5020051,81.0640202 C55.0920789,82.5453647 55.9698457,83.7579497 57.4520951,83.7579497 L79.7537045,83.7579497 C81.2368588,83.7579497 82.7824522,82.5453647 83.1905685,81.0640202 L92.3817816,47.7360317 C92.7898979,46.2537823 91.9130361,45.0411974 90.4289769,45.0411974" id="Fill-207" fill="#485366"></path>
                    <path d="M98.4863325,99.9369099 C104.055174,99.9369099 108.596034,95.3960507 108.596034,89.827209 C108.596034,84.2592721 104.055174,79.717508 98.4863325,79.717508 C92.9183957,79.717508 88.3766316,84.2592721 88.3766316,89.827209 C88.3766316,95.3960507 92.9183957,99.9369099 98.4863325,99.9369099" id="Fill-208" fill="#613A22"></path>
                    <path d="M53.3908403,35.6300901 C56.7842684,35.6300901 59.5524008,32.8628626 59.5524008,29.4694345 C59.5524008,26.0760064 56.7842684,23.307874 53.3908403,23.307874 C49.9974122,23.307874 47.2292798,26.0760064 47.2292798,29.4694345 C47.2292798,32.8628626 49.9974122,35.6300901 53.3908403,35.6300901" id="Fill-253" fill="#804E2E"></path>
                    <path d="M116.655199,45.0411974 L94.3535896,45.0411974 C92.8704353,45.0411974 91.3257468,46.2537823 90.9176305,47.7360317 L81.7264174,81.0640202 C81.3183011,82.5453647 82.1951629,83.7579497 83.6774123,83.7579497 L105.978117,83.7579497 C107.462176,83.7579497 109.007769,82.5453647 109.416791,81.0640202 L118.606194,47.7360317 C119.015215,46.2537823 118.138353,45.0411974 116.655199,45.0411974" id="Fill-206" fill="#293341"></path>
                </g>
                <path d="M349.832569,87.3115476 L365.830546,87.3115476 C366.894725,87.3115476 368.005055,88.1802652 368.298247,89.2444442 L374.891452,113.155896 C375.185549,114.220075 374.554824,115.089698 373.490645,115.089698 L357.491762,115.089698 C356.429393,115.089698 355.318159,114.220075 355.025871,113.155896 L348.430857,89.2444442 C348.13857,88.1802652 348.769295,87.3115476 349.832569,87.3115476" id="Fill-254" fill="#FFFFFE"></path>
                <path d="M329.903644,88.6589648 L345.903432,88.6589648 C346.966706,88.6589648 348.076131,89.5294922 348.370228,90.5918614 L354.963432,114.504218 C355.256624,115.567492 354.625899,116.437115 353.562625,116.437115 L337.563743,116.437115 C336.500469,116.437115 335.390139,115.567492 335.096947,114.504218 L328.503742,90.5918614 C328.209645,89.5294922 328.841275,88.6589648 329.903644,88.6589648" id="Fill-255" fill="#485366"></path>
                <path d="M348.719524,88.6589648 L364.719312,88.6589648 C365.781681,88.6589648 366.892011,89.5294922 367.185203,90.5918614 L373.780217,114.504218 C374.072504,115.567492 373.441779,116.437115 372.378505,116.437115 L356.379623,116.437115 C355.316349,116.437115 354.206019,115.567492 353.912827,114.504218 L347.319622,90.5918614 C347.025525,89.5294922 347.65625,88.6589648 348.719524,88.6589648" id="Fill-256" fill="#293341"></path>
                <path d="M341.720013,79.8052846 C336.352968,80.9653846 332.942346,86.2555128 334.101541,91.6234636 C335.261641,96.9896045 340.551769,100.401131 345.91972,99.2419359 C351.286766,98.0818359 354.697387,92.7898979 353.538192,87.4237569 C352.378092,82.0567111 347.086154,78.6460896 341.720013,79.8052846" id="Fill-257" fill="#E39281"></path>
                <path d="M368.890966,384.628334 C373.326855,384.628334 376.953751,388.25704 376.953751,392.690214 C376.953751,397.127008 373.326855,400.754809 368.890966,400.754809 L335.569312,400.754809 C331.134328,400.754809 327.507432,397.127008 327.507432,392.693834 C327.507432,388.25704 331.134328,384.628334 335.569312,384.628334 L368.890966,384.628334 Z" id="Fill-258" fill="#E6E6E8"></path>
                <path d="M367.969763,39.0108494 L375.557469,39.0108494 C377.135639,39.0108494 378.426951,40.3021619 378.426951,41.8803322 C378.426951,43.4603123 377.135639,44.7507199 375.557469,44.7507199 L367.969763,44.7507199 C366.391593,44.7507199 365.100281,43.4603123 365.100281,41.8803322 C365.100281,40.3021619 366.391593,39.0108494 367.969763,39.0108494" id="Fill-259" fill="#FFFFFE"></path>
                <path d="M367.969763,29.580739 L385.19209,29.580739 C386.77207,29.580739 388.063382,30.8711465 388.063382,32.4502218 C388.063382,34.0302019 386.77207,35.3197046 385.19209,35.3197046 L367.969763,35.3197046 C366.391593,35.3197046 365.100281,34.0302019 365.100281,32.4502218 C365.100281,30.8711465 366.391593,29.580739 367.969763,29.580739" id="Fill-260" fill="#FFFFFE"></path>
                <g id="Group-5" transform="translate(20.281835, 381.873775)" fill="#FFFFFE">
                    <path d="M20.1090025,19.3678778 L14.3673221,19.3678778 C12.7882469,19.3678778 11.4969344,20.6591903 11.4969344,22.2373606 C11.4969344,23.8173407 12.7882469,25.1077483 14.3673221,25.1077483 L20.1090025,25.1077483 C21.6871727,25.1077483 22.9784853,23.8173407 22.9784853,22.2373606 C22.9784853,20.6591903 21.6871727,19.3678778 20.1090025,19.3678778" id="Fill-264" transform="translate(17.237710, 22.237813) scale(-1, 1) translate(-17.237710, -22.237813) "></path>
                    <path d="M20.1090025,9.9377673 L2.88577125,9.9377673 C1.30669605,9.9377673 0.0153835407,11.2281749 0.0153835407,12.8072501 C0.0153835407,14.3872302 1.30669605,15.6767329 2.88577125,15.6767329 L20.1090025,15.6767329 C21.6871727,15.6767329 22.9784853,14.3872302 22.9784853,12.8072501 C22.9784853,11.2281749 21.6871727,9.9377673 20.1090025,9.9377673" id="Fill-265" transform="translate(11.496934, 12.807250) scale(-1, 1) translate(-11.496934, -12.807250) "></path>
                    <path d="M20.1090025,0.506751929 L2.88577125,0.506751929 C1.30669605,0.506751929 0.0153835407,1.79806443 0.0153835407,3.37713964 C0.0153835407,4.95621485 1.30669605,6.24662244 2.88577125,6.24662244 L20.1090025,6.24662244 C21.6871727,6.24662244 22.9784853,4.95621485 22.9784853,3.37713964 C22.9784853,1.79806443 21.6871727,0.506751929 20.1090025,0.506751929" id="Fill-266" transform="translate(11.496934, 3.376687) scale(-1, 1) translate(-11.496934, -3.376687) "></path>
                </g>
                <g id="Group-3" transform="translate(566.140015, 268.759505)">
                    <path d="M75.342248,61.2835016 L89.7131898,61.2835016 C96.2692929,61.2835016 101.632719,66.6469278 101.632719,73.2030309 L101.632719,73.2039358 C101.632719,79.7600389 96.2692929,85.1234652 89.7131898,85.1234652 L75.342248,85.1234652 C68.7870498,85.1234652 63.4245285,79.7600389 63.4245285,73.2039358 L63.4245285,73.2030309 C63.4245285,66.6469278 68.7870498,61.2835016 75.342248,61.2835016" id="Fill-131" fill="#293341"></path>
                    <path d="M21.0497959,84.9091815 C18.7933676,84.9091815 16.2678945,84.9091815 11.1605467,84.9091815 C10.9279837,84.7372478 5.67377096,85.0992135 5.45568665,84.9091815 L3.76715765,83.4729017 C3.2531664,83.0982673 2.77265698,82.6648134 2.34463259,82.1571565 C-0.207225343,79.1220744 0.183697574,74.5884545 3.21968458,72.0356917 C4.77161236,70.7308054 6.71536798,70.1950963 8.58401572,70.3896528 L8.80571969,70.4149904 L23.1757565,72.0329769 C26.0579081,72.3125954 28.8368995,73.676301 30.8476188,76.0670842 C34.9224472,80.9128996 30.8037612,84.9091815 21.0497959,84.9091815 Z" id="Fill-81" fill="#497BB1"></path>
                    <path d="M58.9578722,62.090685 C65.2361667,60.2030341 71.9171479,63.7946384 73.8038939,70.0729329 C75.6933547,76.3530371 72.1008455,83.0340184 65.822551,84.9207644 L49.8006909,84.9207644 C42.3040174,84.9207644 26.2719516,84.9207644 20.3005093,84.9207644 C18.4128584,78.641565 21.7306086,73.2844732 28.0089031,71.3968223 L58.9578722,62.090685 Z" id="Fill-82" fill="#497BB1"></path>
                    <path d="M108.798734,34.587629 L108.799639,34.587629 C117.160141,39.415346 120.049532,50.2028277 115.223625,58.5615198 L106.385328,73.8699527 C101.558516,82.2304546 90.7710344,85.1216553 82.4114374,80.2930334 L82.4105325,80.2930334 C74.0500306,75.4662212 71.1588298,64.6796445 75.985642,56.3191425 L84.8248435,41.0107097 C89.6507507,32.6511127 100.439137,29.7608169 108.798734,34.587629" id="Fill-124" fill="#F9CB66"></path>
                    <path d="M101.632719,9.61109329 C109.738035,9.61109329 116.369246,16.2413993 116.369246,24.3476204 L116.369246,27.8279202 C116.369246,35.9341413 109.738035,42.5644473 101.632719,42.5644473 C93.526498,42.5644473 86.8952871,35.9341413 86.8952871,27.8279202 L86.8952871,24.3476204 C86.8952871,16.2413993 93.526498,9.61109329 101.632719,9.61109329" id="Fill-125" fill="#E39281"></path>
                    <path d="M116.369246,24.3476204 L116.369246,27.8279202 C116.369246,34.7378448 111.546959,40.5772558 105.10035,42.1481868 C98.6537417,40.5772558 93.8314541,34.7378448 93.8314541,27.8279202 L93.8314541,24.3476204 C93.8314541,17.4367909 98.6537417,11.5973799 105.10035,10.0264489 C111.546959,11.5973799 116.369246,17.4367909 116.369246,24.3476204 Z" id="Fill-126" fill="#D05F72"></path>
                    <path d="M90.1620272,5.75977862 L103.159309,5.75977862 C107.691119,5.75977862 111.396743,9.46630702 111.396743,13.9972122 C111.396743,18.5290223 107.691119,22.2364556 103.159309,22.2364556 L90.1620272,22.2364556 C85.631122,22.2364556 81.9236887,18.5290223 81.9236887,13.9972122 C81.9236887,9.46630702 85.631122,5.75977862 90.1620272,5.75977862" id="Fill-127" fill="#475366"></path>
                    <path d="M112.180399,10.1142256 C116.233509,10.1142256 119.549115,13.4289261 119.549115,17.4829416 L119.549115,19.2221866 C119.549115,23.2752971 116.233509,26.5909026 112.180399,26.5909026 C108.127288,26.5909026 104.812587,23.2752971 104.812587,19.2221866 L104.812587,17.4829416 C104.812587,13.4289261 108.127288,10.1142256 112.180399,10.1142256" id="Fill-128" fill="#475366"></path>
                    <path d="M120.869995,27.9718016 L120.869995,29.527349 C120.869995,33.1533401 117.951036,36.1169339 114.32595,36.1169339 C110.699054,36.1169339 107.734555,33.1533401 107.734555,29.527349 L107.734555,27.9718016 C107.734555,24.3449056 110.699054,21.3813118 114.32414,21.3813118 C117.951036,21.3813118 120.869995,24.3449056 120.869995,27.9718016 Z" id="Fill-129" fill="#D05F72"></path>
                    <path d="M90.891388,0.714882186 L95.1137175,0.714882186 C101.031856,0.714882186 105.874052,5.55707785 105.874052,11.4761214 L105.874052,11.4770263 C105.874052,17.39426 101.031856,22.2364556 95.1137175,22.2364556 L90.891388,22.2364556 C84.9732494,22.2364556 80.1319586,17.39426 80.1319586,11.4770263 L80.1319586,11.4761214 C80.1319586,5.55707785 84.9732494,0.714882186 90.891388,0.714882186" id="Fill-130" fill="#475366"></path>
                    <path d="M120.867188,46.8682191 L120.867188,69.4367782 C118.088152,75.6191517 114.998,78.7103385 111.596729,78.7103385 C106.495728,78.7103385 102.322264,74.5377793 102.322264,69.4367782 L102.322264,46.8682191 C102.322264,41.766313 106.495728,37.5928489 111.596729,37.5928489 C114.998,37.5928489 118.088152,40.684639 120.867188,46.8682191 Z" id="Fill-132" fill="#F9CB66"></path>
                    <path d="M52.4714475,30.1698381 L72.1931467,30.1698381 C73.5061772,30.1698381 74.8735025,31.2421614 75.2345632,32.5524771 L83.3615973,62.0291509 C83.722658,63.3385617 82.9480515,64.410885 81.635926,64.410885 L61.9133219,64.410885 C60.6011963,64.410885 59.234776,63.3385617 58.8728103,62.0291509 L50.7448713,32.5524771 C50.3838106,31.2421614 51.1602269,30.1698381 52.4714475,30.1698381" id="Fill-133" fill="#FFFFFE"></path>
                    <path d="M76.4471482,30.1698381 L96.1697523,30.1698381 C97.4809729,30.1698381 98.8482982,31.2421614 99.2111688,32.5524771 L107.337298,62.0291509 C107.699264,63.3385617 106.923752,64.410885 105.611627,64.410885 L85.8890225,64.410885 C84.5778019,64.410885 83.2104766,63.3385617 82.8494159,62.0291509 L74.7214769,32.5524771 C74.3604161,31.2421614 75.1359276,30.1698381 76.4471482,30.1698381" id="Fill-134" fill="#FFFFFE"></path>
                    <path d="M51.0371586,31.8095425 L70.7579529,31.8095425 C72.0709833,31.8095425 73.4374037,32.8818658 73.7993694,34.1921815 L81.9273083,63.6688553 C82.2883691,64.9782661 81.5128577,66.0505894 80.1998272,66.0505894 L60.4790329,66.0505894 C59.1660025,66.0505894 57.7986772,64.9782661 57.4376164,63.6688553 L49.3096775,34.1921815 C48.9486167,32.8818658 49.7241281,31.8095425 51.0371586,31.8095425" id="Fill-135" fill="#475366"></path>
                    <path d="M61.4454813,51.1946137 C61.4454813,46.1804843 57.3570791,42.092987 52.3438546,42.092987 C47.3315351,42.092987 43.242228,46.1804843 43.242228,51.1946137 C43.242228,56.2069332 47.3315351,60.2962403 52.3438546,60.2962403 C57.3570791,60.2962403 61.4454813,56.2069332 61.4454813,51.1946137 Z" id="Fill-136" fill="#E39281"></path>
                    <path d="M75.0128592,31.8095425 L94.7345584,31.8095425 C96.046684,31.8095425 97.4140093,32.8818658 97.77507,34.1921815 L105.903009,63.6688553 C106.264975,64.9782661 105.488558,66.0505894 104.176433,66.0505894 L84.4547336,66.0505894 C83.1426081,66.0505894 81.7752828,64.9782661 81.414222,63.6688553 L73.286283,34.1921815 C72.9243174,32.8818658 73.7007337,31.8095425 75.0128592,31.8095425" id="Fill-138" fill="#293341"></path>
                    <path d="M98.6700301,18.0729456 C96.6964123,20.6021807 93.6242288,22.2355507 90.185555,22.2355507 L85.9641304,22.2355507 C80.0450869,22.2355507 75.2037961,17.3960698 75.2037961,11.4743115 C75.2037961,7.86189422 77.0063851,4.65125878 79.7573242,2.69754911 C78.3329893,4.52095114 77.4832749,6.81490853 77.4832749,9.29527825 C77.4832749,15.2161316 82.3236607,20.0547076 88.2427043,20.0547076 L92.4650337,20.0547076 C94.770755,20.0547076 96.9135917,19.3208222 98.6700301,18.0729456" id="Fill-139" fill="#475366"></path>
                    <path d="M70.186952,61.2835016 L94.3544945,61.2835016 C100.910598,61.2835016 106.273119,66.6469278 106.273119,73.2030309 L106.273119,73.2039358 C106.273119,79.7600389 100.910598,85.1234652 94.3544945,85.1234652 L70.186952,85.1234652 C63.6308489,85.1234652 58.2674227,79.7600389 58.2674227,73.2039358 L58.2674227,73.2030309 C58.2674227,66.6469278 63.6308489,61.2835016 70.186952,61.2835016" id="Fill-267" fill="#497BB1"></path>
                    <path d="M52.4841163,93.2324009 L58.7397879,69.8874254 C60.4355971,63.5557411 67.0043689,59.7632458 73.3369582,61.4599599 L73.339673,61.4599599 C79.6722623,63.1575788 83.4638526,69.7263507 81.7680434,76.0580351 L75.5123719,99.4021057 C73.8156578,105.734695 67.2477908,109.52719 60.9142966,107.830476 L60.9124868,107.829571 C54.5798975,106.133762 50.7883072,99.5649902 52.4841163,93.2324009" id="Fill-268" fill="#86ADD1"></path>
                    <path d="M63.1539592,89.362988 C69.4856436,89.362988 74.6210314,94.4992808 74.6210314,100.83006 C74.6210314,106.239637 70.8737819,110.775972 65.8343149,111.982222 L65.8316002,111.982222 C65.5537915,112.048281 65.2705534,112.106196 64.9864104,112.152346 L51.3936948,114.857135 L51.3855505,114.839941 C50.7765433,115.00916 50.1349592,115.098747 49.472562,115.098747 C45.5045134,115.098747 42.2875436,111.881777 42.2875436,107.915538 C42.2875436,105.886721 43.1291138,104.056079 44.4801506,102.749383 L44.5163472,102.714996 L44.6421302,102.597358 L55.1291804,92.6396822 C57.1969093,90.6126744 60.0311004,89.362988 63.1539592,89.362988" id="Fill-269" fill="#86ADD1"></path>
                    <path d="M106.536449,76.3657059 C112.008465,76.3657059 116.471501,71.9026693 116.471501,66.4297484 C116.471501,60.9577325 112.008465,56.4946959 106.536449,56.4946959 C101.064433,56.4946959 96.6004914,60.9577325 96.6004914,66.4297484 C96.6004914,71.9026693 101.064433,76.3657059 106.536449,76.3657059" id="Fill-270" fill="#D05F72"></path>
                    <path d="M101.249035,69.8403699 C106.261355,69.8403699 110.349757,65.7519677 110.349757,60.7396482 C110.349757,55.7273287 106.261355,51.6380216 101.249035,51.6380216 C96.2367159,51.6380216 92.1465039,55.7273287 92.1465039,60.7396482 C92.1465039,65.7519677 96.2367159,69.8403699 101.249035,69.8403699" id="Fill-271" fill="#E39281"></path>
                </g>
                <path d="M647.839805,165.237326 L684.5,166.5" id="Line" stroke="#293341" stroke-linecap="square"></path>
            </g>
        </g>
    </g>
</svg>
