<?xml version="1.0" encoding="UTF-8"?>
<svg width="756px" height="589px" viewBox="0 0 756 589" version="1.1" xmlns="http://www.w3.org/2000/svg" xmlns:xlink="http://www.w3.org/1999/xlink">
    <!-- Generator: Sketch 47.1 (45422) - http://www.bohemiancoding.com/sketch -->
    <title>ANIMATION</title>
    <desc>Created with Sketch.</desc>
    <defs></defs>
    <g id="Welcome" stroke="none" stroke-width="1" fill="none" fill-rule="evenodd">
        <g id="WEBSITE-DESIGN" transform="translate(-684.000000, -91.000000)">
            <g id="ANIMATION" transform="translate(684.000000, 91.000000)">
                <path d="M827.886,336.754 C827.886,430.721 789.133,515.627 726.756,576.401 L259.843,576.401 C197.465,515.627 158.712,430.721 158.712,336.754 C158.712,151.966 308.511,2.166 493.299,2.166 C678.087,2.166 827.886,151.966 827.886,336.754 Z" id="Fill-3" fill="#E5E5E2"></path>
                <path d="M216.359,246.621 C216.422,246.962 216.456,247.315 216.456,247.674 C216.456,250.876 213.858,253.473 210.658,253.473 C207.456,253.473 204.858,250.876 204.858,247.674 C204.858,247.315 204.894,246.962 204.956,246.621 L204.954,246.621 L207.678,231.227 L207.678,231.226 L207.681,231.209 C207.909,229.773 209.156,228.671 210.658,228.671 C212.159,228.671 213.406,229.773 213.634,231.209 L213.636,231.226 L213.636,231.227 L216.361,246.621 L216.359,246.621" id="Fill-4" fill="#384354"></path>
                <polygon id="Fill-5" fill="#384354" points="209.099 246.74 212.271 246.74 212.271 151.129 209.099 151.129"></polygon>
                <path d="M261.746,393.394 L254.909,393.394 C253.67,357.822 232.981,279.658 251.914,251.899 C245.147,244.447 240.533,229.548 240.533,212.379 C240.533,189.209 217.155,196.729 217.155,162.536 C217.155,137.909 237.119,117.945 261.746,117.945 C286.373,117.945 306.336,137.909 306.336,162.536 C306.336,196.729 282.96,189.209 282.96,212.379 C282.96,229.548 278.344,244.447 271.578,251.899 C290.511,279.658 269.823,357.822 268.583,393.394 L261.746,393.394" id="Fill-6" fill="#485366"></path>
                <path d="M222.084,183.805 C219.607,179.775 217.751,174.428 217.277,166.587 L293.84,166.587 L293.84,183.805 L222.084,183.805" id="Fill-7" fill="#384354"></path>
                <path d="M294.523,132.307 C301.857,140.253 306.336,150.871 306.336,162.536 C306.336,196.729 282.96,189.209 282.96,212.379 C282.96,229.548 278.344,244.447 271.578,251.899 C290.511,279.658 269.823,357.822 268.583,393.394 L263.475,393.394 L263.475,393.37 C263.832,371.391 266.058,348.919 267.302,326.917 C268.407,307.39 270.752,270.68 264.936,252.338 C264.827,251.996 264.842,251.666 264.983,251.336 C269.257,241.211 270.16,223.282 270.16,212.379 C270.16,205.186 271.013,200.072 274.303,193.705 C280.189,182.314 281.03,175.669 281.03,162.536 C281.03,153.184 279.67,143.03 276.233,134.287 C276.052,133.825 276.105,133.348 276.384,132.941 C276.661,132.531 277.085,132.307 277.58,132.307 L294.523,132.307" id="Fill-8" fill="#384354"></path>
                <path d="M344.989,0.838 C346.617,0.838 347.994,1.893 348.415,3.464 L394.293,173.651 C394.591,174.753 394.378,175.829 393.684,176.735 C392.99,177.641 392.006,178.126 390.865,178.126 L132.625,178.126 C131.484,178.126 130.5,177.641 129.807,176.735 C129.112,175.829 128.9,174.753 129.197,173.651 L175.075,3.464 C175.496,1.893 176.874,0.838 178.501,0.838 L344.989,0.838 Z" id="Fill-9" fill="#E5E5E2"></path>
                <path d="M178.501,0.838 L303.295,0.838 C304.107,0.838 304.794,1.893 305.005,3.464 L327.904,173.651 C328.052,174.753 327.947,175.829 327.6,176.735 C327.259,177.626 326.779,178.111 326.22,178.126 L132.625,178.126 C131.484,178.126 130.5,177.641 129.807,176.735 C129.112,175.829 128.9,174.753 129.197,173.651 L175.075,3.464 C175.496,1.893 176.874,0.838 178.501,0.838" id="Fill-10" fill="#FFFFFE"></path>
                <path d="M261.746,373.57 C293.401,373.57 327.8,381.71 353.65,400.651 C355.05,401.676 355.607,403.411 355.067,405.06 C354.528,406.71 353.054,407.78 351.317,407.78 L172.175,407.78 C170.439,407.78 168.964,406.71 168.424,405.06 C167.886,403.411 168.442,401.676 169.843,400.651 C195.692,381.71 230.092,373.57 261.746,373.57" id="Fill-11" fill="#384354"></path>
                <polygon id="Fill-12" fill="#293341" points="145.46 581.223 832.718 581.223 832.718 555.014 145.46 555.014"></polygon>
                <path d="M413.206,82.432 C410.476,86.931 405.374,89.765 399.768,89.331 C391.835,88.716 385.902,81.788 386.516,73.855 C386.768,70.602 388.081,67.69 390.088,65.423 C388.956,67.29 388.23,69.445 388.05,71.774 C387.436,79.706 393.368,86.635 401.301,87.249 C405.985,87.611 410.315,85.695 413.206,82.432" id="Fill-13" fill="#293341"></path>
                <path d="M444.094,64.554 C454.366,65.349 462.049,74.319 461.254,84.593 C460.458,94.866 451.488,102.548 441.215,101.753 C430.941,100.958 423.259,91.986 424.054,81.714 C424.849,71.441 433.821,63.759 444.094,64.554" id="Fill-14" fill="#293341"></path>
                <path d="M434.288,107.219 C428.358,108.5 424.589,114.347 425.871,120.278 C427.152,126.209 432.999,129.977 438.93,128.696 C444.86,127.415 448.629,121.568 447.348,115.638 C446.066,109.706 440.22,105.937 434.288,107.219" id="Fill-15" fill="#6B97C3"></path>
                <path d="M494.448,128.237 C490.547,124.335 490.547,118.007 494.448,114.105 C497.781,110.772 502.886,110.285 506.735,112.647 L506.736,112.65 C506.949,112.78 507.157,112.917 507.361,113.065 L517.405,119.775 L517.399,119.789 C517.88,120.061 518.329,120.401 518.738,120.81 C521.182,123.255 521.182,127.218 518.738,129.663 C517.489,130.913 515.841,131.524 514.204,131.495 L514.162,131.495 L514.01,131.489 L501.412,131.163 C498.889,131.137 496.373,130.162 494.448,128.237" id="Fill-16" fill="#FFFFFE"></path>
                <path d="M437.747,116.911 C436.991,124.021 442.142,130.399 449.252,131.155 C449.709,131.203 450.164,131.228 450.614,131.23 L450.903,131.226 L450.945,131.224 L494.371,130.64 L494.51,130.64 C498.355,130.589 501.64,127.67 502.057,123.753 C502.473,119.835 499.876,116.29 496.129,115.432 L495.992,115.402 L453.661,105.694 L453.621,105.683 L453.338,105.62 C452.899,105.525 452.448,105.454 451.992,105.406 C444.88,104.649 438.504,109.8 437.747,116.911" id="Fill-17" fill="#D05F72"></path>
                <path d="M445.272,97.21 C442.111,103.625 444.748,111.387 451.163,114.547 C451.575,114.75 451.993,114.93 452.415,115.086 L452.688,115.183 L452.729,115.195 L493.694,129.614 L493.827,129.661 C497.452,130.939 501.543,129.33 503.284,125.796 C505.025,122.262 503.808,118.04 500.587,115.942 L500.468,115.868 L464.077,92.166 L464.042,92.141 L463.8,91.984 C463.419,91.744 463.021,91.522 462.609,91.319 C456.194,88.158 448.433,90.795 445.272,97.21" id="Fill-18" fill="#E39281"></path>
                <path d="M442.23,86.733 L448.338,86.733 C459.994,86.733 469.531,96.269 469.531,107.927 C469.531,119.585 459.994,129.121 448.338,129.121 L442.23,129.121 C430.573,129.121 421.038,119.585 421.038,107.927 C421.038,96.269 430.573,86.733 442.23,86.733" id="Fill-19" fill="#F9CB66"></path>
                <path d="M437.618,99.199 L419.219,99.199 C410.978,99.199 404.238,105.94 404.238,114.18 C404.238,122.421 410.978,129.161 419.219,129.161 L437.618,129.161 C445.858,129.161 452.599,122.421 452.599,114.18 C452.599,105.94 445.858,99.199 437.618,99.199" id="Fill-20" fill="#FFFFFE"></path>
                <path d="M416.896,100.672 L416.896,100.672 C413.708,103.562 413.463,108.533 416.353,111.721 L429.843,126.602 C432.733,129.79 437.704,130.034 440.893,127.144 C444.08,124.254 444.324,119.282 441.434,116.094 L427.945,101.213 C425.055,98.026 420.083,97.782 416.896,100.672" id="Fill-21" fill="#D05F72"></path>
                <polygon id="Fill-22" fill="#293341" points="232.576 487.813 804.001 487.813 804.001 467.167 232.576 467.167"></polygon>
                <path d="M432.412,129.291 L432.412,340.88 C432.412,373.359 405.821,399.952 373.341,399.952 C340.865,399.952 314.275,373.359 314.275,340.88 L314.275,129.291 L432.412,129.291" id="Fill-23" fill="#E5E5E2"></path>
                <path d="M432.412,129.291 L432.412,340.88 C432.412,367.975 413.903,390.967 388.913,397.85 C363.922,390.967 345.419,367.973 345.419,340.88 L345.419,129.291 L432.412,129.291" id="Fill-24" fill="#FFFFFE"></path>
                <path d="M687.134,129.292 L421.23,129.292 L421.23,340.882 C421.23,370.943 400.922,396.491 373.344,404.481 L373.344,407.068 L614.15,407.068 C624.104,407.068 629.796,407.358 640.225,404.185 C667.3,395.884 687.134,370.596 687.134,340.882 L687.134,129.292" id="Fill-25" fill="#293341"></path>
                <path d="M421.229,217.673 L421.229,340.879 C421.229,370.943 400.925,396.49 373.345,404.484 L373.345,407.069 L602.864,407.069 L421.229,217.673" id="Fill-26" fill="#384354"></path>
                <path d="M411.323,375.607 C402.758,389.409 389.264,399.869 373.346,404.484 L373.346,407.069 L602.864,407.069 L572.691,375.607 L411.323,375.607" id="Fill-27" fill="#293341"></path>
                <path d="M439.53,129.292 L414.434,129.292 L414.434,338.221 C414.434,361.115 396.898,381.972 373.344,381.972 C349.789,381.972 332.253,361.115 332.253,338.221 L332.253,129.292 L307.157,129.292 L307.157,340.882 C307.157,377.288 336.937,407.068 373.344,407.068 C409.75,407.068 439.53,377.288 439.53,340.882 L439.53,129.292" id="Fill-28" fill="#485366"></path>
                <path d="M596.357,206.383 L596.354,206.383 C592.073,206.383 588.568,209.886 588.568,214.167 L588.568,275.345 C588.568,279.626 592.073,283.13 596.354,283.13 L596.357,283.13 C600.638,283.13 604.143,279.626 604.143,275.345 L604.143,214.167 C604.143,209.886 600.638,206.383 596.357,206.383" id="Fill-29" fill="#828071"></path>
                <path d="M569.663,224.18 L569.66,224.18 C565.379,224.18 561.874,227.683 561.874,231.966 L561.874,257.548 C561.874,261.83 565.379,265.334 569.66,265.334 L569.663,265.334 C573.944,265.334 577.447,261.83 577.447,257.548 L577.447,231.966 C577.447,227.683 573.944,224.18 569.663,224.18" id="Fill-30" fill="#828071"></path>
                <path d="M726.612,65.988 L726.612,154.818 C726.612,168.454 737.776,179.618 751.411,179.618 C765.046,179.618 776.208,168.453 776.208,154.818 L776.208,65.988 L726.612,65.988" id="Fill-31" fill="#E5E5E2"></path>
                <path d="M726.612,65.988 L726.612,154.818 C726.612,166.194 734.382,175.846 744.874,178.736 C755.366,175.846 763.134,166.192 763.134,154.818 L763.134,65.988 L726.612,65.988" id="Fill-32" fill="#FFFFFE"></path>
                <path d="M619.674,65.988 L731.306,65.988 L731.306,154.818 C731.306,167.439 739.832,178.165 751.41,181.519 L751.41,182.606 L650.314,182.606 C646.134,182.606 643.745,182.727 639.366,181.395 C628,177.91 619.674,167.293 619.674,154.818 L619.674,65.988" id="Fill-33" fill="#293341"></path>
                <path d="M731.307,103.092 L731.307,154.817 C731.307,167.439 739.831,178.165 751.409,181.521 L751.409,182.606 L655.051,182.606 L731.307,103.092" id="Fill-34" fill="#384354"></path>
                <path d="M735.465,169.398 C739.062,175.191 744.727,179.584 751.409,181.521 L751.409,182.606 L655.051,182.606 L667.719,169.398 L735.465,169.398" id="Fill-35" fill="#293341"></path>
                <path d="M723.624,65.988 L734.159,65.988 L734.159,153.702 C734.159,163.314 741.522,172.069 751.41,172.069 C761.299,172.069 768.661,163.314 768.661,153.702 L768.661,65.988 L779.197,65.988 L779.197,154.818 C779.197,170.103 766.695,182.606 751.41,182.606 C736.126,182.606 723.624,170.103 723.624,154.818 L723.624,65.988" id="Fill-36" fill="#485366"></path>
                <path d="M672.018,98.352 L672.02,98.352 C673.818,98.352 675.29,99.823 675.29,101.62 L675.29,127.305 C675.29,129.102 673.818,130.573 672.02,130.573 L672.018,130.573 C670.22,130.573 668.75,129.102 668.75,127.305 L668.75,101.62 C668.75,99.823 670.22,98.352 672.018,98.352" id="Fill-37" fill="#E5E5E2"></path>
                <path d="M683.225,105.824 L683.228,105.824 C685.025,105.824 686.496,107.295 686.496,109.092 L686.496,119.834 C686.496,121.632 685.025,123.102 683.228,123.102 L683.225,123.102 C681.428,123.102 679.957,121.632 679.957,119.834 L679.957,109.092 C679.957,107.295 681.428,105.824 683.225,105.824" id="Fill-38" fill="#E5E5E2"></path>
                <path d="M73.008,456.98 L73.009,456.981 C76.629,459.466 77.556,464.463 75.071,468.081 L60.526,489.261 C58.041,492.88 53.045,493.808 49.426,491.322 L49.423,491.321 C45.805,488.836 44.876,483.84 47.363,480.221 L61.907,459.041 C64.393,455.423 69.389,454.494 73.008,456.98" id="Fill-42" fill="#6D96C2"></path>
                <path d="M78.767,431.259 L76.43,431.323 C69.944,431.503 64.785,436.955 64.963,443.44 L64.963,443.441 C65.143,449.927 70.595,455.086 77.081,454.908 L79.418,454.843 C85.902,454.664 91.062,449.212 90.882,442.727 L90.882,442.724 C90.704,436.24 85.251,431.08 78.767,431.259" id="Fill-43" fill="#293341"></path>
                <path d="M51.514,502.392 C51.592,496.66 56.3,492.074 62.03,492.151 C67.763,492.229 72.349,496.936 72.272,502.667 L71.964,531.202 L71.934,531.834 L71.965,566.468 C71.957,572.182 67.318,576.812 61.604,576.805 C55.89,576.797 51.259,572.159 51.267,566.444 L51.238,531.872 L51.207,530.925 L51.514,502.392" id="Fill-44" fill="#293341"></path>
                <path d="M70.734,487.183 L75.294,487.619 C84.707,488.52 91.669,496.957 90.768,506.369 L90.768,506.37 C89.867,515.782 81.43,522.744 72.018,521.843 L67.458,521.407 C58.045,520.506 51.083,512.069 51.984,502.658 L51.984,502.657 C52.885,493.245 61.322,486.282 70.734,487.183" id="Fill-45" fill="#293341"></path>
                <path d="M69.874,507.308 C70.73,501.651 76.011,497.76 81.669,498.616 C87.326,499.472 91.218,504.752 90.362,510.41 L85.89,539.481 C85.471,542.252 83.987,544.599 81.92,546.173 L60.394,563.258 C55.913,566.811 49.396,566.059 45.844,561.579 C42.292,557.097 43.042,550.581 47.523,547.03 L66.025,532.346 L69.874,507.308" id="Fill-46" fill="#485366"></path>
                <path d="M91.917,437.101 L90.364,437.144 C86.052,437.263 82.623,440.887 82.741,445.199 L82.741,445.2 C82.86,449.512 86.484,452.941 90.796,452.822 L92.35,452.779 C96.662,452.66 100.09,449.036 99.972,444.724 L99.972,444.723 C99.853,440.412 96.23,436.982 91.917,437.101" id="Fill-47" fill="#293341"></path>
                <path d="M86.942,457.146 L86.942,457.146 C96.893,461.125 101.777,472.516 97.799,482.466 L92.326,496.156 C88.348,506.107 76.958,510.992 67.007,507.014 C57.057,503.036 52.172,491.644 56.149,481.694 L61.623,468.003 C65.6,458.053 76.993,453.169 86.942,457.146" id="Fill-48" fill="#86ADD1"></path>
                <path d="M92.367,460.431 C98.516,465.711 100.965,474.544 97.799,482.465 L92.326,496.16 C89.224,503.918 81.611,508.594 73.689,508.392 C67.54,503.112 65.091,494.28 68.256,486.36 L73.73,472.665 C76.832,464.907 84.445,460.227 92.367,460.431" id="Fill-49" fill="#293341"></path>
                <path d="M83.652,427.521 L83.652,427.521 C75.951,427.734 69.825,434.206 70.037,441.908 L70.33,452.506 C70.543,460.207 77.016,466.332 84.717,466.12 C92.418,465.907 98.544,459.435 98.332,451.734 L98.04,441.136 C97.827,433.434 91.352,427.308 83.652,427.521" id="Fill-50" fill="#E39281"></path>
                <path d="M51.553,470.021 L72.207,471.998 C73.58,472.129 74.905,473.389 75.153,474.797 L80.708,506.48 C80.957,507.888 80.034,508.933 78.662,508.802 L58.009,506.825 C56.637,506.694 55.31,505.434 55.063,504.025 L49.506,472.343 C49.259,470.934 50.18,469.89 51.553,470.021" id="Fill-51" fill="#FFFFFE"></path>
                <path d="M85.072,466.104 C92.606,465.708 98.541,459.315 98.332,451.734 L98.04,441.135 C97.912,436.532 95.549,432.493 92.023,430.032 C84.49,430.429 78.555,436.823 78.765,444.403 L79.058,455.003 C79.184,459.605 81.548,463.645 85.072,466.104" id="Fill-52" fill="#D05F72"></path>
                <path d="M85.615,425.318 L82.876,425.394 C75.279,425.603 69.237,431.989 69.445,439.587 C69.655,447.184 76.041,453.229 83.639,453.019 L86.377,452.943 C93.972,452.734 100.017,446.347 99.807,438.75 C99.598,431.152 93.21,425.108 85.615,425.318" id="Fill-53" fill="#293341"></path>
                <path d="M98.699,444.159 L98.697,444.159 C96.157,444.229 94.137,446.363 94.207,448.903 L94.262,450.847 C94.331,453.386 96.465,455.406 99.005,455.335 L99.007,455.335 C101.547,455.266 103.566,453.131 103.497,450.592 L103.442,448.649 C103.372,446.109 101.238,444.09 98.699,444.159" id="Fill-54" fill="#D05F72"></path>
                <path d="M97.815,457.844 L97.817,457.844 C102.42,458.284 105.826,462.412 105.385,467.015 L102.807,493.95 C102.366,498.555 98.24,501.959 93.636,501.518 L93.635,501.518 C89.03,501.078 85.624,496.952 86.066,492.347 L88.643,465.412 C89.084,460.809 93.212,457.403 97.815,457.844" id="Fill-55" fill="#293341"></path>
                <path d="M25.662,469.298 L46.315,471.275 C47.687,471.406 49.014,472.666 49.26,474.075 L54.818,505.757 C55.065,507.166 54.143,508.21 52.771,508.08 L32.117,506.102 C30.744,505.971 29.419,504.711 29.173,503.303 L23.616,471.62 C23.367,470.212 24.29,469.167 25.662,469.298" id="Fill-56" fill="#485366"></path>
                <path d="M49.95,471.623 L70.604,473.601 C71.977,473.732 73.302,474.991 73.55,476.4 L79.107,508.083 C79.354,509.491 78.431,510.536 77.059,510.405 L56.406,508.428 C55.034,508.297 53.708,507.037 53.46,505.627 L47.903,473.945 C47.657,472.537 48.578,471.491 49.95,471.623" id="Fill-57" fill="#293341"></path>
                <path d="M101.257,493.969 L101.257,493.97 C103.081,497.965 101.305,502.725 97.309,504.549 L79.137,512.843 C75.141,514.666 70.381,512.889 68.558,508.894 L68.558,508.893 C66.734,504.899 68.51,500.139 72.506,498.315 L90.678,490.022 C94.674,488.198 99.434,489.974 101.257,493.969" id="Fill-58" fill="#D05F72"></path>
                <path d="M75.575,424.969 L73.239,425.034 C66.753,425.212 61.593,430.666 61.772,437.15 L61.772,437.152 C61.95,443.637 67.403,448.796 73.889,448.617 L76.225,448.553 C82.71,448.373 87.87,442.922 87.691,436.436 L87.691,436.435 C87.512,429.951 82.06,424.791 75.575,424.969" id="Fill-59" fill="#293341"></path>
                <path d="M35.518,491.828 C40.43,492.297 44.028,496.658 43.558,501.568 C43.088,506.478 38.728,510.077 33.818,509.607 C28.907,509.137 25.308,504.776 25.778,499.866 C26.248,494.956 30.608,491.357 35.518,491.828" id="Fill-60" fill="#D05F72"></path>
                <path d="M289.765,263.041 C279.728,261.697 270.502,268.743 269.157,278.78 C267.813,288.819 274.859,298.045 284.897,299.388 C294.934,300.734 304.16,293.688 305.505,283.649 C306.849,273.611 299.802,264.385 289.765,263.041" id="Fill-64" fill="#293341"></path>
                <path d="M286.243,306.073 L299.024,306.073 C308.638,306.073 316.505,313.941 316.505,323.552 L316.505,323.556 C316.505,333.168 308.638,341.035 299.024,341.035 L286.243,341.035 C276.629,341.035 268.765,333.168 268.765,323.556 L268.765,323.552 C268.765,313.941 276.629,306.073 286.243,306.073" id="Fill-71" fill="#6F99C4"></path>
                <path d="M307.506,283.283 L307.508,283.28 C310.28,280.266 315.015,280.068 318.029,282.84 L346.087,308.645 C349.102,311.417 349.299,316.152 346.527,319.166 L346.524,319.168 C343.752,322.182 339.019,322.381 336.003,319.608 L307.946,293.804 C304.932,291.032 304.734,286.296 307.506,283.283" id="Fill-72" fill="#E39281"></path>
                <path d="M346.36,306.672 C352.737,306.672 357.906,311.841 357.906,318.216 C357.906,318.858 357.382,319.381 356.741,319.381 L335.981,319.381 C335.339,319.381 334.816,318.858 334.816,318.216 C334.816,311.841 339.985,306.672 346.36,306.672" id="Fill-73" fill="#D05F72"></path>
                <path d="M290.637,292.01 L300.934,277.183 C303.52,273.461 308.677,272.53 312.4,275.116 C316.122,277.7 317.052,282.86 314.467,286.582 L304.17,301.409 C301.585,305.131 296.426,306.06 292.703,303.476 C288.981,300.891 288.052,295.733 290.637,292.01" id="Fill-74" fill="#D05F72"></path>
                <path d="M300.625,293.79 L316.21,293.79 C320.849,293.79 324.645,297.585 324.645,302.222 C324.645,306.861 320.849,310.656 316.21,310.656 L300.625,310.656 C295.986,310.656 292.192,306.861 292.192,302.222 C292.192,297.585 295.986,293.79 300.625,293.79" id="Fill-76" fill="#86ADD1"></path>
                <path d="M289.559,277.788 L289.561,277.788 C293.656,277.788 297.008,281.139 297.008,285.234 L297.008,323.353 C297.008,327.45 293.656,330.8 289.561,330.8 L289.559,330.8 C285.464,330.8 282.112,327.45 282.112,323.353 L282.112,285.234 C282.112,281.139 285.464,277.788 289.559,277.788" id="Fill-77" fill="#E39281"></path>
                <path d="M285.464,316.748 C291.84,316.748 297.008,321.917 297.008,328.292 C297.008,328.934 296.485,329.457 295.843,329.457 L275.083,329.457 C274.442,329.457 273.919,328.934 273.919,328.292 C273.919,321.917 279.087,316.748 285.464,316.748" id="Fill-78" fill="#E39281"></path>
                <path d="M393.787,328.056 L354.68,328.056 C358.833,321.658 366.039,317.425 374.233,317.425 L404.398,317.425 L404.398,328.056 L393.787,328.056" id="Fill-79" fill="#E5E5E2"></path>
                <path d="M406.41,316.024 C414.808,316.024 422.579,320.267 427.139,327.293 C427.426,327.735 427.446,328.262 427.195,328.725 C426.942,329.189 426.491,329.457 425.964,329.457 L386.856,329.457 C386.33,329.457 385.878,329.189 385.626,328.725 C385.374,328.262 385.394,327.735 385.68,327.293 C390.241,320.267 398.011,316.024 406.41,316.024" id="Fill-80" fill="#293341"></path>
                <path d="M188.284,371.806 L188.284,525.221 C188.284,548.769 169.004,568.051 145.455,568.051 C121.907,568.051 102.629,548.768 102.629,525.221 L102.629,371.806 L188.284,371.806" id="Fill-83" fill="#E5E5E2"></path>
                <path d="M188.284,371.806 L188.284,525.221 C188.284,544.866 174.864,561.537 156.744,566.526 C138.626,561.537 125.21,544.864 125.21,525.221 L125.21,371.806 L188.284,371.806" id="Fill-84" fill="#FFFFFE"></path>
                <path d="M372.972,371.806 L180.177,371.806 L180.177,525.221 C180.177,547.018 165.452,565.542 145.457,571.334 L145.457,573.21 L320.055,573.21 C327.272,573.21 331.399,573.42 338.961,571.119 C358.592,565.102 372.972,546.765 372.972,525.221 L372.972,371.806" id="Fill-85" fill="#293341"></path>
                <path d="M180.176,435.887 L180.176,525.219 C180.176,547.018 165.454,565.541 145.458,571.337 L145.458,573.211 L311.872,573.211 L180.176,435.887" id="Fill-86" fill="#384354"></path>
                <path d="M172.994,550.399 C166.784,560.406 156.999,567.991 145.458,571.337 L145.458,573.211 L311.872,573.211 L289.995,550.399 L172.994,550.399" id="Fill-87" fill="#293341"></path>
                <path d="M193.446,371.806 L175.25,371.806 L175.25,523.292 C175.25,539.892 162.535,555.014 145.457,555.014 C128.378,555.014 115.663,539.892 115.663,523.292 L115.663,371.806 L97.467,371.806 L97.467,525.221 C97.467,551.618 119.06,573.21 145.457,573.21 C171.853,573.21 193.446,551.618 193.446,525.221 L193.446,371.806" id="Fill-88" fill="#485366"></path>
                <path d="M307.154,427.701 L307.154,427.701 C304.047,427.701 301.507,430.241 301.507,433.346 L301.507,477.701 C301.507,480.808 304.047,483.348 307.154,483.348 C310.259,483.348 312.799,480.808 312.799,477.701 L312.799,433.346 C312.799,430.241 310.259,427.701 307.154,427.701" id="Fill-89" fill="#828071"></path>
                <path d="M287.799,440.606 L287.799,440.606 C284.693,440.606 282.152,443.146 282.152,446.251 L282.152,464.799 C282.152,467.904 284.693,470.445 287.799,470.445 C290.903,470.445 293.443,467.904 293.443,464.799 L293.443,446.251 C293.443,443.146 290.903,440.606 287.799,440.606" id="Fill-90" fill="#828071"></path>
                <path d="M566.387,261.968 L772.068,261.968 L772.068,425.635 C772.068,448.888 787.776,468.651 809.109,474.831 L809.109,476.832 L622.842,476.832 C615.142,476.832 610.739,477.055 602.672,474.601 C581.73,468.18 566.387,448.619 566.387,425.635 L566.387,261.968" id="Fill-93" fill="#293341"></path>
                <path d="M772.069,330.331 L772.069,425.634 C772.069,448.888 787.775,468.65 809.108,474.833 L809.108,476.832 L631.571,476.832 L772.069,330.331" id="Fill-94" fill="#384354"></path>
                <path d="M779.731,452.495 C786.356,463.172 796.795,471.263 809.107,474.833 L809.107,476.832 L631.571,476.832 L654.911,452.495 L779.731,452.495" id="Fill-95" fill="#293341"></path>
                <path d="M303.939,328.056 L303.939,441.381 C303.939,458.777 289.697,473.02 272.302,473.02 C254.907,473.02 240.666,458.775 240.666,441.381 L240.666,328.056 L303.939,328.056" id="Fill-97" fill="#E5E5E2"></path>
                <path d="M303.939,328.056 L303.939,441.381 C303.939,455.893 294.026,468.208 280.642,471.893 C267.256,468.208 257.347,455.891 257.347,441.381 L257.347,328.056 L303.939,328.056" id="Fill-98" fill="#FFFFFE"></path>
                <path d="M440.365,328.056 L297.95,328.056 L297.95,441.381 C297.95,457.482 287.074,471.166 272.303,475.445 L272.303,476.831 L401.276,476.831 C406.607,476.831 409.656,476.986 415.241,475.286 C429.743,470.84 440.365,457.295 440.365,441.381 L440.365,328.056" id="Fill-99" fill="#293341"></path>
                <path d="M297.95,375.392 L297.95,441.38 C297.95,457.482 287.075,471.165 272.303,475.447 L272.303,476.831 L395.232,476.831 L297.95,375.392" id="Fill-100" fill="#384354"></path>
                <path d="M292.644,459.98 C288.057,467.373 280.829,472.975 272.303,475.447 L272.303,476.831 L395.232,476.831 L379.071,459.98 L292.644,459.98" id="Fill-101" fill="#293341"></path>
                <path d="M307.751,328.056 L294.31,328.056 L294.31,439.957 C294.31,452.219 284.918,463.39 272.303,463.39 C259.686,463.39 250.294,452.219 250.294,439.957 L250.294,328.056 L236.853,328.056 L236.853,441.381 C236.853,460.88 252.803,476.831 272.303,476.831 C291.802,476.831 307.751,460.88 307.751,441.381 L307.751,328.056" id="Fill-102" fill="#485366"></path>
                <path d="M518.046,476.831 L860.264,476.831 L860.264,492.865 L835.055,492.865 C817.116,492.865 802.386,507.601 802.386,525.539 C802.386,543.474 817.118,558.208 835.055,558.208 L860.264,558.208 L860.264,574.242 L518.046,574.242 C491.259,574.242 469.343,552.326 469.343,525.539 L469.343,525.535 C469.343,498.747 491.259,476.831 518.046,476.831" id="Fill-103" fill="#293341"></path>
                <path d="M811.398,558.208 L811.398,492.865 L518.046,492.865 C500.107,492.865 485.377,507.601 485.377,525.539 C485.377,543.474 500.11,558.208 518.046,558.208 L811.398,558.208" id="Fill-104" fill="#FFFFFE"></path>
                <path d="M266.35,476.831 L608.566,476.831 L608.566,574.242 L266.35,574.242 C239.561,574.242 217.644,552.326 217.644,525.537 C217.644,498.747 239.561,476.831 266.35,476.831" id="Fill-105" fill="#384354"></path>
                <path d="M266.35,476.831 L424.578,476.831 L521.99,574.244 L266.35,574.244 C239.559,574.244 217.645,552.326 217.645,525.536 C217.645,498.747 239.559,476.831 266.35,476.831" id="Fill-106" fill="#485366"></path>
                <path d="M608.566,558.208 L608.566,492.865 L266.348,492.865 C248.409,492.865 233.679,507.601 233.679,525.539 C233.679,543.474 248.412,558.208 266.348,558.208 L608.566,558.208" id="Fill-107" fill="#FFFFFE"></path>
                <path d="M860.264,492.865 L608.566,492.865 C590.628,492.865 575.898,507.601 575.898,525.539 C575.898,543.474 590.631,558.208 608.566,558.208 L860.264,558.208 C842.328,558.208 827.596,543.474 827.596,525.539 C827.596,507.601 842.325,492.865 860.264,492.865" id="Fill-108" fill="#E5E5E2"></path>
                <path d="M41.091,573.212 L899.45,573.212 C903.62,573.212 907.03,576.621 907.03,580.788 L907.03,580.789 C907.03,584.956 903.62,588.365 899.45,588.365 L41.091,588.365 C36.926,588.365 33.518,584.956 33.518,580.789 L33.518,580.788 C33.518,576.621 36.926,573.212 41.091,573.212" id="Fill-109" fill="#293341"></path>
                <path d="M17.466,573.212 L7.881,573.212 C3.714,573.212 0.305,576.621 0.305,580.788 L0.305,580.789 C0.305,584.956 3.714,588.365 7.881,588.365 L17.466,588.365 C21.633,588.365 25.042,584.956 25.042,580.789 L25.042,580.788 C25.042,576.621 21.633,573.212 17.466,573.212" id="Fill-111" fill="#293341"></path>
                <path d="M358.353,391.075 L516.826,391.075 L516.826,476.832 L358.353,476.832 C334.768,476.832 315.475,457.538 315.475,433.953 C315.475,410.369 334.768,391.075 358.353,391.075" id="Fill-112" fill="#384354"></path>
                <path d="M516.826,458.321 L516.826,476.832 L358.352,476.832 C343.802,476.832 330.887,469.487 323.127,458.321 L516.826,458.321" id="Fill-113" fill="#293341"></path>
                <path d="M358.352,391.075 L516.826,391.075 L516.826,404.459 L327.301,404.459 C335.126,396.226 346.165,391.075 358.352,391.075" id="Fill-114" fill="#485366"></path>
                <path d="M519.741,391.075 L678.214,391.075 L678.214,400.91 L674.371,400.91 C656.215,400.91 641.328,415.799 641.328,433.955 C641.328,452.109 656.216,466.997 674.371,466.997 L678.214,466.997 L678.214,476.832 L519.741,476.832 C496.157,476.832 476.862,457.538 476.862,433.955 C476.862,410.368 496.157,391.075 519.741,391.075" id="Fill-115" fill="#293341"></path>
                <path d="M678.214,400.91 L519.741,400.91 C501.584,400.91 486.697,415.799 486.697,433.955 C486.697,452.109 501.585,466.997 519.741,466.997 L678.214,466.997 C660.058,466.997 645.17,452.109 645.17,433.955 C645.17,415.799 660.057,400.91 678.214,400.91" id="Fill-116" fill="#E5E5E2"></path>
                <path d="M377.566,391.075 L388.325,391.075 C364.741,391.075 345.447,410.368 345.447,433.955 C345.447,457.538 364.741,476.832 388.325,476.832 L377.566,476.832 C353.982,476.832 334.689,457.538 334.689,433.955 C334.689,410.368 353.982,391.075 377.566,391.075" id="Fill-117" fill="#293341"></path>
                <path d="M467.109,391.075 L477.867,391.075 C454.283,391.075 434.989,410.368 434.989,433.955 C434.989,457.538 454.283,476.832 477.867,476.832 L467.109,476.832 C443.525,476.832 424.23,457.538 424.23,433.955 C424.23,410.368 443.525,391.075 467.109,391.075" id="Fill-118" fill="#293341"></path>
                <path d="M552.903,182.606 L715.672,182.606 L715.672,270.689 L552.903,270.689 C528.679,270.689 508.861,250.871 508.861,226.648 C508.861,202.424 528.679,182.606 552.903,182.606" id="Fill-119" fill="#384354"></path>
                <path d="M715.672,251.676 L715.672,270.689 L552.901,270.689 C537.956,270.689 524.691,263.144 516.721,251.676 L715.672,251.676" id="Fill-120" fill="#293341"></path>
                <path d="M552.901,182.606 L715.672,182.606 L715.672,196.353 L521.007,196.353 C529.044,187.897 540.384,182.606 552.901,182.606" id="Fill-121" fill="#485366"></path>
                <path d="M718.667,182.606 L881.437,182.606 L881.437,192.708 L877.49,192.708 C858.841,192.708 843.551,208.001 843.551,226.648 C843.551,245.296 858.842,260.587 877.49,260.587 L881.437,260.587 L881.437,270.689 L718.667,270.689 C694.442,270.689 674.626,250.873 674.626,226.648 C674.626,202.423 694.442,182.606 718.667,182.606" id="Fill-122" fill="#293341"></path>
                <path d="M881.437,192.708 L718.667,192.708 C700.017,192.708 684.728,208.001 684.728,226.648 C684.728,245.296 700.018,260.587 718.667,260.587 L881.437,260.587 C862.789,260.587 847.499,245.296 847.499,226.648 C847.499,208.001 862.788,192.708 881.437,192.708" id="Fill-123" fill="#E5E5E2"></path>
                <path d="M354.357,328.056 L315.249,328.056 C319.402,321.658 326.607,317.425 334.803,317.425 L364.967,317.425 L364.967,328.056 L354.357,328.056" id="Fill-140" fill="#FFFFFE"></path>
                <path d="M366.979,316.024 C375.378,316.024 383.149,320.267 387.709,327.293 C387.995,327.735 388.015,328.262 387.764,328.725 C387.512,329.189 387.06,329.457 386.533,329.457 L347.426,329.457 C346.899,329.457 346.447,329.189 346.195,328.725 C345.943,328.262 345.964,327.735 346.249,327.293 C350.809,320.267 358.581,316.024 366.979,316.024" id="Fill-141" fill="#293341"></path>
                <path d="M315.994,253.396 L315.993,253.396 C308.184,252.35 300.94,257.883 299.893,265.693 L298.76,274.163 C297.713,281.972 303.247,289.217 311.055,290.262 L311.056,290.262 C318.865,291.309 326.11,285.775 327.156,277.966 L328.291,269.496 C329.336,261.687 323.802,254.443 315.994,253.396" id="Fill-142" fill="#E39281"></path>
                <path d="M302.321,244.334 C292.741,243.051 283.936,249.775 282.653,259.355 C281.37,268.935 288.094,277.74 297.674,279.023 C307.254,280.305 316.058,273.581 317.342,264.002 C318.625,254.422 311.9,245.616 302.321,244.334" id="Fill-143" fill="#293341"></path>
                <path d="M316.375,251.633 C308.461,250.573 301.188,256.128 300.127,264.042 C299.068,271.955 304.622,279.228 312.536,280.288 C320.449,281.348 327.722,275.793 328.782,267.879 C329.843,259.966 324.288,252.694 316.375,251.633" id="Fill-144" fill="#293341"></path>
                <path d="M301.097,272.646 C298.63,272.315 296.343,274.061 296.012,276.528 L295.979,276.778 C295.649,279.245 297.395,281.531 299.862,281.862 C302.33,282.193 304.617,280.446 304.947,277.979 L304.98,277.73 C305.311,275.262 303.565,272.975 301.097,272.646 L304.947,313.292132" id="Fill-145" fill="#E39281"></path>
                <path d="M42.438,551.233 C45.26,546.422 51.451,544.808 56.263,547.63 C60.373,550.04 62.15,554.91 60.821,559.278 L60.82,559.28 C60.745,559.52 60.664,559.761 60.572,559.997 L56.569,571.531 L56.553,571.53 C56.41,572.069 56.193,572.597 55.896,573.1 C54.128,576.114 50.25,577.125 47.236,575.357 C45.695,574.454 44.678,572.999 44.287,571.39 L44.278,571.347 L44.243,571.199 L41.351,558.791 C40.733,556.317 41.046,553.606 42.438,551.233" id="Fill-161" fill="#485366"></path>
                <path d="M73.094,496.663 C78.004,497.133 81.603,501.494 81.133,506.403 C80.663,511.313 76.302,514.912 71.392,514.442 C66.482,513.972 62.883,509.611 63.353,504.701 C63.823,499.792 68.184,496.193 73.094,496.663" id="Fill-162" fill="#D05F72"></path>
                <path d="M574.901,214.086 L627.928,214.086 C632.827,214.086 636.836,218.095 636.836,222.994 L636.836,222.997 C636.836,227.896 632.827,231.906 627.928,231.906 L574.901,231.906 C570,231.906 565.993,227.896 565.993,222.997 L565.993,222.994 C565.993,218.095 570,214.086 574.901,214.086" id="Fill-163" fill="#E5E5E2"></path>
                <path d="M533.937,214.086 L537.59,214.086 C542.49,214.086 546.499,218.095 546.499,222.994 L546.499,222.997 C546.499,227.896 542.49,231.906 537.59,231.906 L533.937,231.906 C529.037,231.906 525.029,227.896 525.029,222.997 L525.029,222.994 C525.029,218.095 529.037,214.086 533.937,214.086" id="Fill-164" fill="#E5E5E2"></path>
                <path d="M598.376,150.888 L609.937,134.242 C612.838,130.065 618.63,129.021 622.806,131.922 L622.807,131.923 C626.985,134.824 628.029,140.615 625.127,144.792 L613.568,161.437 C610.667,165.615 604.875,166.658 600.698,163.757 L600.697,163.757 C596.521,160.856 595.476,155.064 598.376,150.888" id="Fill-165" fill="#6B97C3"></path>
                <path d="M629.985,159.426 L619.074,159.426 C610.607,159.426 602.909,162.885 597.343,168.452 C591.776,174.019 588.317,181.716 588.317,190.183 L588.317,206.836 L584.837,218.522 L584.853,218.531 C584.625,219.131 584.474,219.768 584.412,220.438 C584.038,224.439 586.984,227.988 590.986,228.362 C593.031,228.551 594.957,227.875 596.403,226.635 L596.442,226.602 L596.571,226.486 L607.604,216.841 C609.845,214.945 611.373,212.204 611.666,209.053 C611.772,207.915 611.707,206.799 611.498,205.729 L611.498,190.183 C611.498,188.112 612.355,186.219 613.733,184.842 C615.11,183.464 617.002,182.609 619.074,182.609 L637.446,182.609 C643.821,182.609 649.034,177.395 649.034,171.018 L649.034,171.015 C649.034,164.638 643.821,159.426 637.446,159.426 L629.985,159.426" id="Fill-166" fill="#F1A863"></path>
                <path d="M624.254,122.683 L624.254,122.683 C613.63,127.719 609.059,140.532 614.094,151.154 L617.98,159.349 C623.016,169.973 635.827,174.544 646.45,169.508 L653.071,166.369 C660.055,163.059 663.058,154.638 659.747,147.652 L652.726,132.84 C647.69,122.219 634.877,117.647 624.254,122.683" id="Fill-167" fill="#86ADD1"></path>
                <path d="M645.507,159.426 L634.596,159.426 C626.128,159.426 618.431,162.885 612.865,168.452 C607.298,174.019 603.839,181.716 603.839,190.183 L603.839,207.676 L600.61,218.522 C600.396,219.131 600.246,219.768 600.185,220.438 C599.81,224.439 602.756,227.988 606.758,228.362 C608.803,228.551 610.728,227.875 612.174,226.635 L612.343,226.486 L623.377,216.841 C625.616,214.945 627.144,212.204 627.438,209.053 C627.579,207.544 627.423,206.074 627.021,204.703 L627.021,190.183 C627.021,188.112 627.877,186.219 629.254,184.842 C630.632,183.464 632.524,182.609 634.596,182.609 L652.968,182.609 C659.343,182.609 664.556,177.395 664.556,171.018 C664.556,164.638 659.343,159.426 652.968,159.426 L645.507,159.426 L590,159.426" id="Fill-168" fill="#F9CB66"></path>
                <path d="M665.289,150.888 L653.728,134.242 C650.827,130.065 645.035,129.021 640.859,131.922 L640.857,131.923 C636.68,134.824 635.636,140.615 638.537,144.792 L650.098,161.437 C652.999,165.615 658.791,166.658 662.967,163.757 L662.968,163.757 C667.145,160.856 668.19,155.064 665.289,150.888" id="Fill-171" fill="#6B97C3"></path>
                <path d="M623.976,138.988 C618.766,138.988 615.246,143.212 616.112,148.42 C616.978,153.629 621.905,157.852 627.114,157.852 C632.322,157.852 635.843,153.629 634.976,148.42 C634.109,143.212 629.184,138.988 623.976,138.988" id="Fill-172" fill="#6B97C3"></path>
                <path d="M626.895,144.1 L621.233,144.1 C620.28,144.1 619.745,144.879 620.043,145.832 L620.043,145.835 C620.343,146.788 621.368,147.569 622.322,147.569 L627.983,147.569 C628.937,147.569 629.472,146.788 629.172,145.835 L629.172,145.832 C628.873,144.879 627.848,144.1 626.895,144.1" id="Fill-173" fill="#FFFFFE"></path>
                <path d="M626.336,149.302 L625.056,149.302 C624.102,149.302 623.567,150.082 623.867,151.035 L623.867,151.038 C624.166,151.991 625.19,152.772 626.144,152.772 L627.423,152.772 C628.378,152.772 628.913,151.991 628.614,151.038 L628.613,151.035 C628.314,150.082 627.29,149.302 626.336,149.302" id="Fill-174" fill="#FFFFFE"></path>
                <path d="M615.616,93.321 L615.614,93.322 C606.475,94.457 599.927,102.863 601.063,112.002 L601.923,118.928 C603.059,128.067 611.465,134.615 620.605,133.48 L620.607,133.48 C629.746,132.343 636.293,123.938 635.158,114.798 L634.297,107.872 C633.161,98.734 624.755,92.186 615.616,93.321" id="Fill-175" fill="#E39281"></path>
                <path d="M624.773,132.402 C631.644,129.635 636.111,122.474 635.158,114.797 L634.297,107.873 C633.344,100.197 627.259,94.347 619.92,93.345 C613.048,96.113 608.58,103.274 609.534,110.951 L610.394,117.875 C611.348,125.551 617.433,131.401 624.773,132.402" id="Fill-176" fill="#D05F72"></path>
                <path d="M631.014,111.517 L631.016,111.546 C631.134,112.968 632.25,114.152 633.722,114.304 C635.193,114.457 636.528,113.528 636.937,112.16 L636.945,112.132 L639.673,102.99 C639.783,102.659 639.861,102.31 639.899,101.947 C640.177,99.274 638.233,96.881 635.558,96.603 C632.885,96.325 630.492,98.268 630.214,100.943 C630.176,101.305 630.18,101.663 630.22,102.01 L631.014,111.517" id="Fill-177" fill="#F9CB66"></path>
                <path d="M639.435,108.017 L639.435,108.017 C637.116,107.192 634.545,108.41 633.718,110.728 L632.303,114.7 C631.477,117.017 632.697,119.588 635.014,120.415 C637.331,121.242 639.904,120.022 640.729,117.705 L642.146,113.734 C642.972,111.415 641.752,108.844 639.435,108.017" id="Fill-178" fill="#D05F72"></path>
                <path d="M612.436,125.176 L612.438,125.175 C616.76,124.071 621.201,126.702 622.306,131.024 L623.548,135.884 C624.652,140.206 622.021,144.645 617.699,145.751 L617.696,145.751 C613.374,146.857 608.934,144.224 607.83,139.902 L606.587,135.043 C605.482,130.72 608.113,126.281 612.436,125.176" id="Fill-179" fill="#F9CB66"></path>
                <path d="M605.135,124.059 L629.779,124.059 C631.416,124.059 633.124,125.398 633.577,127.037 L643.732,163.867 C644.184,165.504 643.214,166.843 641.576,166.843 L616.931,166.843 C615.292,166.843 613.584,165.504 613.133,163.867 L602.977,127.037 C602.526,125.398 603.494,124.059 605.135,124.059" id="Fill-180" fill="#FFFFFE"></path>
                <path d="M574.44,126.135 L599.085,126.135 C600.722,126.135 602.43,127.475 602.882,129.113 L613.037,165.943 C613.49,167.58 612.52,168.919 610.882,168.919 L586.237,168.919 C584.598,168.919 582.89,167.58 582.439,165.943 L572.282,129.113 C571.831,127.475 572.8,126.135 574.44,126.135" id="Fill-181" fill="#485366"></path>
                <path d="M603.421,126.135 L628.065,126.135 C629.703,126.135 631.412,127.475 631.863,129.113 L642.019,165.943 C642.47,167.58 641.5,168.919 639.864,168.919 L615.219,168.919 C613.578,168.919 611.871,167.58 611.419,165.943 L601.263,129.113 C600.812,127.475 601.781,126.135 603.421,126.135" id="Fill-182" fill="#293341"></path>
                <path d="M638.932,166.889 L659.197,166.889 C664.283,166.889 668.445,162.727 668.445,157.642 L668.445,157.64 C668.445,152.555 664.283,148.393 659.197,148.393 L638.932,148.393 C633.846,148.393 629.685,152.555 629.685,157.64 L629.685,157.642 C629.685,162.727 633.846,166.889 638.932,166.889" id="Fill-183" fill="#E39281"></path>
                <path d="M634.597,171.175 C641.068,171.175 646.347,165.897 646.347,159.426 C646.347,152.954 641.068,147.676 634.597,147.676 C628.126,147.676 622.848,152.954 622.848,159.426 C622.848,165.897 628.126,171.175 634.597,171.175" id="Fill-184" fill="#E39281"></path>
                <path d="M586.255,171.175 C592.726,171.175 598.004,165.897 598.004,159.426 C598.004,152.954 592.726,147.676 586.255,147.676 C579.784,147.676 574.505,152.954 574.505,159.426 C574.505,165.897 579.784,171.175 586.255,171.175" id="Fill-185" fill="#D05F72"></path>
                <path d="M734.44,337.16 L734.433,337.188 C734.057,338.57 734.702,340.069 736.037,340.719 C737.373,341.368 738.951,340.952 739.806,339.802 L739.824,339.779 L745.538,332.093 C745.757,331.818 745.949,331.516 746.109,331.186 C747.289,328.759 746.279,325.835 743.852,324.655 C741.425,323.473 738.501,324.483 737.32,326.912 C737.159,327.24 737.041,327.578 736.958,327.92 L734.44,337.16" id="Fill-192" fill="#293341"></path>
                <polygon id="Fill-204" fill="#293341" points="652.855 398.296 681.989 398.296 681.989 391.074 652.855 391.074"></polygon>
                <path d="M606.372,87.083 L624.581,87.083 C629.688,87.083 633.866,91.261 633.866,96.366 L633.866,96.369 C633.866,101.474 629.688,105.652 624.581,105.652 L606.372,105.652 C601.268,105.652 597.089,101.474 597.089,96.369 L597.089,96.366 C597.089,91.261 601.268,87.083 606.372,87.083" id="Fill-226" fill="#F9CB66"></path>
                <path d="M603.171,81.608 L605.21,81.608 C611.821,81.608 617.231,87.017 617.231,93.63 L617.231,93.633 C617.231,100.242 611.821,105.652 605.21,105.652 L603.171,105.652 C596.558,105.652 591.149,100.242 591.149,93.633 L591.149,93.63 C591.149,87.017 596.558,81.608 603.171,81.608" id="Fill-227" fill="#F9CB66"></path>
                <path d="M406.664,62.074 C414.597,62.688 420.53,69.616 419.916,77.55 C419.301,85.483 412.374,91.416 404.441,90.802 C396.506,90.188 390.574,83.26 391.188,75.327 C391.802,67.393 398.73,61.46 406.664,62.074" id="Fill-246" fill="#293341"></path>
                <path d="M412.412,64.632 L412.413,64.632 C420.787,65.28 427.107,72.662 426.46,81.036 L425.756,90.119 C425.109,98.493 417.727,104.814 409.353,104.166 L409.352,104.166 C400.978,103.517 394.657,96.137 395.305,87.763 L396.008,78.679 C396.656,70.305 404.038,63.983 412.412,64.632" id="Fill-247" fill="#E39281"></path>
                <path d="M417.788,66.072 C423.318,68.718 426.958,74.581 426.459,81.036 L425.757,90.119 C425.15,97.967 418.626,104.015 410.911,104.207 C405.38,101.558 401.74,95.694 402.239,89.244 L402.941,80.159 C403.548,72.31 410.072,66.263 417.788,66.072" id="Fill-248" fill="#D05F72"></path>
                <path d="M431.169,56.228 C441.443,57.023 449.124,65.994 448.329,76.267 C447.535,86.54 438.564,94.222 428.291,93.427 C418.018,92.632 410.336,83.66 411.131,73.388 C411.926,63.115 420.897,55.433 431.169,56.228" id="Fill-249" fill="#293341"></path>
                <path d="M412.407,62.709 C420.893,63.366 427.24,70.776 426.583,79.262 C425.926,87.748 418.516,94.095 410.03,93.438 C401.543,92.781 395.198,85.371 395.854,76.885 C396.511,68.398 403.922,62.052 412.407,62.709" id="Fill-250" fill="#293341"></path>
                <path d="M422.136,87.628 L422.137,87.628 C424.783,87.832 426.778,90.161 426.573,92.807 L426.552,93.075 C426.348,95.721 424.019,97.716 421.373,97.51 L421.372,97.51 C418.726,97.306 416.731,94.977 416.936,92.331 L416.957,92.063 C417.161,89.417 419.492,87.423 422.136,87.628" id="Fill-251" fill="#D05F72"></path>
                <path d="M421.445,91.572 C415.514,92.853 411.745,98.7 413.026,104.631 C414.308,110.562 420.156,114.331 426.086,113.05 C432.017,111.768 435.786,105.921 434.505,99.99 C433.223,94.059 427.377,90.29 421.445,91.572" id="Fill-252" fill="#E39281"></path>
                <g id="Group-4" transform="translate(408.000000, 301.000000)">
                    <path d="M32.518,62.07 L49.708,48.663 C54.022,45.298 60.302,46.075 63.667,50.39 L63.669,50.391 C67.035,54.706 66.257,60.987 61.943,64.352 L44.753,77.759 C40.439,81.123 34.157,80.347 30.792,76.033 L30.792,76.031 C27.425,71.716 28.203,65.435 32.518,62.07" id="Fill-169" fill="#F1A863"></path>
                    <path d="M32.517,62.07 C36.832,58.705 43.112,59.482 46.477,63.797 C49.844,68.114 49.067,74.394 44.752,77.759 L27.9167542,90.0540092 C22.963512,90.0540092 20.6219044,90.0540092 13.602,89.439 C10.235,85.124 11.012,78.843 15.328,75.477 L32.517,62.07 Z" id="Fill-170" fill="#D05F72"></path>
                    <path d="M35.214,158.02 L57.325,103.331 C59.699,97.458 66.444,94.595 72.318,96.97 C78.192,99.344 81.054,106.092 78.679,111.966 L56.569,166.654 C54.194,172.528 47.446,175.389 41.572,173.015 C35.699,170.64 32.838,163.894 35.214,158.02" id="Fill-186" fill="#385A91"></path>
                    <path d="M39.501,156.888 C30.496,156.888 23.195,164.19 23.195,173.195 C23.195,174.526 24.283,175.614 25.614,175.614 L53.388,175.614 C54.721,175.614 55.807,174.526 55.807,173.195 C55.807,164.19 48.506,156.888 39.501,156.888" id="Fill-187" fill="#385A91"></path>
                    <path d="M78.412,75.162 L78.41,75.162 C67.883,74.309 58.573,82.223 57.72,92.75 L57.06,100.873 C56.207,111.398 64.121,120.709 74.647,121.562 L81.206,122.094 C88.128,122.656 94.247,117.453 94.809,110.531 L95.999,95.854 C96.853,85.327 88.938,76.016 78.412,75.162" id="Fill-188" fill="#497BB1"></path>
                    <path d="M69.156,160.308 L76.359,101.759 C77.133,95.471 82.907,90.961 89.196,91.734 C95.484,92.508 99.996,98.284 99.221,104.573 L92.019,163.12 C91.245,169.409 85.468,173.919 79.18,173.145 C72.892,172.372 68.382,166.596 69.156,160.308" id="Fill-189" fill="#497BB1"></path>
                    <path d="M82.263,158.928 C74.24,158.928 67.733,165.434 67.733,173.458 C67.733,174.645 68.702,175.614 69.888,175.614 L94.637,175.614 C95.824,175.614 96.792,174.645 96.792,173.458 C96.792,165.434 90.287,158.928 82.263,158.928" id="Fill-190" fill="#6498C4"></path>
                    <path d="M15.271,73.388 C7.246,73.388 0.741,79.895 0.741,87.918 C0.741,89.105 1.709,90.074 2.896,90.074 L27.644,90.074 C28.831,90.074 29.8,89.105 29.8,87.918 C29.8,79.895 23.294,73.388 15.271,73.388" id="Fill-191" fill="#E39281"></path>
                    <path d="M71.252,28.787 L71.255,28.787 C76.602,29.097 80.777,33.726 80.536,39.076 L79.551,61.044 C79.311,66.394 74.742,70.516 69.397,70.207 L69.393,70.207 C64.048,69.897 59.872,65.268 60.112,59.918 L61.097,37.951 C61.338,32.6 65.907,28.478 71.252,28.787" id="Fill-193" fill="#D05F72"></path>
                    <path d="M81.99,13.895 L81.991,13.895 C91.002,15.965 96.68,25.027 94.611,34.039 L93.044,40.867 C90.974,49.877 81.909,55.555 72.899,53.486 L72.898,53.486 C63.886,51.416 58.208,42.354 60.278,33.342 L61.846,26.514 C63.915,17.503 72.978,11.826 81.99,13.895" id="Fill-194" fill="#D05F72"></path>
                    <path d="M68.848,51.983 C62.269,48.517 58.54,40.909 60.278,33.341 L61.846,26.515 C63.584,18.947 70.258,13.729 77.689,13.48 C84.268,16.946 87.998,24.553 86.259,32.122 L84.692,38.947 C82.955,46.516 76.279,51.734 68.848,51.983" id="Fill-195" fill="#E39281"></path>
                    <path d="M71.27,5.871 L71.271,5.871 C74.997,6.727 77.342,10.472 76.487,14.197 L74.923,21.009 C74.067,24.734 70.322,27.081 66.597,26.226 L66.595,26.225 C62.87,25.37 60.525,21.624 61.38,17.899 L62.943,11.087 C63.799,7.362 67.545,5.016 71.27,5.871" id="Fill-196" fill="#485366"></path>
                    <path d="M64.242,30.642 L64.235,30.673 C63.955,32.169 62.641,33.304 61.062,33.307 C59.484,33.308 58.167,32.177 57.882,30.681 L57.877,30.65 L55.974,20.646 C55.893,20.282 55.849,19.903 55.849,19.515 C55.845,16.645 58.168,14.316 61.038,14.312 C63.907,14.309 66.237,16.632 66.241,19.502 C66.241,19.89 66.199,20.27 66.118,20.633 L64.242,30.642" id="Fill-197" fill="#485366"></path>
                    <path d="M94.44,12.386 L94.441,12.386 C97.605,13.112 99.598,16.293 98.871,19.456 L97.542,25.242 C96.816,28.405 93.635,30.399 90.471,29.671 C87.307,28.944 85.314,25.764 86.041,22.601 L87.37,16.815 C88.096,13.652 91.277,11.659 94.44,12.386" id="Fill-198" fill="#293341"></path>
                    <path d="M86.686,0.393 L86.689,0.394 C92.585,1.747 96.3,7.679 94.947,13.575 L93.424,20.203 C92.071,26.1 86.14,29.815 80.244,28.46 L80.241,28.46 C74.344,27.106 70.63,21.175 71.984,15.28 L73.506,8.651 C74.859,2.755 80.79,-0.961 86.686,0.393" id="Fill-199" fill="#485366"></path>
                    <path d="M63.41,55.003 L63.41,55.003 C50.809,59.273 43.995,73.072 48.265,85.671 L51.557,95.39 C55.827,107.987 69.626,114.802 82.225,110.533 L90.073,107.873 C98.357,105.066 102.836,95.996 100.03,87.713 L94.077,70.146 C89.807,57.547 76.009,50.734 63.41,55.003" id="Fill-200" fill="#F1A863"></path>
                    <path d="M86.121,58.927 C81.414,55.238 75.409,53.333 69.3,53.799 C68.531,53.954 67.762,54.158 67,54.416 L67,54.415 C57.333,57.69 52.106,68.278 55.38,77.945 L57.908,85.401 C61.185,95.07 71.77,100.296 81.437,97.02 L87.459,94.981 C93.814,92.826 97.251,85.868 95.098,79.512 L90.53,66.034 C89.594,63.27 88.061,60.87 86.121,58.927" id="Fill-201" fill="#F9CB66"></path>
                    <path d="M99.442,104.821 L88.139,86.18 C85.302,81.501 86.809,75.355 91.487,72.518 L91.489,72.516 C96.168,69.68 102.314,71.186 105.151,75.864 L116.454,94.505 C119.291,99.184 117.785,105.331 113.106,108.168 L113.105,108.169 C108.425,111.006 102.279,109.499 99.442,104.821" id="Fill-203" fill="#ED996F"></path>
                    <path d="M98.218,47.698 L73.573,47.698 C71.935,47.698 70.227,49.037 69.776,50.676 L59.62,87.506 C59.169,89.143 60.137,90.482 61.775,90.482 L86.42,90.482 C88.059,90.482 89.767,89.143 90.22,87.506 L100.375,50.676 C100.827,49.037 99.857,47.698 98.218,47.698" id="Fill-205" fill="#FFFFFE"></path>
                    <path d="M99.931,49.774 L75.286,49.774 C73.649,49.774 71.941,51.114 71.489,52.752 L61.334,89.582 C60.881,91.219 61.851,92.559 63.489,92.559 L88.134,92.559 C89.773,92.559 91.481,91.219 91.932,89.582 L102.089,52.752 C102.54,51.114 101.571,49.774 99.931,49.774" id="Fill-207" fill="#485366"></path>
                    <path d="M108.835,110.438 C114.989,110.438 120.007,105.42 120.007,99.266 C120.007,93.113 114.989,88.094 108.835,88.094 C102.682,88.094 97.663,93.113 97.663,99.266 C97.663,105.42 102.682,110.438 108.835,110.438" id="Fill-208" fill="#D05F72"></path>
                    <path d="M59.001,39.374 C62.751,39.374 65.81,36.316 65.81,32.566 C65.81,28.816 62.751,25.757 59.001,25.757 C55.251,25.757 52.192,28.816 52.192,32.566 C52.192,36.316 55.251,39.374 59.001,39.374" id="Fill-253" fill="#E39281"></path>
                    <path d="M128.913,49.774 L104.268,49.774 C102.629,49.774 100.922,51.114 100.471,52.752 L90.314,89.582 C89.863,91.219 90.832,92.559 92.47,92.559 L117.114,92.559 C118.754,92.559 120.462,91.219 120.914,89.582 L131.069,52.752 C131.521,51.114 130.552,49.774 128.913,49.774" id="Fill-206" fill="#293341"></path>
                </g>
                <path d="M386.179,96.486 L403.858,96.486 C405.034,96.486 406.261,97.446 406.585,98.622 L413.871,125.046 C414.196,126.222 413.499,127.183 412.323,127.183 L394.643,127.183 C393.469,127.183 392.241,126.222 391.918,125.046 L384.63,98.622 C384.307,97.446 385.004,96.486 386.179,96.486" id="Fill-254" fill="#FFFFFE"></path>
                <path d="M364.156,97.975 L381.837,97.975 C383.012,97.975 384.238,98.937 384.563,100.111 L391.849,126.536 C392.173,127.711 391.476,128.672 390.301,128.672 L372.621,128.672 C371.446,128.672 370.219,127.711 369.895,126.536 L362.609,100.111 C362.284,98.937 362.982,97.975 364.156,97.975" id="Fill-255" fill="#485366"></path>
                <path d="M384.949,97.975 L402.63,97.975 C403.804,97.975 405.031,98.937 405.355,100.111 L412.643,126.536 C412.966,127.711 412.269,128.672 411.094,128.672 L393.414,128.672 C392.239,128.672 391.012,127.711 390.688,126.536 L383.402,100.111 C383.077,98.937 383.774,97.975 384.949,97.975" id="Fill-256" fill="#293341"></path>
                <path d="M377.214,88.191 C371.283,89.473 367.514,95.319 368.795,101.251 C370.077,107.181 375.923,110.951 381.855,109.67 C387.786,108.388 391.555,102.54 390.274,96.61 C388.992,90.679 383.144,86.91 377.214,88.191" id="Fill-257" fill="#E39281"></path>
                <path d="M407.24,425.044 C412.142,425.044 416.15,429.054 416.15,433.953 C416.15,438.856 412.142,442.865 407.24,442.865 L370.417,442.865 C365.516,442.865 361.508,438.856 361.508,433.957 C361.508,429.054 365.516,425.044 370.417,425.044 L407.24,425.044 Z" id="Fill-258" fill="#E5E5E2"></path>
                <path d="M406.222,43.11 L414.607,43.11 C416.351,43.11 417.778,44.537 417.778,46.281 C417.778,48.027 416.351,49.453 414.607,49.453 L406.222,49.453 C404.478,49.453 403.051,48.027 403.051,46.281 C403.051,44.537 404.478,43.11 406.222,43.11" id="Fill-259" fill="#FFFFFE"></path>
                <path d="M406.222,32.689 L425.254,32.689 C427,32.689 428.427,34.115 428.427,35.86 C428.427,37.606 427,39.031 425.254,39.031 L406.222,39.031 C404.478,39.031 403.051,37.606 403.051,35.86 C403.051,34.115 404.478,32.689 406.222,32.689" id="Fill-260" fill="#FFFFFE"></path>
                <g id="Group-5" transform="translate(22.000000, 422.000000)" fill="#FFFFFE">
                    <path d="M22.222,21.403 L15.877,21.403 C14.132,21.403 12.705,22.83 12.705,24.574 C12.705,26.32 14.132,27.746 15.877,27.746 L22.222,27.746 C23.966,27.746 25.393,26.32 25.393,24.574 C25.393,22.83 23.966,21.403 22.222,21.403" id="Fill-264" transform="translate(19.049000, 24.574500) scale(-1, 1) translate(-19.049000, -24.574500) "></path>
                    <path d="M22.222,10.982 L3.189,10.982 C1.444,10.982 0.017,12.408 0.017,14.153 C0.017,15.899 1.444,17.324 3.189,17.324 L22.222,17.324 C23.966,17.324 25.393,15.899 25.393,14.153 C25.393,12.408 23.966,10.982 22.222,10.982" id="Fill-265" transform="translate(12.705000, 14.153000) scale(-1, 1) translate(-12.705000, -14.153000) "></path>
                    <path d="M22.222,0.56 L3.189,0.56 C1.444,0.56 0.017,1.987 0.017,3.732 C0.017,5.477 1.444,6.903 3.189,6.903 L22.222,6.903 C23.966,6.903 25.393,5.477 25.393,3.732 C25.393,1.987 23.966,0.56 22.222,0.56" id="Fill-266" transform="translate(12.705000, 3.731500) scale(-1, 1) translate(-12.705000, -3.731500) "></path>
                </g>
                <g id="Group-3" transform="translate(627.000000, 297.000000)">
                    <path d="M83.259,67.723 L99.14,67.723 C106.385,67.723 112.312,73.65 112.312,80.895 L112.312,80.896 C112.312,88.141 106.385,94.068 99.14,94.068 L83.259,94.068 C76.015,94.068 70.089,88.141 70.089,80.896 L70.089,80.895 C70.089,73.65 76.015,67.723 83.259,67.723" id="Fill-131" fill="#293341"></path>
                    <path d="M23.2616493,93.8312001 C20.7681219,93.8312001 17.9772792,93.8312001 12.3332656,93.8312001 C12.0762656,93.6412001 6.26995489,94.0412001 6.02895489,93.8312001 L4.163,92.244 C3.595,91.83 3.064,91.351 2.591,90.79 C-0.229,87.436 0.203,82.426 3.558,79.605 C5.273,78.163 7.421,77.571 9.486,77.786 L9.731,77.814 L25.611,79.602 C28.796,79.911 31.867,81.418 34.089,84.06 C38.592,89.415 34.0405339,93.8312001 23.2616493,93.8312001 Z" id="Fill-81" fill="#497BB1"></path>
                    <path d="M65.153,68.615 C72.091,66.529 79.474,70.498 81.559,77.436 C83.647,84.376 79.677,91.759 72.739,93.844 L55.0336078,93.844 C46.7492048,93.844 29.0325346,93.844 22.4336299,93.844 C20.3476299,86.905 24.014,80.985 30.952,78.899 L65.153,68.615 Z" id="Fill-82" fill="#497BB1"></path>
                    <path d="M120.231,38.222 L120.232,38.222 C129.471,43.557 132.664,55.478 127.331,64.715 L117.564,81.632 C112.23,90.871 100.309,94.066 91.071,88.73 L91.07,88.73 C81.831,83.396 78.636,71.476 83.97,62.237 L93.738,45.32 C99.071,36.082 110.993,32.888 120.231,38.222" id="Fill-124" fill="#F9CB66"></path>
                    <path d="M112.312,10.621 L112.312,10.621 C121.269,10.621 128.597,17.948 128.597,26.906 L128.597,30.752 C128.597,39.71 121.269,47.037 112.312,47.037 C103.354,47.037 96.026,39.71 96.026,30.752 L96.026,26.906 C96.026,17.948 103.354,10.621 112.312,10.621" id="Fill-125" fill="#E39281"></path>
                    <path d="M116.144,11.08 C123.268,12.816 128.597,19.269 128.597,26.906 L128.597,30.752 C128.597,38.388 123.268,44.841 116.144,46.577 C109.02,44.841 103.691,38.388 103.691,30.752 L103.691,26.906 C103.691,19.269 109.02,12.816 116.144,11.08" id="Fill-126" fill="#D05F72"></path>
                    <path d="M99.636,6.365 L113.999,6.365 C119.007,6.365 123.102,10.461 123.102,15.468 C123.102,20.476 119.007,24.573 113.999,24.573 L99.636,24.573 C94.629,24.573 90.532,20.476 90.532,15.468 C90.532,10.461 94.629,6.365 99.636,6.365" id="Fill-127" fill="#475366"></path>
                    <path d="M123.968,11.177 L123.968,11.177 C128.447,11.177 132.111,14.84 132.111,19.32 L132.111,21.242 C132.111,25.721 128.447,29.385 123.968,29.385 C119.489,29.385 115.826,25.721 115.826,21.242 L115.826,19.32 C115.826,14.84 119.489,11.177 123.968,11.177" id="Fill-128" fill="#475366"></path>
                    <path d="M126.337,23.628 L126.339,23.628 C130.345,23.628 133.621,26.903 133.621,30.911 L133.621,32.63 C133.621,36.637 130.345,39.912 126.339,39.912 L126.337,39.912 C122.331,39.912 119.055,36.637 119.055,32.63 L119.055,30.911 C119.055,26.903 122.331,23.628 126.337,23.628" id="Fill-129" fill="#D05F72"></path>
                    <path d="M100.442,0.79 L105.108,0.79 C111.648,0.79 116.999,6.141 116.999,12.682 L116.999,12.683 C116.999,19.222 111.648,24.573 105.108,24.573 L100.442,24.573 C93.902,24.573 88.552,19.222 88.552,12.683 L88.552,12.682 C88.552,6.141 93.902,0.79 100.442,0.79" id="Fill-130" fill="#475366"></path>
                    <path d="M123.323,41.543 L123.323,41.543 C128.961,41.543 133.573,46.155 133.573,51.793 L133.573,76.733 C133.573,82.37 128.961,86.981 123.323,86.981 C117.686,86.981 113.074,82.37 113.074,76.733 L113.074,51.793 C113.074,46.155 117.686,41.543 123.323,41.543" id="Fill-132" fill="#F9CB66"></path>
                    <path d="M57.985,33.34 L79.779,33.34 C81.23,33.34 82.741,34.525 83.14,35.973 L92.121,68.547 C92.52,69.994 91.664,71.179 90.214,71.179 L68.419,71.179 C66.969,71.179 65.459,69.994 65.059,68.547 L56.077,35.973 C55.678,34.525 56.536,33.34 57.985,33.34" id="Fill-133" fill="#FFFFFE"></path>
                    <path d="M84.48,33.34 L106.275,33.34 C107.724,33.34 109.235,34.525 109.636,35.973 L118.616,68.547 C119.016,69.994 118.159,71.179 116.709,71.179 L94.914,71.179 C93.465,71.179 91.954,69.994 91.555,68.547 L82.573,35.973 C82.174,34.525 83.031,33.34 84.48,33.34" id="Fill-134" fill="#FFFFFE"></path>
                    <path d="M56.4,35.152 L78.193,35.152 C79.644,35.152 81.154,36.337 81.554,37.785 L90.536,70.359 C90.935,71.806 90.078,72.991 88.627,72.991 L66.834,72.991 C65.383,72.991 63.872,71.806 63.473,70.359 L54.491,37.785 C54.092,36.337 54.949,35.152 56.4,35.152" id="Fill-135" fill="#475366"></path>
                    <path d="M67.902,56.574 C67.902,51.033 63.384,46.516 57.844,46.516 C52.305,46.516 47.786,51.033 47.786,56.574 C47.786,62.113 52.305,66.632 57.844,66.632 C63.384,66.632 67.902,62.113 67.902,56.574 Z" id="Fill-136" fill="#E39281"></path>
                    <path d="M82.895,35.152 L104.689,35.152 C106.139,35.152 107.65,36.337 108.049,37.785 L117.031,70.359 C117.431,71.806 116.573,72.991 115.123,72.991 L93.329,72.991 C91.879,72.991 90.368,71.806 89.969,70.359 L80.987,37.785 C80.587,36.337 81.445,35.152 82.895,35.152" id="Fill-138" fill="#293341"></path>
                    <path d="M109.038,19.972 C106.857,22.767 103.462,24.572 99.662,24.572 L94.997,24.572 C88.456,24.572 83.106,19.224 83.106,12.68 C83.106,8.688 85.098,5.14 88.138,2.981 C86.564,4.996 85.625,7.531 85.625,10.272 C85.625,16.815 90.974,22.162 97.515,22.162 L102.181,22.162 C104.729,22.162 107.097,21.351 109.038,19.972" id="Fill-139" fill="#475366"></path>
                    <path d="M77.562,67.723 L104.269,67.723 C111.514,67.723 117.44,73.65 117.44,80.895 L117.44,80.896 C117.44,88.141 111.514,94.068 104.269,94.068 L77.562,94.068 C70.317,94.068 64.39,88.141 64.39,80.896 L64.39,80.895 C64.39,73.65 70.317,67.723 77.562,67.723" id="Fill-267" fill="#497BB1"></path>
                    <path d="M57.999,103.029 L64.912,77.231 C66.786,70.234 74.045,66.043 81.043,67.918 L81.046,67.918 C88.044,69.794 92.234,77.053 90.36,84.05 L83.447,109.847 C81.572,116.845 74.314,121.036 67.315,119.161 L67.313,119.16 C60.315,117.286 56.125,110.027 57.999,103.029" id="Fill-268" fill="#86ADD1"></path>
                    <path d="M69.79,98.753 C76.787,98.753 82.462,104.429 82.462,111.425 C82.462,117.403 78.321,122.416 72.752,123.749 L72.749,123.749 C72.442,123.822 72.129,123.886 71.815,123.937 L56.794,126.926 L56.785,126.907 C56.112,127.094 55.403,127.193 54.671,127.193 C50.286,127.193 46.731,123.638 46.731,119.255 C46.731,117.013 47.661,114.99 49.154,113.546 L49.194,113.508 L49.333,113.378 L60.922,102.374 C63.207,100.134 66.339,98.753 69.79,98.753" id="Fill-269" fill="#86ADD1"></path>
                    <path d="M117.731,84.39 C123.778,84.39 128.71,79.458 128.71,73.41 C128.71,67.363 123.778,62.431 117.731,62.431 C111.684,62.431 106.751,67.363 106.751,73.41 C106.751,79.458 111.684,84.39 117.731,84.39" id="Fill-270" fill="#D05F72"></path>
                    <path d="M111.888,77.179 C117.427,77.179 121.945,72.661 121.945,67.122 C121.945,61.583 117.427,57.064 111.888,57.064 C106.349,57.064 101.829,61.583 101.829,67.122 C101.829,72.661 106.349,77.179 111.888,77.179" id="Fill-271" fill="#E39281"></path>
                </g>
            </g>
        </g>
    </g>
</svg>
