<?xml version="1.0" encoding="UTF-8"?>
<svg width="21px" height="21px" viewBox="0 0 21 21" version="1.1" xmlns="http://www.w3.org/2000/svg" xmlns:xlink="http://www.w3.org/1999/xlink">
    <!-- Generator: Sketch 47.1 (45422) - http://www.bohemiancoding.com/sketch -->
    <title>Shape</title>
    <desc>Created with Sketch.</desc>
    <defs></defs>
    <g id="Page-1" stroke="none" stroke-width="1" fill="none" fill-rule="evenodd">
        <g id="MOBILE-WEBSITE" transform="translate(-318.000000, -16.000000)" fill-rule="nonzero" fill="#5A5D6B">
            <g id="TOP-BAR">
                <path d="M337.687808,37 L319.312192,37 C318.587353,37 318,36.327709 318,35.4998125 L318,32.4998125 C318,31.6715411 318.587353,31 319.312192,31 L337.687808,31 C338.412647,31 339,31.6715411 339,32.4998125 L339,35.4998125 C339,36.327709 338.412647,37 337.687808,37 Z M337,32.7502812 C337,32.336333 336.712005,32 336.356833,32 L319.643167,32 C319.287995,32 319,32.336333 319,32.7502812 L319,34.2500937 C319,34.664042 319.287995,35 319.643167,35 L336.356833,35 C336.712005,35 337,34.664042 337,34.2500937 L337,32.7502812 Z M337.687808,29 L319.312192,29 C318.587353,29 318,28.328042 318,27.5000937 L318,24.5002812 C318,23.671958 318.587353,23 319.312192,23 L337.687808,23 C338.412647,23 339,23.671958 339,24.5002812 L339,27.5000937 C339,28.328042 338.412647,29 337.687808,29 Z M337,25.75 C337,25.335625 336.712005,25 336.356833,25 L319.643167,25 C319.287995,25 319,25.335625 319,25.75 L319,27.25 C319,27.66475 319.287995,28 319.643167,28 L336.356833,28 C336.712005,28 337,27.66475 337,27.25 L337,25.75 Z M337.687808,22 L319.312192,22 C318.587353,22 318,21.32875 318,20.5 L318,17.5 C318,16.672 318.587353,16 319.312192,16 L337.687808,16 C338.412647,16 339,16.672 339,17.5 L339,20.5 C339,21.32875 338.412647,22 337.687808,22 Z M337,17.749625 C337,17.335625 336.712005,17 336.356833,17 L319.643167,17 C319.287995,17 319,17.335625 319,17.749625 L319,19.250375 C319,19.664 319.287995,20 319.643167,20 L336.356833,20 C336.712005,20 337,19.664 337,19.250375 L337,17.749625 Z" id="Shape"></path>
            </g>
        </g>
    </g>
</svg>