<?xml version="1.0" encoding="UTF-8"?>
<svg width="20px" height="20px" viewBox="0 0 20 20" version="1.1" xmlns="http://www.w3.org/2000/svg" xmlns:xlink="http://www.w3.org/1999/xlink">
    <!-- Generator: Sketch 47.1 (45422) - http://www.bohemiancoding.com/sketch -->
    <title>Shape</title>
    <desc>Created with Sketch.</desc>
    <defs></defs>
    <g id="Page-1" stroke="none" stroke-width="1" fill="none" fill-rule="evenodd">
        <g id="DESKTOP-COMMUNITY" transform="translate(-609.000000, -185.000000)" fill-rule="nonzero" fill="#2E3B51">
            <g id="LEFT-SIDE" transform="translate(126.000000, 167.000000)">
                <path d="M492.999844,38.0053124 C492.999844,38.0053124 483,27.5639131 483,23.855846 C483,19.9090327 484.828409,18 488.624912,18 C490.499883,18 492.999844,21.2261996 492.999844,21.2261996 C492.999844,21.2261996 495.499805,18 497.375088,18 C501.171591,18 503,19.9090327 503,23.855846 C503,27.5639131 492.999844,38.0053124 492.999844,38.0053124 Z M497.375088,19.2902923 C496.389478,19.2902923 492.999844,22.5155544 492.999844,22.5155544 C492.999844,22.5155544 489.610522,19.2902923 488.624912,19.2902923 C485.302777,19.2902923 484.250293,20.6990203 484.250293,24.0283433 C484.250293,27.1573569 492.999844,36.0684677 492.999844,36.0684677 C492.999844,36.0684677 501.75002,27.1570444 501.75002,24.0283433 C501.75002,20.6990203 500.697223,19.2902923 497.375088,19.2902923 Z" id="Shape"></path>
            </g>
        </g>
    </g>
</svg>