<?xml version="1.0" encoding="UTF-8"?>
<svg width="17px" height="17px" viewBox="0 0 17 17" version="1.1" xmlns="http://www.w3.org/2000/svg" xmlns:xlink="http://www.w3.org/1999/xlink">
    <!-- Generator: Sketch 47.1 (45422) - http://www.bohemiancoding.com/sketch -->
    <title>IG</title>
    <desc>Created with Sketch.</desc>
    <defs></defs>
    <g id="Welcome" stroke="none" stroke-width="1" fill="none" fill-rule="evenodd">
        <g id="WEBSITE-DESIGN" transform="translate(-1180.000000, -25.000000)" fill="#5B5E6D">
            <g id="TOP-BAR">
                <g id="SOCIAL" transform="translate(1141.000000, 25.000000)">
                    <g id="IG" transform="translate(39.000000, 0.000000)">
                        <path d="M15.6923077,12.75 C15.6923077,14.3721923 14.3721923,15.6923077 12.75,15.6923077 L4.25,15.6923077 C2.62780769,15.6923077 1.30769231,14.3721923 1.30769231,12.75 L1.30769231,4.25 C1.30769231,2.62780769 2.62780769,1.30769231 4.25,1.30769231 L12.75,1.30769231 C14.3721923,1.30769231 15.6923077,2.62780769 15.6923077,4.25 L15.6923077,12.75 Z M12.75,0 L4.25,0 C1.90661538,0 0,1.90661538 0,4.25 L0,12.75 C0,15.0933846 1.90661538,17 4.25,17 L12.75,17 C15.0933846,17 17,15.0933846 17,12.75 L17,4.25 C17,1.90661538 15.0933846,0 12.75,0 L12.75,0 Z" id="Fill-22"></path>
                        <path d="M8.49967956,11.7183139 C6.72505875,11.7183139 5.2817774,10.2744944 5.2817774,8.5 C5.2817774,6.72550555 6.72505875,5.28168613 8.49967956,5.28168613 C10.2743004,5.28168613 11.7182226,6.72550555 11.7182226,8.5 C11.7182226,10.2744944 10.2743004,11.7183139 8.49967956,11.7183139 M8.49967956,4 C6.01815851,4 4,6.01865565 4,8.5 C4,10.9813443 6.01815851,13 8.49967956,13 C10.9812006,13 13,10.9813443 13,8.5 C13,6.01865565 10.9812006,4 8.49967956,4" id="Fill-24"></path>
                        <path d="M12,3 C12,3.551 12.449,4 13,4 C13.551,4 14,3.551 14,3 C14,2.449 13.551,2 13,2 C12.449,2 12,2.449 12,3 Z" id="Fill-26"></path>
                    </g>
                </g>
            </g>
        </g>
    </g>
</svg>