<?xml version="1.0" encoding="UTF-8"?>
<svg width="17px" height="17px" viewBox="0 0 17 17" version="1.1" xmlns="http://www.w3.org/2000/svg" xmlns:xlink="http://www.w3.org/1999/xlink">
    <!-- Generator: Sketch 47.1 (45422) - http://www.bohemiancoding.com/sketch -->
    <title>LI</title>
    <desc>Created with Sketch.</desc>
    <defs></defs>
    <g id="Welcome" stroke="none" stroke-width="1" fill="none" fill-rule="evenodd">
        <g id="WEBSITE-DESIGN" transform="translate(-1141.000000, -25.000000)" fill="#5B5E6D">
            <g id="TOP-BAR">
                <g id="SOCIAL" transform="translate(1141.000000, 25.000000)">
                    <path d="M16,15.6153846 C16,15.8276923 15.8276923,16 15.6153846,16 L12.5384615,16 C12.3261538,16 12.1538462,15.8276923 12.1538462,15.6153846 L12.1538462,10.2307692 C12.1538462,9.59461538 11.6361538,9.07692308 11,9.07692308 C10.3638462,9.07692308 9.84615385,9.59461538 9.84615385,10.2307692 L9.84615385,15.6153846 C9.84615385,15.8276923 9.67384615,16 9.46153846,16 L6.38461538,16 C6.17230769,16 6,15.8276923 6,15.6153846 L6,6.38461538 C6,6.17230769 6.17230769,6 6.38461538,6 L9.46153846,6 C9.67384615,6 9.84615385,6.17230769 9.84615385,6.38461538 L9.84615385,6.78384615 C10.5069231,6.27846154 11.3115385,6 12.1538462,6 C14.2746154,6 16,7.72538462 16,9.84615385 L16,15.6153846 Z M3.5,5 C2.6732,5 2,4.3268 2,3.5 C2,2.6732 2.6732,2 3.5,2 C4.3268,2 5,2.6732 5,3.5 C5,4.3268 4.3268,5 3.5,5 L3.5,5 Z M5,15.6153846 C5,15.8276923 4.8656,16 4.7,16 L2.3,16 C2.1344,16 2,15.8276923 2,15.6153846 L2,6.38461538 C2,6.17230769 2.1344,6 2.3,6 L4.7,6 C4.8656,6 5,6.17230769 5,6.38461538 L5,15.6153846 Z M15.6923077,0 L1.30769231,0 C0.5865,0 0,0.5865 0,1.30769231 L0,15.6923077 C0,16.4135 0.5865,17 1.30769231,17 L15.6923077,17 C16.4135,17 17,16.4135 17,15.6923077 L17,1.30769231 C17,0.5865 16.4135,0 15.6923077,0 L15.6923077,0 Z" id="LI"></path>
                </g>
            </g>
        </g>
    </g>
</svg>