<?xml version="1.0" encoding="UTF-8"?>
<svg width="35px" height="37px" viewBox="0 0 35 37" version="1.1" xmlns="http://www.w3.org/2000/svg" xmlns:xlink="http://www.w3.org/1999/xlink">
    <!-- Generator: Sketch 47.1 (45422) - http://www.bohemiancoding.com/sketch -->
    <title>payment_logo</title>
    <desc>Created with Sketch.</desc>
    <defs></defs>
    <g id="Page-1" stroke="none" stroke-width="1" fill="none" fill-rule="evenodd">
        <g id="MASTER-WEBSITE-DESIGN" transform="translate(-703.000000, -747.000000)" fill-rule="nonzero" fill="#FFFFFF">
            <g id="USP" transform="translate(0.000000, 714.000000)">
                <g id="PAYMENT" transform="translate(570.000000, 33.000000)">
                    <path d="M165.374422,37 L163.061922,37 L135.3125,37 C134.034844,37 133,35.964 133,34.6875 L133,11.5625 C133,10.2854219 134.034844,9.25 135.3125,9.25 L163.061922,0 C164.339578,0 165.374422,1.03542187 165.374422,2.3125 L165.374422,9.25 C166.652078,9.25 167.686922,10.2854219 167.686922,11.5625 L167.686922,20.8125 L167.686922,27.75 L167.686922,34.6875 C167.686922,35.964 166.652078,37 165.374422,37 Z M163.061922,3.46875 C163.061922,2.82934375 162.543922,2.3125 161.905672,2.3125 L142.828125,9.25 L163.061922,9.25 L163.061922,3.46875 Z M165.374422,23.125 L160.75,23.125 L160.75,25.4375 L165.374422,25.4375 L165.374422,23.125 Z M165.374422,27.75 L158.4375,27.75 L158.4375,20.8125 L165.374422,20.8125 L165.374422,12.71875 C165.374422,12.0799219 164.856422,11.5625 164.21875,11.5625 L136.468172,11.5625 C135.829922,11.5625 135.3125,12.0799219 135.3125,12.71875 L135.3125,33.53125 C135.3125,34.1700781 135.829922,34.6875 136.468172,34.6875 L164.21875,34.6875 C164.857,34.6875 165.374422,34.1700781 165.374422,33.53125 L165.374422,27.75 Z" id="payment_logo"></path>
                </g>
            </g>
        </g>
    </g>
</svg>