<?xml version="1.0" encoding="UTF-8"?>
<svg width="32px" height="34px" viewBox="0 0 32 34" version="1.1" xmlns="http://www.w3.org/2000/svg" xmlns:xlink="http://www.w3.org/1999/xlink">
    <!-- Generator: Sketch 47.1 (45422) - http://www.bohemiancoding.com/sketch -->
    <title>payment_logo</title>
    <desc>Created with Sketch.</desc>
    <defs></defs>
    <g id="Welcome" stroke="none" stroke-width="1" fill="none" fill-rule="evenodd">
        <g id="WEBSITE-DESIGN" transform="translate(-781.000000, -747.000000)" fill-rule="nonzero" fill="#2E3B51">
            <g id="BOTTOM-BAR" transform="translate(0.000000, 641.000000)">
                <g id="USP" transform="translate(284.000000, 106.000000)">
                    <path d="M526.749469,34 L524.624469,34 L499.125,34 C497.950937,34 497,33.048 497,31.875 L497,10.625 C497,9.45146875 497.950937,8.5 499.125,8.5 L524.624469,0 C525.798531,0 526.749469,0.95146875 526.749469,2.125 L526.749469,8.5 C527.923531,8.5 528.874469,9.45146875 528.874469,10.625 L528.874469,19.125 L528.874469,25.5 L528.874469,31.875 C528.874469,33.048 527.923531,34 526.749469,34 Z M524.624469,3.1875 C524.624469,2.5999375 524.148469,2.125 523.561969,2.125 L506.03125,8.5 L524.624469,8.5 L524.624469,3.1875 Z M526.749469,21.25 L522.5,21.25 L522.5,23.375 L526.749469,23.375 L526.749469,21.25 Z M526.749469,25.5 L520.375,25.5 L520.375,19.125 L526.749469,19.125 L526.749469,11.6875 C526.749469,11.1004688 526.273469,10.625 525.6875,10.625 L500.186969,10.625 C499.600469,10.625 499.125,11.1004688 499.125,11.6875 L499.125,30.8125 C499.125,31.3995313 499.600469,31.875 500.186969,31.875 L525.6875,31.875 C526.274,31.875 526.749469,31.3995313 526.749469,30.8125 L526.749469,25.5 Z" id="payment_logo"></path>
                </g>
            </g>
        </g>
    </g>
</svg>