<?xml version="1.0" encoding="UTF-8"?>
<svg width="35px" height="38px" viewBox="0 0 35 38" version="1.1" xmlns="http://www.w3.org/2000/svg" xmlns:xlink="http://www.w3.org/1999/xlink">
    <!-- Generator: Sketch 47.1 (45422) - http://www.bohemiancoding.com/sketch -->
    <title>safeguarding_logo</title>
    <desc>Created with Sketch.</desc>
    <defs></defs>
    <g id="Page-1" stroke="none" stroke-width="1" fill="none" fill-rule="evenodd">
        <g id="MASTER-WEBSITE-DESIGN" transform="translate(-353.000000, -749.000000)" fill-rule="nonzero" fill="#FFFFFF">
            <g id="USP" transform="translate(0.000000, 714.000000)">
                <g id="SAFEGUARDING" transform="translate(220.000000, 35.000000)">
                    <path d="M161.000117,32.6678722 L161.000117,30.3328278 C163.57724,30.3328278 165.666706,28.2433626 165.666706,25.6662389 C165.666706,23.0879485 163.57724,20.99965 161.000117,20.99965 L160.571374,20.99965 C160.261629,20.1269979 159.790303,19.3406777 159.183647,18.6651889 L161.000117,18.6651889 C164.865802,18.6651889 168,21.8005533 168,25.6662389 C168,29.5319245 164.865219,32.6678722 161.000117,32.6678722 Z M159.036649,18.4896085 C158.600323,18.0346161 158.096915,17.6560391 157.552091,17.3334611 C157.691505,16.9881335 157.823336,16.6398893 157.938251,16.280562 C160.951701,16.0058166 163.333411,13.018033 163.333411,9.33317778 C163.333411,5.46749221 160.721288,2.33329445 157.500175,2.33329445 C156.865519,2.33329445 156.265862,2.48495858 155.693622,2.70953817 C155.193713,2.05679905 154.640723,1.45189247 154.041066,0.907068216 C155.094548,0.340660989 156.258862,0 157.500175,0 C162.010433,0 165.666706,4.17893035 165.666706,9.33317778 C165.666706,13.8871852 162.810753,17.6653722 159.036649,18.4896085 Z M153.892318,19.061849 C156.660189,19.9963334 158.666239,22.5839569 158.666239,25.6662389 L158.666239,30.3328278 C158.666239,34.1985134 155.532041,37.3315445 151.666356,37.3315445 L139.999883,37.3315445 C136.134198,37.3315445 133,34.1985134 133,30.3328278 L133,25.6662389 C133,22.5839569 135.00605,19.9957501 137.77392,19.061849 C136.271862,17.0435493 135.333294,14.4897585 135.333294,11.6664722 C135.333294,5.22249629 140.034299,0 145.833119,0 C151.631939,0 156.332944,5.22249629 156.332944,11.6664722 C156.333528,14.4897585 155.394377,17.0435493 153.892318,19.061849 Z M135.333878,25.6662389 L135.333878,30.3328278 C135.333878,32.9087849 137.423343,34.9994167 140.000467,34.9994167 L151.666939,34.9994167 C154.244063,34.9994167 156.333528,32.9087849 156.333528,30.3328278 L156.333528,25.6662389 C156.333528,23.2151131 154.437726,21.2277295 152.035599,21.0358161 C150.294378,22.4620423 148.162914,23.3329445 145.833703,23.3329445 C143.504492,23.3329445 141.373027,22.4626256 139.631806,21.0358161 C137.22968,21.2277295 135.333878,23.2151131 135.333878,25.6662389 Z M145.833703,2.33329445 C141.323445,2.33329445 137.667172,6.51105815 137.667172,11.6664722 C137.667172,16.8207197 141.323445,20.99965 145.833703,20.99965 C150.343961,20.99965 154.000233,16.8207197 154.000233,11.6664722 C154.000233,6.51105815 150.343378,2.33329445 145.833703,2.33329445 Z" id="safeguarding_logo"></path>
                </g>
            </g>
        </g>
    </g>
</svg>