<?xml version="1.0" encoding="UTF-8"?>
<svg width="33px" height="35px" viewBox="0 0 33 35" version="1.1" xmlns="http://www.w3.org/2000/svg" xmlns:xlink="http://www.w3.org/1999/xlink">
    <!-- Generator: Sketch 47.1 (45422) - http://www.bohemiancoding.com/sketch -->
    <title>safeguarding_logo</title>
    <desc>Created with Sketch.</desc>
    <defs></defs>
    <g id="Welcome" stroke="none" stroke-width="1" fill="none" fill-rule="evenodd">
        <g id="WEBSITE-DESIGN" transform="translate(-558.000000, -747.000000)" fill-rule="nonzero" fill="#2E3B51">
            <g id="BOTTOM-BAR" transform="translate(0.000000, 641.000000)">
                <g id="USP" transform="translate(284.000000, 106.000000)">
                    <path d="M299.748842,30.0412996 L299.748842,27.8939982 C302.118759,27.8939982 304.040227,25.9725308 304.040227,23.6026138 C304.040227,21.231624 302.118759,19.3112295 299.748842,19.3112295 L299.354571,19.3112295 C299.069731,18.5087406 298.636301,17.7856424 298.078421,17.1644645 L299.748842,17.1644645 C303.303718,17.1644645 306.185919,20.0477383 306.185919,23.6026138 C306.185919,27.1574893 303.303182,30.0412996 299.748842,30.0412996 Z M297.943242,17.0030012 C297.541998,16.5845912 297.079065,16.2364526 296.578046,15.9398107 C296.706251,15.6222482 296.827483,15.3020037 296.933158,14.9715671 C299.704319,14.7189118 301.894535,11.971353 301.894535,8.58276867 C301.894535,5.02789317 299.492432,2.14569217 296.530304,2.14569217 C295.946676,2.14569217 295.395233,2.28516216 294.869002,2.49168503 C294.409287,1.89142765 293.900758,1.33515695 293.349316,0.83413783 C294.318096,0.313271056 295.388796,0 296.530304,0 C300.677927,0 304.040227,3.84293467 304.040227,8.58276867 C304.040227,12.7706234 301.4139,16.2450354 297.943242,17.0030012 Z M293.212528,17.5292322 C295.757855,18.3885819 297.602614,20.7681545 297.602614,23.6026138 L297.602614,27.8939982 C297.602614,31.4488737 294.720413,34.3300018 291.165537,34.3300018 L280.437077,34.3300018 C276.882201,34.3300018 274,31.4488737 274,27.8939982 L274,23.6026138 C274,20.7681545 275.844759,18.3880455 278.390086,17.5292322 C277.008797,15.6732084 276.145692,13.3247484 276.145692,10.7284608 C276.145692,4.80259549 280.468725,0 285.801307,0 C291.133888,0 295.456922,4.80259549 295.456922,10.7284608 C295.457458,13.3247484 294.593817,15.6732084 293.212528,17.5292322 Z M276.146229,23.6026138 L276.146229,27.8939982 C276.146229,30.2628423 278.067696,32.1853825 280.437613,32.1853825 L291.166074,32.1853825 C293.535991,32.1853825 295.457458,30.2628423 295.457458,27.8939982 L295.457458,23.6026138 C295.457458,21.3485642 293.714083,19.5209709 291.505093,19.3444877 C289.90387,20.6560421 287.943781,21.4569217 285.801843,21.4569217 C283.659906,21.4569217 281.699816,20.6565785 280.098594,19.3444877 C277.889603,19.5209709 276.146229,21.3485642 276.146229,23.6026138 Z M285.801843,2.14569217 C281.65422,2.14569217 278.291921,5.98755399 278.291921,10.7284608 C278.291921,15.4682948 281.65422,19.3112295 285.801843,19.3112295 C289.949466,19.3112295 293.311766,15.4682948 293.311766,10.7284608 C293.311766,5.98755399 289.94893,2.14569217 285.801843,2.14569217 Z" id="safeguarding_logo"></path>
                </g>
            </g>
        </g>
    </g>
</svg>