<?xml version="1.0" encoding="UTF-8"?>
<svg width="35px" height="38px" viewBox="0 0 35 38" version="1.1" xmlns="http://www.w3.org/2000/svg" xmlns:xlink="http://www.w3.org/1999/xlink">
    <!-- Generator: Sketch 47.1 (45422) - http://www.bohemiancoding.com/sketch -->
    <title>scheduling_logo</title>
    <desc>Created with Sketch.</desc>
    <defs></defs>
    <g id="Page-1" stroke="none" stroke-width="1" fill="none" fill-rule="evenodd">
        <g id="MASTER-WEBSITE-DESIGN" transform="translate(-1053.000000, -747.000000)" fill-rule="nonzero" fill="#FFFFFF">
            <g id="USP" transform="translate(0.000000, 714.000000)">
                <g id="SCHEDULING" transform="translate(920.000000, 33.000000)">
                    <path d="M165.663786,37.3306244 L135.333128,37.3306244 C134.044658,37.3306244 133,36.2865498 133,34.9974968 L133,11.6673877 L133,9.33367685 L133,4.66683842 C133,3.37836872 134.044658,2.33371085 135.333128,2.33371085 L142.33251,2.33371085 L142.33251,0 L144.665638,0 L144.665638,2.33371085 L156.331276,2.33371085 L156.331276,0 L158.664403,0 L158.664403,2.33371085 L166.83035,2.33371085 C168.118819,2.33371085 167.996914,3.37836872 167.996914,4.66683842 L167.996914,9.33367685 L167.996914,11.6673877 L167.996914,34.9974968 C167.997497,36.2865498 166.952256,37.3306244 165.663786,37.3306244 Z M165.663786,5.83456877 C165.663786,5.18887572 165.141165,4.66683842 164.497222,4.66683842 L158.664403,4.66683842 L158.664403,7.00113256 L156.331276,7.00113256 L156.331276,4.66683842 L144.665638,4.66683842 L144.665638,7.00113256 L142.33251,7.00113256 L142.33251,4.66683842 L136.499691,4.66683842 C135.855165,4.66683842 135.332544,5.18887572 135.332544,5.83456877 L135.332544,9.33367685 L165.663203,9.33367685 L165.663203,5.83456877 L165.663786,5.83456877 Z M165.663786,11.6673877 L135.333128,11.6673877 L135.333128,33.8309331 C135.333128,34.4754596 135.855748,34.9974968 136.500275,34.9974968 L164.497222,34.9974968 C165.141165,34.9974968 165.663786,34.4754596 165.663786,33.8309331 L165.663786,11.6673877 Z M156.331859,25.6644033 L163.331242,25.6644033 L163.331242,32.6643693 L156.331859,32.6643693 L156.331859,25.6644033 Z M158.664403,30.331825 L160.997531,30.331825 L160.997531,27.9975309 L158.664403,27.9975309 L158.664403,30.331825 Z M156.331859,16.3330596 L163.331242,16.3330596 L163.331242,23.3312757 L156.331859,23.3312757 L156.331859,16.3330596 Z M158.664403,20.9987314 L160.997531,20.9987314 L160.997531,18.6656038 L158.664403,18.6656038 L158.664403,20.9987314 Z M146.999349,25.6644033 L153.998731,25.6644033 L153.998731,32.6643693 L146.999349,32.6643693 L146.999349,25.6644033 Z M149.332476,30.331825 L151.665604,30.331825 L151.665604,27.9975309 L149.332476,27.9975309 L149.332476,30.331825 Z M146.999349,16.3330596 L153.998731,16.3330596 L153.998731,23.3312757 L146.999349,23.3312757 L146.999349,16.3330596 Z M149.332476,20.9987314 L151.665604,20.9987314 L151.665604,18.6656038 L149.332476,18.6656038 L149.332476,20.9987314 Z M137.666838,25.6644033 L144.666221,25.6644033 L144.666221,32.6643693 L137.666838,32.6643693 L137.666838,25.6644033 Z M139.999966,30.331825 L142.333094,30.331825 L142.333094,27.9975309 L139.999966,27.9975309 L139.999966,30.331825 Z M137.666838,16.3330596 L144.666221,16.3330596 L144.666221,23.3312757 L137.666838,23.3312757 L137.666838,16.3330596 Z M139.999966,20.9987314 L142.333094,20.9987314 L142.333094,18.6656038 L139.999966,18.6656038 L139.999966,20.9987314 Z" id="scheduling_logo"></path>
                </g>
            </g>
        </g>
    </g>
</svg>