<?xml version="1.0" encoding="UTF-8"?>
<svg width="33px" height="35px" viewBox="0 0 33 35" version="1.1" xmlns="http://www.w3.org/2000/svg" xmlns:xlink="http://www.w3.org/1999/xlink">
    <!-- Generator: Sketch 47.1 (45422) - http://www.bohemiancoding.com/sketch -->
    <title>scheduling_logo</title>
    <desc>Created with Sketch.</desc>
    <defs></defs>
    <g id="Welcome" stroke="none" stroke-width="1" fill="none" fill-rule="evenodd">
        <g id="WEBSITE-DESIGN" transform="translate(-954.000000, -747.000000)" fill-rule="nonzero" fill="#2E3B51">
            <g id="BOTTOM-BAR" transform="translate(0.000000, 641.000000)">
                <g id="USP" transform="translate(284.000000, 106.000000)">
                    <path d="M700.038282,34.3300018 L672.145592,34.3300018 C670.960689,34.3300018 670,33.3698496 670,32.1844102 L670,10.7295671 L670,8.58343915 L670,4.29171958 C670,3.10681662 670.960689,2.14612799 672.145592,2.14612799 L678.582366,2.14612799 L678.582366,0 L680.727958,0 L680.727958,2.14612799 L691.455916,2.14612799 L691.455916,0 L693.601507,0 L693.601507,2.14612799 L701.111078,2.14612799 C702.295981,2.14612799 702.183874,3.10681662 702.183874,4.29171958 L702.183874,8.58343915 L702.183874,10.7295671 L702.183874,32.1844102 C702.18441,33.3698496 701.223185,34.3300018 700.038282,34.3300018 Z M700.038282,5.36558817 C700.038282,4.7717957 699.55767,4.29171958 698.965486,4.29171958 L693.601507,4.29171958 L693.601507,6.43838396 L691.455916,6.43838396 L691.455916,4.29171958 L680.727958,4.29171958 L680.727958,6.43838396 L678.582366,6.43838396 L678.582366,4.29171958 L673.218387,4.29171958 C672.625668,4.29171958 672.145055,4.7717957 672.145055,5.36558817 L672.145055,8.58343915 L700.037746,8.58343915 L700.037746,5.36558817 L700.038282,5.36558817 Z M700.038282,10.7295671 L672.145592,10.7295671 L672.145592,31.1116144 C672.145592,31.7043341 672.626204,32.1844102 673.218924,32.1844102 L698.965486,32.1844102 C699.55767,32.1844102 700.038282,31.7043341 700.038282,31.1116144 L700.038282,10.7295671 Z M691.456452,23.6015075 L697.893227,23.6015075 L697.893227,30.0388187 L691.456452,30.0388187 L691.456452,23.6015075 Z M693.601507,27.8937635 L695.747099,27.8937635 L695.747099,25.7470991 L693.601507,25.7470991 L693.601507,27.8937635 Z M691.456452,15.0202139 L697.893227,15.0202139 L697.893227,21.4559159 L691.456452,21.4559159 L691.456452,15.0202139 Z M693.601507,19.3108607 L695.747099,19.3108607 L695.747099,17.1652691 L693.601507,17.1652691 L693.601507,19.3108607 Z M682.874086,23.6015075 L689.310861,23.6015075 L689.310861,30.0388187 L682.874086,30.0388187 L682.874086,23.6015075 Z M685.019678,27.8937635 L687.165269,27.8937635 L687.165269,25.7470991 L685.019678,25.7470991 L685.019678,27.8937635 Z M682.874086,15.0202139 L689.310861,15.0202139 L689.310861,21.4559159 L682.874086,21.4559159 L682.874086,15.0202139 Z M685.019678,19.3108607 L687.165269,19.3108607 L687.165269,17.1652691 L685.019678,17.1652691 L685.019678,19.3108607 Z M674.29172,23.6015075 L680.728494,23.6015075 L680.728494,30.0388187 L674.29172,30.0388187 L674.29172,23.6015075 Z M676.437311,27.8937635 L678.582903,27.8937635 L678.582903,25.7470991 L676.437311,25.7470991 L676.437311,27.8937635 Z M674.29172,15.0202139 L680.728494,15.0202139 L680.728494,21.4559159 L674.29172,21.4559159 L674.29172,15.0202139 Z M676.437311,19.3108607 L678.582903,19.3108607 L678.582903,17.1652691 L676.437311,17.1652691 L676.437311,19.3108607 Z" id="scheduling_logo"></path>
                </g>
            </g>
        </g>
    </g>
</svg>