<?xml version="1.0" encoding="UTF-8"?>
<svg width="35px" height="35px" viewBox="0 0 35 35" version="1.1" xmlns="http://www.w3.org/2000/svg" xmlns:xlink="http://www.w3.org/1999/xlink">
    <!-- Generator: Sketch 49.1 (51147) - http://www.bohemiancoding.com/sketch -->
    <title>LOGO</title>
    <desc>Created with Sketch.</desc>
    <defs></defs>
    <g id="Page-1" stroke="none" stroke-width="1" fill="none" fill-rule="evenodd">
        <g id="APP-LOGO" transform="translate(-13.000000, -13.000000)">
            <g id="LOGO" transform="translate(14.000000, 13.000000)">
                <path d="M14.9619118,30.3392913 L14.9619118,33.5890198 L0.962838882,27.2168102 C0.606106509,27.0544299 0.377126416,26.6986149 0.377126416,26.3066642 L0.377126416,16.9090296 C0.377126416,16.6328872 0.600984041,16.4090296 0.877126416,16.4090296 C0.952652912,16.4090296 1.02719809,16.4261396 1.09516508,16.459075 L3.10836926,17.434632 C3.2808132,17.5181947 3.3903306,17.6929629 3.3903306,17.8845866 L3.3903306,24.4140516 C3.3903306,24.8056077 3.6188553,25.1611406 3.9750516,25.3237457 L14.9619118,30.3392913 Z M18.1444862,30.3915793 L31.9057625,24.1906513 C31.9703342,24.1615549 32.0403505,24.1465084 32.111175,24.1465084 C32.3873173,24.1465084 32.611175,24.3703661 32.611175,24.6465084 L32.611175,26.5887044 C32.611175,26.7837177 32.4977933,26.9609361 32.3207347,27.04267 L18.1444862,33.5867136 L18.1444862,30.3915793 Z M32.5877424,10.9387779 L32.5877424,18.3799762 C32.5877424,18.5781674 32.4706802,18.7576512 32.2893068,18.8375478 L30.3190657,19.7054567 C30.0663558,19.8167777 29.7712506,19.7021594 29.6599296,19.4494495 C29.6319506,19.3859343 29.6175013,19.3172898 29.6175013,19.2478851 L29.6175013,12.2197965 L32.5877424,10.9387779 Z M5.27293282,9.65550683 L2.43335803,7.64358324 L16.2812268,0.55746207 C16.4249018,0.483941826 16.5952298,0.48429382 16.7385997,0.558407261 L30.8863668,7.8719328 L28.1018829,9.83301567 L16.5101563,3.87089686 L5.27293282,9.65550683 Z" id="Combined-Shape" stroke="#2E3B51" fill="#2E3B51"></path>
                <path d="M16.5607368,14.5758029 L31.7577705,8.32703189 L32.3292843,8.6385624 C32.4899821,8.72615836 32.5899791,8.89455464 32.5899791,9.07757613 L32.5899791,10.939013 L18.1448719,17.2277497 L18.1448719,33.5856438 L17.0028202,34.1519434 C16.7241388,34.2901308 16.397022,34.290765 16.1178069,34.1536591 L14.9610482,33.5856438 L14.9610482,17.2277497 L0.652972214,10.8378038 C0.472849959,10.7573617 0.356861803,10.5785323 0.356861803,10.3812635 L0.356861803,9.07238032 C0.356861803,8.89212235 0.453888164,8.72581838 0.610809159,8.63711248 L1.63125938,8.06026198 L16.5607368,14.5758029 Z" id="Path-204" stroke="#5B5E6D" fill="#5B5E6D"></path>
            </g>
        </g>
    </g>
</svg>