<?xml version="1.0" encoding="UTF-8"?>
<svg width="33px" height="35px" viewBox="0 0 33 35" version="1.1" xmlns="http://www.w3.org/2000/svg" xmlns:xlink="http://www.w3.org/1999/xlink">
    <!-- Generator: Sketch 49.1 (51147) - http://www.bohemiancoding.com/sketch -->
    <title>LOGO</title>
    <desc>Created with Sketch.</desc>
    <defs></defs>
    <g id="Page-1" stroke="none" stroke-width="1" fill="none" fill-rule="evenodd">
        <g id="APP-LOGO" transform="translate(-14.000000, -12.000000)" stroke-width="0.5">
            <g id="LOGO" transform="translate(14.000000, 12.000000)">
                <path d="M14.9619118,30.3392913 L14.9619118,33.5890198 L0.669982649,27.0835056 C0.491616462,27.0023154 0.377126416,26.8244079 0.377126416,26.6284326 L0.377126416,14.3374324 C0.377126416,14.0612901 0.600984041,13.8374324 0.877126416,13.8374324 C0.947008666,13.8374324 1.01611489,13.8520813 1.07998705,13.880434 L3.09319123,14.7740911 C3.27386751,14.8542929 3.3903306,15.0334124 3.3903306,15.2310895 L3.3903306,24.7354349 C3.3903306,24.9312129 3.50459295,25.1089794 3.6826911,25.1902819 L14.9619118,30.3392913 Z" id="Path-205" stroke="#2E3B51" fill="#2E3B51"></path>
                <path d="M18.1444862,30.3915793 L18.1444862,33.5867136 L32.3207347,27.04267 C32.4977933,26.9609361 32.611175,26.7837177 32.611175,26.5887044 L32.611175,24.6465084 C32.611175,24.3703661 32.3873173,24.1465084 32.111175,24.1465084 C32.0403505,24.1465084 31.9703342,24.1615549 31.9057625,24.1906513 L18.1444862,30.3915793 Z" id="Path-206" stroke="#2E3B51" fill="#2E3B51"></path>
                <path d="M32.5877424,10.9387779 L32.5877424,20.7219301 C32.5877424,20.9200001 32.4708216,21.0993981 32.2896125,21.179367 L30.3193714,22.0488484 C30.066736,22.1603382 29.7715542,22.0459171 29.6600644,21.7932817 C29.6319975,21.7296822 29.6175013,21.6609288 29.6175013,21.5914116 L29.6175013,12.2197965 L32.5877424,10.9387779 Z" id="Path-210" stroke="#2E3B51" fill="#2E3B51"></path>
                <path d="M5.27293282,9.65550683 L16.2814068,3.98865075 C16.4249616,3.91475273 16.5953659,3.91472379 16.7389458,3.98857305 L28.1018829,9.83301567 L31.7693782,8.32846756 L16.738614,0.558415723 C16.5952361,0.4842975 16.4248975,0.483949313 16.2812178,0.557480764 L1.62007341,8.06066551 L5.27293282,9.65550683 Z" id="Path-2" stroke="#2E3B51" fill="#2E3B51"></path>
                <path d="M16.7566909,14.4952298 L31.7577705,8.32703189 L32.3292843,8.6385624 C32.4899821,8.72615836 32.5899791,8.89455464 32.5899791,9.07757613 L32.5899791,10.939013 L18.4452885,17.096962 C18.2628517,17.1763867 18.1448719,17.3564252 18.1448719,17.5554012 L18.1448719,33.5856438 L16.7817785,34.2615495 C16.6424378,34.3306432 16.4788794,34.3309603 16.3392719,34.2624073 L14.9610482,33.5856438 L14.9610482,17.5520479 C14.9610482,17.3547791 14.84506,17.1759497 14.6649377,17.0955076 L0.652972214,10.8378038 C0.472849959,10.7573617 0.356861803,10.5785323 0.356861803,10.3812635 L0.356861803,9.07238032 C0.356861803,8.89212235 0.453888164,8.72581838 0.610809159,8.63711248 L1.63125938,8.06026198 L16.3665514,14.4910563 C16.4906667,14.5452228 16.6314452,14.5467288 16.7566909,14.4952298 Z" id="Path-204" stroke="#5B5E6D" fill="#5B5E6D"></path>
            </g>
        </g>
    </g>
</svg>
