<?xml version="1.0" encoding="UTF-8"?>
<svg width="32px" height="33px" viewBox="0 0 32 33" version="1.1" xmlns="http://www.w3.org/2000/svg" xmlns:xlink="http://www.w3.org/1999/xlink">
    <!-- Generator: Sketch 49.1 (51147) - http://www.bohemiancoding.com/sketch -->
    <title>LOGO</title>
    <desc>Created with Sketch.</desc>
    <defs></defs>
    <g id="Page-1" stroke="none" stroke-width="1" fill="none" fill-rule="evenodd">
        <g id="APP-LOGO" transform="translate(-13.000000, -13.000000)" stroke-width="1.3">
            <g id="LOGO" transform="translate(14.000000, 14.000000)">
                <path d="M13.6794622,27.7387806 L13.6794622,30.7099609 L0.930513761,24.906793 C0.573781388,24.7444127 0.344801294,24.3885976 0.344801294,23.9966469 L0.344801294,15.5280757 C0.344801294,15.2519334 0.568658919,15.0280757 0.844801294,15.0280757 C0.920327791,15.0280757 0.994872965,15.0451858 1.06283995,15.0781211 L2.81776949,15.9285236 C2.99021344,16.0120863 3.09973083,16.1868545 3.09973083,16.3784782 L3.09973083,22.2663243 C3.09973083,22.6578804 3.32825554,23.0134134 3.68445184,23.1760184 L13.6794622,27.7387806 Z M16.5892446,27.7865868 L29.110519,22.1444124 C29.1750906,22.1153159 29.245107,22.1002695 29.3159314,22.1002695 C29.5920738,22.1002695 29.8159314,22.3241271 29.8159314,22.6002695 L29.8159314,24.2822533 C29.8159314,24.4772665 29.7025497,24.654485 29.5254911,24.7362188 L16.5892446,30.7078525 L16.5892446,27.7865868 Z M29.7945073,10.0011684 L29.7945073,16.7765975 C29.7945073,16.9747888 29.6774451,17.1542726 29.4960718,17.2341692 L27.7804227,17.989928 C27.5277129,18.1012489 27.2326076,17.9866306 27.1212867,17.7339208 C27.0933077,17.6704056 27.0788583,17.601761 27.0788583,17.5323564 L27.0788583,11.1723853 L29.7945073,10.0011684 Z M4.82096715,8.82789196 L2.22478448,6.98841896 L14.8660706,0.519720692 C15.0097456,0.446200448 15.1800735,0.446552442 15.3234435,0.520665883 L28.2389639,7.1971957 L25.6931501,8.99018576 L15.0950001,3.5391057 L4.82096715,8.82789196 Z" id="Combined-Shape" stroke="#2E3B51" fill="#2E3B51"></path>
                <path d="M15.1412451,13.3264484 L29.0356759,7.6132863 L29.5358575,7.88593385 C29.6965554,7.97352981 29.7965523,8.14192609 29.7965523,8.32494758 L29.7965523,10.0013834 L16.5895972,15.7510854 L16.5895972,30.7068743 L15.5833284,31.2058444 C15.3046471,31.3440318 14.9775303,31.3446659 14.6983152,31.20756 L13.6786726,30.7068743 L13.6786726,15.7510854 L0.622384059,9.92018423 C0.442261804,9.83974214 0.326273649,9.66091268 0.326273649,9.46364394 L0.326273649,8.31975177 C0.326273649,8.1394938 0.42330001,7.97318983 0.580221005,7.88448393 L1.49143715,7.36938238 L15.1412451,13.3264484 Z" id="Path-204" stroke="#5B5E6D" fill="#5B5E6D"></path>
            </g>
        </g>
    </g>
</svg>