<?xml version="1.0" encoding="UTF-8"?>
<svg width="33px" height="35px" viewBox="0 0 33 35" version="1.1" xmlns="http://www.w3.org/2000/svg" xmlns:xlink="http://www.w3.org/1999/xlink">
    <!-- Generator: Sketch 49.1 (51147) - http://www.bohemiancoding.com/sketch -->
    <title>LOGO</title>
    <desc>Created with Sketch.</desc>
    <defs></defs>
    <g id="Page-1" stroke="none" stroke-width="1" fill="none" fill-rule="evenodd">
        <g id="APP-LOGO" transform="translate(-14.000000, -12.000000)" stroke-width="0.5">
            <g id="LOGO" transform="translate(14.000000, 12.000000)">
                <path d="M14.9619118,30.3392913 L14.9619118,33.5890198 L1.54855135,27.4834195 C0.835086602,27.1586589 0.377126416,26.4470288 0.377126416,25.6631274 L0.377126416,15.2168025 C0.377126416,14.6248833 0.85697171,14.145038 1.44889088,14.145038 C1.5986855,14.145038 1.74681669,14.1764383 1.88372851,14.2372131 L2.20177312,14.3783925 C2.92447822,14.6991997 3.3903306,15.4156777 3.3903306,16.2063862 L3.3903306,23.7712849 C3.3903306,24.5543972 3.84738,25.2654631 4.5597726,25.5906731 L14.9619118,30.3392913 Z M18.1444862,30.3915793 L31.2272796,24.4963805 C31.3539578,24.4392984 31.4913176,24.4097799 31.6302627,24.4097799 C32.1720056,24.4097799 32.611175,24.8489493 32.611175,25.3906922 L32.611175,25.6290271 C32.611175,26.4090802 32.1576483,27.117954 31.4494138,27.4448894 L18.1444862,33.5867136 L18.1444862,30.3915793 Z M32.5877424,10.9387779 L32.5877424,19.7443202 C32.5877424,20.5366002 32.120059,21.2541921 31.3952229,21.5740675 L31.1026218,21.7031944 C30.5680585,21.939101 29.9434693,21.6969919 29.7075627,21.1624286 C29.6481746,21.0278554 29.6175013,20.8823768 29.6175013,20.7352819 L29.6175013,12.2197965 L32.5877424,10.9387779 Z M5.27293282,9.65550683 L1.62007341,8.06066551 L15.5941584,0.909099509 C16.1690131,0.614904115 16.8505448,0.616370979 17.4241278,0.913038159 L31.3659745,8.12400559 L28.1018829,9.83301567 L16.5101563,3.87089686 L5.27293282,9.65550683 Z" id="Combined-Shape" stroke="#2E3B51" fill="#2E3B51"></path>
                <path d="M16.5607368,14.5758029 L31.7577705,8.32703189 L31.7577705,8.32703189 C32.2707617,8.60666191 32.5899791,9.14422845 32.5899791,9.72848258 L32.5899791,10.939013 L18.1448719,17.2277497 L18.1448719,33.5856438 L17.4449035,33.9327313 C16.8875407,34.2091061 16.2333071,34.2103743 15.674877,33.9361626 L14.9610482,33.5856438 L14.9610482,17.2277497 L1.23565407,11.0980279 C0.701089801,10.859293 0.356861803,10.3285654 0.356861803,9.74311409 L0.356861803,9.74311409 C0.356861803,9.14839144 0.676979548,8.59970701 1.19470684,8.30704085 L1.63125938,8.06026198 L16.5607368,14.5758029 Z" id="Path-204" stroke="#5B5E6D" fill="#5B5E6D"></path>
            </g>
        </g>
    </g>
</svg>