<?xml version="1.0" encoding="UTF-8"?>
<svg width="36px" height="30px" viewBox="0 0 36 30" version="1.1" xmlns="http://www.w3.org/2000/svg" xmlns:xlink="http://www.w3.org/1999/xlink">
    <!-- Generator: Sketch 49.1 (51147) - http://www.bohemiancoding.com/sketch -->
    <title>LOGO</title>
    <desc>Created with Sketch.</desc>
    <defs></defs>
    <g id="Page-1" stroke="none" stroke-width="1" fill="none" fill-rule="evenodd">
        <g id="APP-LOGO" transform="translate(-12.000000, -16.000000)" stroke-width="1.3">
            <g id="LOGO" transform="translate(30.000000, 31.000000) rotate(-25.000000) translate(-30.000000, -31.000000) translate(15.000000, 15.000000)">
                <path d="M13.5228654,27.5779313 L13.5228654,30.5318826 L0.924608466,24.7645386 C0.568935108,24.6017153 0.340854152,24.2464578 0.340854152,23.8552865 L0.340854152,15.4446493 C0.340854152,15.1685069 0.564711777,14.9446493 0.840854152,14.9446493 C0.916758801,14.9446493 0.991667196,14.961931 1.05990017,14.9951843 L2.78329242,15.8350765 C2.95518547,15.9188483 3.0642464,16.093322 3.0642464,16.2845415 L3.0642464,22.1350037 C3.0642464,22.5257791 3.29187126,22.8807531 3.64700652,23.0438001 L13.5228654,27.5779313 Z M16.3993378,27.6254603 L28.7682242,22.0201043 C28.8330618,21.9907211 28.9034261,21.9755212 28.9746109,21.9755212 C29.2507533,21.9755212 29.4746109,22.1993788 29.4746109,22.4755212 L29.4746109,24.1403572 C29.4746109,24.3349776 29.3616805,24.5119137 29.1851563,24.5938665 L16.3993378,30.5297864 L16.3993378,27.6254603 Z M29.4534322,9.94317446 L29.4534322,16.6781738 C29.4534322,16.875983 29.3368153,17.0551962 29.1559598,17.1353199 L27.4713984,17.8816247 C27.2189236,17.9934777 26.9235776,17.8794811 26.8117246,17.6270063 C26.7834682,17.5632257 26.7688707,17.4942382 26.7688707,17.4244786 L26.7688707,11.1075999 L29.4534322,9.94317446 Z M4.76577871,8.77670152 L2.19931607,6.94789511 L14.6922344,0.518588254 C14.8364674,0.444360725 15.0077464,0.444715856 15.1516704,0.51954085 L27.915696,7.15546121 L25.3990255,8.93805423 L14.9221988,3.51858343 L4.76577871,8.77670152 Z" id="Combined-Shape" stroke="#2E3B51" fill="#2E3B51"></path>
                <path d="M14.9679144,13.2491721 L28.7032875,7.56913902 L29.195811,7.83914632 C29.3559215,7.92692082 29.4554537,8.09499315 29.4554537,8.27758489 L29.4554537,9.94338819 L16.3996863,15.6597493 L16.3996863,30.5288139 L15.4120219,31.0213573 C15.13223,31.1608882 14.8032813,31.1615281 14.5229486,31.0230868 L13.5220848,30.5288139 L13.5220848,15.6597493 L0.61767905,9.86374675 C0.438079598,9.78307981 0.322538603,9.6045244 0.322538603,9.40764088 L0.322538603,8.27238088 C0.322538603,8.09256005 0.419098993,7.92658902 0.575422646,7.83771583 L1.47436379,7.32664943 L14.9679144,13.2491721 Z" id="Path-204" stroke="#5B5E6D" fill="#5B5E6D"></path>
            </g>
        </g>
    </g>
</svg>