<?xml version="1.0" encoding="UTF-8"?>
<svg width="19px" height="15px" viewBox="0 0 19 15" version="1.1" xmlns="http://www.w3.org/2000/svg" xmlns:xlink="http://www.w3.org/1999/xlink">
    <!-- Generator: Sketch 47.1 (45422) - http://www.bohemiancoding.com/sketch -->
    <title>TW</title>
    <desc>Created with Sketch.</desc>
    <defs></defs>
    <g id="Welcome" stroke="none" stroke-width="1" fill="none" fill-rule="evenodd">
        <g id="WEBSITE-DESIGN" transform="translate(-1218.000000, -26.000000)" fill="#5B5E6D">
            <g id="TOP-BAR">
                <g id="SOCIAL" transform="translate(1141.000000, 25.000000)">
                    <path d="M82.9754999,16 C90.1451498,16 94.0667501,10.2284832 94.0667501,5.22372386 C94.0667501,5.05937919 94.0667501,4.89596265 94.0553491,4.73391486 C94.8182005,4.19832748 95.4765494,3.53364562 96,2.77330073 C95.2894008,3.0795462 94.5341507,3.28095983 93.7618009,3.36931033 C94.575,2.89598267 95.1839507,2.15210974 95.4755999,1.27411731 C94.7099001,1.71540104 93.8729496,2.02668091 92.999899,2.1937631 C91.5236001,0.668948288 89.0545491,0.594791622 87.4842002,2.0294278 C86.4724497,2.95411737 86.0420996,4.33290636 86.3565499,5.64852625 C83.2225001,5.49517851 80.3021998,4.05733606 78.3224002,1.69159778 C77.28785,3.42195125 77.8170001,5.63525118 79.5298501,6.74671054 C78.9095002,6.72931044 78.3024498,6.56680328 77.7600002,6.27338288 L77.7600002,6.3214394 C77.7609501,8.12413078 79.0691,9.67641449 80.8874,10.0334727 C80.3135999,10.1859017 79.7113001,10.2078769 79.1279998,10.0980106 C79.63815,11.6416037 81.1020998,12.6985846 82.7693499,12.7288004 C81.3889999,13.7830344 79.6837498,14.3552408 77.9281502,14.3534126 C77.61845,14.3524939 77.3087498,14.3351032 77,14.2989342 C78.7831499,15.4103936 80.8570004,16 82.9754999,15.9972531" id="TW"></path>
                </g>
            </g>
        </g>
    </g>
</svg>