<?xml version="1.0" encoding="UTF-8"?>
<svg width="20px" height="14px" viewBox="0 0 20 14" version="1.1" xmlns="http://www.w3.org/2000/svg" xmlns:xlink="http://www.w3.org/1999/xlink">
    <!-- Generator: Sketch 47.1 (45422) - http://www.bohemiancoding.com/sketch -->
    <title>YT</title>
    <desc>Created with Sketch.</desc>
    <defs></defs>
    <g id="Welcome" stroke="none" stroke-width="1" fill="none" fill-rule="evenodd">
        <g id="WEBSITE-DESIGN" transform="translate(-1292.000000, -27.000000)" fill="#5B5E6D">
            <g id="TOP-BAR">
                <g id="SOCIAL" transform="translate(1141.000000, 25.000000)">
                    <path d="M158.988435,11.5858968 L158.988435,5.97403753 C160.980638,6.91154576 162.523607,7.81731371 164.348451,8.79339228 C162.843355,9.62835962 160.980638,10.5644078 158.988435,11.5858968 M170.091006,3.18299302 C169.747347,2.72986904 169.161624,2.37780595 168.538087,2.26111492 C166.705232,1.91345187 155.270982,1.91247186 153.439149,2.26111492 C152.939104,2.35486575 152.493837,2.58142774 152.11133,2.93348083 C150.499635,4.42958396 151.004671,12.4516344 151.393144,13.7509558 C151.556505,14.3134608 151.767686,14.7192243 152.033647,14.9853467 C152.376298,15.3373998 152.84546,15.5800719 153.384355,15.6884728 C154.893449,16.0009756 162.668031,16.1752971 168.506197,15.7353532 C169.0441,15.6416024 169.520236,15.3916002 169.895754,15.024407 C171.385928,13.5346439 171.284335,5.06142951 170.091006,3.18299302" id="YT"></path>
                </g>
            </g>
        </g>
    </g>
</svg>