<?xml version="1.0" encoding="UTF-8"?>
<svg width="40px" height="40px" viewBox="0 0 40 40" version="1.1" xmlns="http://www.w3.org/2000/svg" xmlns:xlink="http://www.w3.org/1999/xlink">
    <!-- Generator: Sketch 47.1 (45422) - http://www.bohemiancoding.com/sketch -->
    <title>PLAY</title>
    <desc>Created with Sketch.</desc>
    <defs></defs>
    <g id="Page-1" stroke="none" stroke-width="1" fill="none" fill-rule="evenodd">
        <g id="MOBILE-COMMUNITY---PODCASTS" transform="translate(-273.000000, -681.000000)" stroke-width="1.5" stroke="#5B5E6D">
            <g id="PODCAST-2" transform="translate(27.000000, 654.000000)">
                <g id="PLAY" transform="translate(247.000000, 28.000000)">
                    <circle id="Oval" cx="19" cy="19" r="19"></circle>
                    <path d="M13.9254899,10.7195177 L13.9254899,28.1147483 L13.9254899,28.1147483 C13.9254899,28.3908907 14.1493475,28.6147483 14.4254899,28.6147483 C14.5266384,28.6147483 14.6254084,28.5840708 14.7087585,28.5267664 L27.3595602,19.8291511 L27.3595602,19.8291511 C27.5871115,19.6727062 27.6447546,19.3614157 27.4883097,19.1338644 C27.453635,19.0834296 27.409995,19.0397896 27.3595602,19.0051149 L14.7087585,10.3074996 L14.7087585,10.3074996 C14.4812072,10.1510547 14.1699167,10.2086978 14.0134718,10.4362491 C13.9561674,10.5195991 13.9254899,10.6183692 13.9254899,10.7195177 Z" id="Path-215"></path>
                </g>
            </g>
        </g>
    </g>
</svg>