<?xml version="1.0" encoding="UTF-8"?>
<svg width="262px" height="49px" viewBox="0 0 262 49" version="1.1" xmlns="http://www.w3.org/2000/svg" xmlns:xlink="http://www.w3.org/1999/xlink">
    <!-- Generator: Sketch 47.1 (45422) - http://www.bohemiancoding.com/sketch -->
    <title>WAVE</title>
    <desc>Created with Sketch.</desc>
    <defs></defs>
    <g id="Page-1" stroke="none" stroke-width="1" fill="none" fill-rule="evenodd" stroke-linecap="square">
        <g id="MOBILE-COMMUNITY---PODCASTS" transform="translate(-50.000000, -745.000000)" stroke="#5B5E6D" stroke-width="2">
            <g id="PODCAST-2" transform="translate(27.000000, 654.000000)">
                <g id="WAVE" transform="translate(23.000000, 92.000000)">
                    <path d="M188,0 L188,47" id="Line-5"></path>
                    <path d="M179,0 L179,34" id="Line-5"></path>
                    <path d="M172,0 L172,23" id="Line-5"></path>
                    <path d="M163,0 L163,4" id="Line-5"></path>
                    <path d="M156,0 L156,18" id="Line-5"></path>
                    <path d="M148,0 L148,23" id="Line-5"></path>
                    <path d="M140,0 L140,26" id="Line-5"></path>
                    <path d="M132,0 L132,13" id="Line-5"></path>
                    <path d="M124,0 L124,7" id="Line-5"></path>
                    <path d="M116,0 L116,17" id="Line-5"></path>
                    <path d="M108,0 L108,6" id="Line-5"></path>
                    <path d="M92,0 L92,1" id="Line-5"></path>
                    <path d="M84,0 L84,1" id="Line-5"></path>
                    <path d="M75,0 L75,6" id="Line-5"></path>
                    <path d="M66,0 L66,1" id="Line-5"></path>
                    <path d="M58,0 L58,1" id="Line-5"></path>
                    <path d="M50,0 L50,8" id="Line-5"></path>
                    <path d="M42,0 L42,2" id="Line-5"></path>
                    <path d="M34,0 L34,13" id="Line-5"></path>
                    <path d="M26,0 L26,1" id="Line-5"></path>
                    <path d="M10,0 L10,1" id="Line-5"></path>
                    <path d="M1,0 L1,1" id="Line-5"></path>
                    <path d="M196,0 L196,22" id="Line-5"></path>
                    <path d="M204,0 L204,12" id="Line-5"></path>
                    <path d="M212,0 L212,3" id="Line-5"></path>
                    <path d="M220,0 L220,12" id="Line-5"></path>
                    <path d="M245,0 L245,1" id="Line-5"></path>
                    <path d="M261,0 L261,1" id="Line-5"></path>
                    <path d="M228,0 L228,3" id="Line-5"></path>
                    <path d="M236,0 L236,1" id="Line-5"></path>
                </g>
            </g>
        </g>
    </g>
</svg>