<?xml version="1.0" encoding="UTF-8"?>
<svg width="41px" height="41px" viewBox="0 0 41 41" version="1.1" xmlns="http://www.w3.org/2000/svg" xmlns:xlink="http://www.w3.org/1999/xlink">
    <!-- Generator: Sketch 52.6 (67491) - http://www.bohemiancoding.com/sketch -->
    <title>Shape</title>
    <desc>Created with Sketch.</desc>
    <g id="Page-1" stroke="none" stroke-width="1" fill="none" fill-rule="evenodd">
        <g id="DESKTOP-OUR-STORY" transform="translate(-620.000000, -737.000000)" fill="#5B5E6D" fill-rule="nonzero">
            <g id="PICTURE-1" transform="translate(126.000000, 447.000000)">
                <path d="M531.095482,331 L497.90525,331 C495.748357,331 494,329.25021 494,327.094088 L494,293.905912 C494,291.74979 495.748357,290 497.90525,290 L531.095482,290 C533.251643,290 535,291.74979 535,293.905912 L535,327.094088 C535,329.25021 533.251643,331 531.095482,331 Z M504.103571,298.772379 C502.420375,298.772379 501.319964,300.028714 501.319964,301.67747 C501.319964,303.291816 502.387429,304.583293 504.039143,304.583293 L504.070625,304.583293 C505.786036,304.583293 506.854232,303.291816 506.854232,301.67747 C506.82275,300.027982 505.786036,298.772379 504.103571,298.772379 Z M507.166857,306.398975 L501.610625,306.398975 L501.610625,323.68822 L507.166857,323.68822 L507.166857,306.398975 Z M529.128214,314.117087 C529.128214,308.987054 526.473464,306.127355 522.68975,306.127355 C519.630125,306.127355 518.270536,307.754147 517.507643,308.889681 L517.507643,306.521241 L511.575089,306.521241 C511.6505,308.085802 511.575089,323.68822 511.575089,323.68822 L517.507643,323.68822 L517.507643,314.365279 C517.507643,313.865967 517.544982,313.368851 517.697268,313.010839 C518.112393,312.01441 519.059054,310.982107 520.647804,310.982107 C522.728554,310.982107 523.377964,312.514455 523.377964,314.756969 L523.377964,323.68822 L529.128214,323.68822 L529.128214,314.117087 Z M517.469571,308.939465 C517.479821,308.924091 517.497393,308.905055 517.507643,308.889681 L517.507643,308.939465 L517.469571,308.939465 Z" id="Shape"></path>
            </g>
        </g>
    </g>
</svg>